<svg xmlns="http://www.w3.org/2000/svg" width="348.209" height="309.2" viewBox="0 0 348.209 309.2">
  <g id="Grupo_9" data-name="Grupo 9" transform="matrix(0.951, -0.309, 0.309, 0.951, -500.614, 142.446)">
    <path id="Trazado_55" data-name="Trazado 55" d="M735.052,162.585c-20.321-3.949-39.468-12.3-58.293-20.657-18.638-8.273-37.142-16.87-55.864-24.954-1.262-.546-3.279.391-2.653,2.041a100.892,100.892,0,0,1,6.146,42.7,1.7,1.7,0,0,0,.026.431c-.9-.011-1.793-.042-2.691-.043-.873,0-1.128,1.424-.213,1.575,1.452.239,2.921.444,4.382.665,1.4,3.685,2.8,7.37,4.3,11.013-1.272.157-2.544.3-3.815.466-1.363.176-1.451,2.291,0,2.2l.063,0c0,.034-.006.062,0,.1,2.547,13.909,2.448,27.535-1.588,41.165a1.91,1.91,0,0,0,2.772,2.131c35.833-17.794,71.532-35.873,106.854-54.662a1.393,1.393,0,0,0,.774-1C736.5,165.032,736.859,162.936,735.052,162.585Zm-112.1-40.644c17.877,8.573,36.035,16.6,54.164,24.612,15.343,6.785,30.76,12.983,46.944,17.1a384.812,384.812,0,0,1-45.835,1.274c-16.879-.469-33.738-2.31-50.614-2.727a1.778,1.778,0,0,0,.1-.482A109.66,109.66,0,0,0,622.956,121.941Zm5.4,42.775a406.188,406.188,0,0,0,66.881,4.084c-20.638,2.265-41.372,3.75-62,6.182C631.68,171.528,630.019,168.12,628.351,164.716Zm1.227,51.516c3.11-12.7,3.079-25.79-1.113-38.347,14.837-.921,29.629-2.243,44.427-3.675,14.337-1.386,29.109-2.1,43.063-5.875a.967.967,0,0,0,.689-.577c3.624-.276,7.227-.614,10.816-.987C694.92,183.433,662.347,200.026,629.578,216.232Z" transform="translate(84.2 0)" fill="#53699b"/>
    <path id="Trazado_56" data-name="Trazado 56" d="M673.615,155.973c-5.878-12.03-20.784-15.9-32.892-17.933-14.2-2.389-29.723-3.058-43.132,3.052a43.157,43.157,0,0,0-23.547,27.65c-16.269-1.15-32.461,12.666-41.726,24.7-8.709,11.307-14.962,26.519-13.8,41.138-5.014.9-9.7,4.524-13.582,7.831a73.967,73.967,0,0,0-17.056,21.437c-8.4,15.756-12.72,36.623-7.011,53.986.559,1.7,3.574,1.541,3.321-.449-2.033-16.029-1.932-30.982,4.553-46.115a75.75,75.75,0,0,1,12.86-20.431c4.484-5.059,10.447-11.238,17.243-13.411a40.482,40.482,0,0,0,.825,4.212c1.653,6.381,5.32,12.738,11.52,15.591,5.393,2.483,12.868,1.682,15.156-4.555,4.507-12.291-11.413-21.178-21.678-17.666a11.836,11.836,0,0,0-2.565-.564,55.153,55.153,0,0,1,2.4-17.706,67.326,67.326,0,0,1,17.517-28.6c8.084-7.953,19.409-16.115,31.189-16.943a1.6,1.6,0,0,0,.058.815c-1.748,9.622.268,24.129,11.552,26.676a1.262,1.262,0,0,0,.963-.159,6.9,6.9,0,0,0,1.333-.051c4.862-.707,7.93-5.931,8.493-10.38.7-5.572-1.9-10.7-6.189-14.162-2.834-2.286-7.543-4.861-11.676-4.822a39.2,39.2,0,0,1,2.52-6.28c5.469-10.772,15.306-17.959,26.918-20.872,11.293-2.832,23.4-1.918,34.77.016,11.6,1.972,22.379,5.389,29.736,15.122A1.115,1.115,0,0,0,673.615,155.973ZM522.641,236.682a1.549,1.549,0,0,0,1.922,1.652c6.431-2.156,13.815-.774,17.6,5.418q2.521,3.227.042,6.81.288,5.736-5.436,4.962c-4.391-.1-8.065-3.164-10.388-6.644a26.774,26.774,0,0,1-4.109-12.176C522.394,236.691,522.518,236.69,522.641,236.682Zm68.014-55.446a11.1,11.1,0,0,1,.766,8.6,10.181,10.181,0,0,1-2.727,4.471,8.031,8.031,0,0,1-3.446,1.65c-8.158-5.071-10.058-14.023-8.486-22.735C582.331,174.206,587.6,175.638,590.655,181.236Z" transform="translate(0 11.737)" fill="#53699b"/>
  </g>
</svg>
