<svg xmlns="http://www.w3.org/2000/svg" width="202.243" height="130.494" viewBox="0 0 202.243 130.494">
  <path id="Trazado_6958" data-name="Trazado 6958" d="M3619.292,766.655c-2.042-14.485-11.961-26.354-24.965-32.625a59.55,59.55,0,0,0-34.74-4.922l-.756-.649c-6.657-5.751-13.142-11.84-20.049-17.29-4.638-3.659-8.276-3.678-13.973-2.351-34.713,8.084-69.682,17.415-103.038,30.046a.825.825,0,0,0-.55.773c-.223-.147-.442-.3-.664-.451.035-.129.051-.277.09-.4.206-.651-.805-1.1-1.116-.472a15.487,15.487,0,0,0-1.651,3.349,14.274,14.274,0,0,0-.4,4.266,13.886,13.886,0,0,0,1.214,5.581.9.9,0,0,0-.57,1.494c12.234,11.327,25.44,21.692,38.588,32.033-.55,9.094-.915,19.049.329,27.985.88,6.319,5.509,9.711,10.593,13.059,14.134,9.306,31.635,11.982,48.237,12.376a189.263,189.263,0,0,0,30.15-1.73c8.171-1.118,17.295-2.187,24.936-5.47,15.881-6.824,10.382-28.8,8.6-42.223a1.762,1.762,0,0,0-1.885-1.5q1.41-.471,2.817-.946c6.4-2.137,18.389-3.657,22.665-9.638a6.632,6.632,0,0,0-1.5-9.662,1.35,1.35,0,0,0-.2-1.931c-11.573-10.388-23.454-20.451-35.269-30.572a52.016,52.016,0,0,1,22.5,3.66c25.123,10.249,33.885,39.113,15.282,59.639a2.049,2.049,0,0,0-.5,1.008c-4.515-.011-8.387,2.557-11.447,5.978-2.542,2.844-8.241,8.542-4.928,12.316,3.281,3.735,8.568,8.915,12.785,4.1a40.7,40.7,0,0,0,8.935-18.7,1.661,1.661,0,0,0-1.4-1.978C3617.538,793.136,3620.994,778.73,3619.292,766.655Zm-41.409,45.456c.037,4.525-.227,9.394-3.648,12.832-2.721,2.735-7.008,3.783-10.632,4.708a178.49,178.49,0,0,1-47.727,5.218c-14.194-.3-28.867-2.274-41.615-8.9a54.808,54.808,0,0,1-8.411-5.373c-4.657-3.62-5.466-7.172-5.765-12.793-.374-7.032-.522-14.081-1.233-21.086q5.453,4.289,10.858,8.6l13.027,10.447c3.008,2.413,6.268,5.7,9.939,7.163,7.584,3.022,17.939-2.928,25.018-5.277,19.753-6.558,39.456-13.255,59.193-19.858a1.261,1.261,0,0,0-.519,1.238C3577.148,796.688,3577.819,804.411,3577.883,812.111Zm19.968-34.7a53.413,53.413,0,0,1-5.072,1.9c-1.735.608-3.493,1.161-5.238,1.74q-5.892,1.957-11.784,3.915c-7.856,2.6-15.73,5.151-23.6,7.71-16.183,5.26-32.258,10.853-48.433,16.14-6.536,2.137-11.286.464-16.49-3.627-3.283-2.581-6.517-5.222-9.775-7.831q-9.775-7.833-19.552-15.66c-12.032-9.609-23.895-19.587-36.481-28.482a.946.946,0,0,0,.563-1.018c-.279-2.1-1.408-3.891-1.7-6.021a21.774,21.774,0,0,1-.07-5.131c11.282,12.265,25.976,22.466,38.856,32.957,12.844,10.462,25.739,20.888,38.88,30.973a1.105,1.105,0,0,0,1.4-.054,1.155,1.155,0,0,0,.391-.033,1041.926,1041.926,0,0,0,100.291-34.641Q3598.946,773.828,3597.851,777.409Zm.989-10.145c-32.965,12.533-66.2,24.056-99.619,35.306-13.469-10.719-27.006-21.344-40.346-32.228-12.008-9.8-23.646-21.276-36.544-29.95,30.954-8.58,61.577-18.175,92.738-26.024,3.51-.884,7.017-1.833,10.552-2.612,4.88-1.075,7.643-.593,11.938,2.193a41.811,41.811,0,0,1,4.249,3.7l13.941,12.143a69.5,69.5,0,0,0-6.86,1.778,81.974,81.974,0,0,0-23.474,11.872c-4.119,3.011-11.221,7.2-10.22,13.038.091.528.7.616,1.1.447,5.285-2.257,10.09-7.191,15.064-10.242a87.91,87.91,0,0,1,18.107-8.679,65.176,65.176,0,0,1,12.437-2.85C3574.189,745.878,3586.347,756.783,3598.84,767.264Zm2.485,46.577c-1.01,1.753-2.2,4.019-3.726,5.346-2.282,1.982-4.8-.866-6.581-2.689-1.794-1.842-1.609-2.354-.22-4.483a41.245,41.245,0,0,1,3.491-4.691c2.794-3.183,5.935-5.438,10.131-5.853a1.737,1.737,0,0,0,1.34.322c-.012.043-.03.08-.04.126A39.583,39.583,0,0,1,3601.325,813.841Z" transform="translate(-3417.464 -708.014)" fill="#fff"/>
</svg>
