<svg xmlns="http://www.w3.org/2000/svg" xmlns:xlink="http://www.w3.org/1999/xlink" width="74" height="284" viewBox="0 0 74 284">
  <defs>
    <clipPath id="clip-path">
      <rect width="74" height="284" fill="none"/>
    </clipPath>
  </defs>
  <g id="Cuadrícula_de_repetición_1" data-name="Cuadrícula de repetición 1" clip-path="url(#clip-path)">
    <g transform="translate(-260 -1013)">
      <g id="Grupo_13367" data-name="Grupo 13367">
        <circle id="Elipse_24" data-name="Elipse 24" cx="37" cy="37" r="37" transform="translate(260 1013)" fill="#9d325e"/>
        <path id="Icon_awesome-phone-alt" data-name="Icon awesome-phone-alt" d="M30.432,22.138,23.579,19.2a1.468,1.468,0,0,0-1.713.422l-3.035,3.708A22.679,22.679,0,0,1,7.99,12.489L11.7,9.454a1.465,1.465,0,0,0,.422-1.713L9.184.888A1.478,1.478,0,0,0,7.5.037L1.138,1.506A1.468,1.468,0,0,0,0,2.937,28.387,28.387,0,0,0,28.389,31.328a1.468,1.468,0,0,0,1.432-1.138l1.468-6.363a1.486,1.486,0,0,0-.857-1.689Z" transform="translate(281.338 1034)" fill="#fff"/>
      </g>
      <g id="Grupo_13368" data-name="Grupo 13368">
        <circle id="Elipse_25" data-name="Elipse 25" cx="37" cy="37" r="37" transform="translate(260 1119)" fill="#9d325e"/>
        <g id="Icon_ionic-ios-mail" data-name="Icon ionic-ios-mail" transform="translate(278.933 1144.12)">
          <path id="Trazado_6893" data-name="Trazado 6893" d="M39.214,10.367l-9.346,9.521a.168.168,0,0,0,0,.243L36.409,27.1a1.127,1.127,0,0,1,0,1.6,1.132,1.132,0,0,1-1.6,0L28.3,21.756a.178.178,0,0,0-.252,0l-1.59,1.616a6.993,6.993,0,0,1-4.986,2.1,7.134,7.134,0,0,1-5.09-2.163l-1.529-1.555a.178.178,0,0,0-.252,0L8.083,28.7a1.132,1.132,0,0,1-1.6,0,1.127,1.127,0,0,1,0-1.6l6.541-6.967a.185.185,0,0,0,0-.243L3.67,10.367a.171.171,0,0,0-.3.122v19.05a2.788,2.788,0,0,0,2.78,2.78H36.73a2.788,2.788,0,0,0,2.78-2.78V10.489A.174.174,0,0,0,39.214,10.367Z" transform="translate(-3.375 -7.301)" fill="#fff"/>
          <path id="Trazado_6894" data-name="Trazado 6894" d="M21.242,23.78a4.722,4.722,0,0,0,3.4-1.425L38.267,8.483a2.73,2.73,0,0,0-1.72-.608H5.946a2.712,2.712,0,0,0-1.72.608L17.854,22.356A4.723,4.723,0,0,0,21.242,23.78Z" transform="translate(-3.175 -7.875)" fill="#fff"/>
        </g>
      </g>
      <g id="Grupo_13369" data-name="Grupo 13369">
        <circle id="Elipse_26" data-name="Elipse 26" cx="37" cy="37" r="37" transform="translate(260 1223)" fill="#9d325e"/>
        <path id="Icon_material-location-on" data-name="Icon material-location-on" d="M19.374,3A11.866,11.866,0,0,0,7.5,14.875c0,8.906,11.874,22.053,11.874,22.053S31.248,23.781,31.248,14.875A11.866,11.866,0,0,0,19.374,3Zm0,16.116a4.241,4.241,0,1,1,4.241-4.241A4.242,4.242,0,0,1,19.374,19.116Z" transform="translate(277.627 1240.237)" fill="#fff"/>
      </g>
    </g>
  </g>
</svg>
