<svg xmlns="http://www.w3.org/2000/svg" width="73.489" height="71.502" viewBox="0 0 73.489 71.502">
  <path id="Trazado_7072" data-name="Trazado 7072" d="M3471.356,477.655c-3.386-3.6-8.441-2.669-12.563-.864a23.452,23.452,0,0,0,.41-4.522.68.68,0,0,0-.506-.641.945.945,0,0,0-.339-.531,1.081,1.081,0,0,0-.053-.116c-3.014-5.1-8.982-6.607-14.3-8.219-6.629-2.009-13.3-3.631-20.26-2.778-.639.079-.518,1.146.125,1.125.05,0,.1,0,.149,0a31.348,31.348,0,0,0-3.422,7.056c-1.78-4.459-6.391-8-11.38-7.313-6.223.858-9.149,7.352-8.91,13.023.467,11.036,10.435,21.474,21.74,21.149q.258.827.512,1.655a81.673,81.673,0,0,1,2.542,12.455.67.67,0,0,0,.16.35.36.36,0,0,0-.044.01c-1.587.7-6.953,2.272-7.908,4.7a.92.92,0,0,0-.552.205c-1.937,1.474-4.319,7.641-3.688,9.818.383,1.32,2.907,2.956,4.051,3.678a20.169,20.169,0,0,0,5.809,2.417,29.432,29.432,0,0,0,6.443.845c1.58.04,3.865.323,5.322-.348,3.2-1.471,2.925-7.9,2.858-10.769a.907.907,0,0,0-.694-.885c.732-2.463-3.206-6.483-4.7-8.091.02-.016.045-.027.065-.045a.558.558,0,0,0,.632-.208,23.264,23.264,0,0,1,4.224-5.273c1.623-1.346,3.438-2.441,5.147-3.669.432-.31.856-.63,1.274-.956,9.966,3.049,22.637-1.068,28.242-10.019C3474.237,486.9,3474.811,481.328,3471.356,477.655Zm-14.333,5.133c3.416-.693,11.381-1.412,9.412,4.842a14.613,14.613,0,0,1-4.805,6.4,19.877,19.877,0,0,1-14.977,4.146,41.513,41.513,0,0,0,3.9-4.266A45.182,45.182,0,0,0,3457.023,482.788Zm-15.2-18.839c4.719,1.423,10.566,2.687,13.851,6.628-5.146-.68-10.284-1.058-15.336-2.467a42.706,42.706,0,0,1-14.072-7.006A59.573,59.573,0,0,1,3441.828,463.949Zm-22.574,20.312a48.291,48.291,0,0,0,1.272,5.693c-4.759-1.817-8.8-4.538-11.209-9.316-1.4-2.764-3.329-8.3.214-10.309,3.958-2.25,7.334,1.937,9.538,4.675A35.129,35.129,0,0,0,3419.253,484.26Zm-15.526-4.712c-1.757-4.639-2.138-10.875,1.733-14.6,4.837-4.65,11.24-.952,13.643,4.167a.83.83,0,0,0,1.068.383,32.7,32.7,0,0,0-.79,3.389c-2.028-2.811-4.966-5.2-8.612-4.707-3.819.52-5.26,3.675-4.914,7.235.736,7.544,7.319,15.183,15.073,15.972q.319,1.078.654,2.154C3413.714,492.012,3406.662,487.291,3403.728,479.549Zm31.935,40.943a26.172,26.172,0,0,1-.424,5.268c-.462,2.365-1.13,3.224-3.746,3.464a24.769,24.769,0,0,1-8.023-.747c-2.512-.63-5.77-1.8-7.514-3.867-1.206-1.431-.75-2.314-.2-4.035a23.667,23.667,0,0,1,1.774-4.429c1.6,2.766,7.018,4.2,9.787,4.651C3429.059,521.081,3433.462,521.68,3435.663,520.492Zm-.9-2.546c-.362,2.1-6.581,1.043-7.961.746a18.739,18.739,0,0,1-3.538-1.151c-1.539-.668-2.782-.846-2.665-2.609.113-1.706,3.234-3.389,4.818-4.5a2.776,2.776,0,0,0,.9.844,5.293,5.293,0,0,0,4.151.612.982.982,0,0,0,.168.266C3431.5,513.117,3435,516.553,3434.76,517.946Zm2.752-15c-2.257,1.655-4.953,3.8-5.537,6.676a.79.79,0,0,0-.646.033,4.855,4.855,0,0,1-2.935.683,4.623,4.623,0,0,1-1.733-.667.335.335,0,0,0-.088-.315c-.01-.012-.023-.019-.034-.03a.771.771,0,0,0,.143-.371c.621-7.253-3.253-14.562-4.942-21.459-2.147-8.772-.657-17.572,3.282-25.583,8.023,8.314,21.684,10.332,32.713,10.7-.993,4.009-1.695,7.891-3.443,11.709a41,41,0,0,1-7.619,11.282C3443.915,498.484,3440.707,500.6,3437.511,502.947Zm27.938-8.039c-6.042,4.674-13.53,6.013-20.924,5.177.487-.4.959-.825,1.426-1.25a.359.359,0,0,0,.188.125,18.915,18.915,0,0,0,20.23-7.706c1.785-2.632,3-5.981.706-8.692-2.367-2.8-5.949-2.665-9.246-2.036.16-.5.321-1,.456-1.5,4.861-1.957,11.718-3.793,13.489,3.121C3473.087,487.261,3469.236,491.978,3465.449,494.908Z" transform="translate(-3400.291 -459.75)" fill="#53699b"/>
</svg>
