<svg xmlns="http://www.w3.org/2000/svg" width="64.866" height="157.489" viewBox="0 0 64.866 157.489">
  <g id="Grupo_13264" data-name="Grupo 13264" transform="translate(-3935.629 -534.726)">
    <path id="Trazado_6949" data-name="Trazado 6949" d="M3991.7,566.138c1.648-6.091,8.19-18.771.181-22.851-5.993-3.053-14.909-3.565-21.482-4.884-6.759-1.357-13.545-2.55-20.349-3.659-1.065-.174-1.861.945-1.953,1.852-3.947,38.639-6.962,77.819-5.855,116.684a1.16,1.16,0,0,0,1.038,1.157,1.388,1.388,0,0,0,1.028.711,69.576,69.576,0,0,1,8.366,1.725c1.873.513,3.7,1.254,5.6,1.607a2.129,2.129,0,0,0,3.463-.705C3973.691,628.036,3983.332,597.056,3991.7,566.138Zm-47.028,86.341c1.822-37.955,3.2-75.8,7.024-113.626,5.4.909,10.8,1.869,16.174,2.935,5.5,1.089,13.182,1.539,18.3,3.961q3.6-.3,4.042,3.293a4.315,4.315,0,0,1,.436,5.579c-.393,2.851-1.675,6.079-2.453,8.851-1.793,6.385-3.607,12.767-5.492,19.128-7.226,24.4-15.743,48.279-24.173,72.27C3954.424,653.092,3948.915,652.792,3944.677,652.479Z" transform="translate(4.71)" fill="#53699b"/>
    <path id="Trazado_6950" data-name="Trazado 6950" d="M3961.755,636.467a128.033,128.033,0,0,1,5.25-21.211,2.072,2.072,0,0,0-1.36-2.552c-6.168-1.883-13.091-5.025-19.557-5.278a1.2,1.2,0,0,0-1.227,1.274,2.432,2.432,0,0,0-4.072.638,77.324,77.324,0,0,0-5.152,20.877,2.3,2.3,0,0,0,1.619,2.246c7.209,2.055,14.437,4.05,21.663,6.05A2.238,2.238,0,0,0,3961.755,636.467Zm.7-20.471a131.387,131.387,0,0,0-4.589,17.635q-8.72-2.533-17.451-5.021a73.121,73.121,0,0,1,4.686-17.96,2.069,2.069,0,0,0,.135-1.119,1.142,1.142,0,0,0,.163.149C3950.262,612.824,3956.756,614.288,3962.457,616Z" transform="translate(0 53.612)" fill="#53699b"/>
  </g>
</svg>
