<svg xmlns="http://www.w3.org/2000/svg" width="26.832" height="30.959" viewBox="0 0 26.832 30.959">
  <path id="Trazado_6895" data-name="Trazado 6895" d="M389.426,367.374a7,7,0,0,1-.609-.355,8.581,8.581,0,0,1-1.565-1.33,7.382,7.382,0,0,1-1.764-3.639h.006a4.489,4.489,0,0,1-.07-1.3h-5.317v20.559c0,.276,0,.549-.012.818,0,.034,0,.065-.005.1a.232.232,0,0,1,0,.046v.011a4.516,4.516,0,0,1-2.271,3.583,4.437,4.437,0,0,1-2.2.58,4.515,4.515,0,0,1,0-9.029,4.44,4.44,0,0,1,1.381.219l.007-5.414a9.877,9.877,0,0,0-7.61,2.227,10.423,10.423,0,0,0-2.277,2.807,9.734,9.734,0,0,0-1.174,4.466,10.549,10.549,0,0,0,.571,3.53v.013a10.378,10.378,0,0,0,1.444,2.633,10.786,10.786,0,0,0,2.3,2.173v-.013l.013.013a9.95,9.95,0,0,0,5.428,1.634,9.608,9.608,0,0,0,4.028-.891A10.1,10.1,0,0,0,383,388.361a10.226,10.226,0,0,0,1.783-2.962,11.089,11.089,0,0,0,.642-3.388V371.1c.065.039.924.607.924.607a12.284,12.284,0,0,0,3.168,1.31,18.231,18.231,0,0,0,3.252.445v-5.278A6.9,6.9,0,0,1,389.426,367.374Z" transform="translate(-365.936 -360.753)" fill="#fff"/>
</svg>
