<svg xmlns="http://www.w3.org/2000/svg" xmlns:xlink="http://www.w3.org/1999/xlink" width="121.238" height="173.208" viewBox="0 0 121.238 173.208">
  <defs>
    <linearGradient id="linear-gradient" x1="0.5" x2="0.5" y2="1" gradientUnits="objectBoundingBox">
      <stop offset="0" stop-color="#7ea4ed"/>
      <stop offset="1" stop-color="#2a344f"/>
    </linearGradient>
  </defs>
  <g id="Grupo_13370" data-name="Grupo 13370" transform="translate(-903.382 -1658.179)">
    <path id="Icon_material-location-on" data-name="Icon material-location-on" d="M68.119,3A60.577,60.577,0,0,0,7.5,63.623c0,45.467,60.619,112.586,60.619,112.586s60.619-67.118,60.619-112.586A60.577,60.577,0,0,0,68.119,3Zm0,82.274a21.651,21.651,0,1,1,21.65-21.651A21.658,21.658,0,0,1,68.119,85.274Z" transform="translate(895.882 1655.179)" fill="url(#linear-gradient)"/>
    <circle id="Elipse_27" data-name="Elipse 27" cx="50" cy="50" r="50" transform="translate(914 1668)" fill="#fff"/>
    <g id="Grupo_13236" data-name="Grupo 13236" transform="translate(933.751 1685.369)">
      <path id="Trazado_45" data-name="Trazado 45" d="M104.948,116.769q12.168,0,24.336,0c.507,0,1.014,0,1.52-.032,1.579-.086,1.687-.107,1.923,1.43.634,4.131,1.276,8.267,1.71,12.422a73.182,73.182,0,0,1,.039,14.354c-1.124,12.177-5.122,23.071-14.219,31.666a47.012,47.012,0,0,1-14.824,9.348,1.7,1.7,0,0,1-1.221-.054,47.057,47.057,0,0,1-20.186-16.991A51.684,51.684,0,0,1,76.8,150.163a74.513,74.513,0,0,1-.916-17.228,84.677,84.677,0,0,1,2.063-15.082,1.148,1.148,0,0,1,1.352-1.071c8.551.028,17.1.017,25.653.017Z" transform="translate(-75.066 -115.637)" fill="#9d325e"/>
      <path id="Trazado_46" data-name="Trazado 46" d="M106.862,116.956q12.168,0,24.336,0c.507,0,1.014,0,1.52-.032,1.579-.086,1.687-.107,1.923,1.43.633,4.131,1.276,8.267,1.71,12.422a41.249,41.249,0,0,1,.4,5.587c-1.833,2.281-4.269,3.671-13.57,9.471-7.358,3.962-1.7-7.333-2.9-5.8.8.417-4.949,3.957-6.367,3.891-1.07-.05-.067-4.178-.216-4.247-7.066-1.328-20.963,21.651-5.1-1.875-3.733-5.726-27.961,22.232-29.251,15.536-1.752-5.13-1.789-14.459-1.554-20.213a84.7,84.7,0,0,1,2.063-15.082,1.149,1.149,0,0,1,1.352-1.071c8.551.028,17.1.017,25.653.017Z" transform="translate(-76.449 -115.771)" fill="#2a344f"/>
      <path id="Trazado_47" data-name="Trazado 47" d="M118.464,187.476l.359.341a9.469,9.469,0,0,1-.453,1.21c-.792,1.485-1.643,2.936-2.412,4.433-.348.677-.852,1.511-.017,2.139.756.568,1.215-.269,1.733-.674.172-.135.305-.323.469-.47,1.915-1.723,3.826-3.452,5.757-5.155a5.934,5.934,0,0,1,1.056-.608,8.934,8.934,0,0,1-.732,1.838,7.031,7.031,0,0,0-.551,2.15c-.056,1.341.624,2.118,1.895,2.082a12.573,12.573,0,0,0,3.582-.554c3.761-1.356,6.969-3.948,10.416-5.995,1.211-.719,1.44-1.734.856-3.3-.43.3-.838.6-1.26.873-2.752,1.8-5.45,3.7-8.287,5.343a17.093,17.093,0,0,1-4.659,1.663c-1.033.242-1.267-.236-.763-1.226.44-.864.991-1.666,1.459-2.516a1.563,1.563,0,0,0-.3-2.138,2.128,2.128,0,0,0-1.854-.094,24.8,24.8,0,0,0-3.279,2.172c-.623.452-1.179,1-1.766,1.512.15-.985.573-1.812.677-2.681a2.616,2.616,0,0,0-.482-1.932c-.313-.3-1.265-.194-1.757.08-1.588.884-3.093,1.931-4.632,2.91-.21.133-.437.237-.873.47.691-1.184,1.291-2.084,1.761-3.053.455-.938.981-2.023.193-2.969-.767-.92-1.852-.548-2.729-.133-2.4,1.133-4.808,2.259-7.109,3.588a127.8,127.8,0,0,0-18.4,13.548c-1.308,1.108-1.386,1.759-.393,3.306q3.778-3.132,7.551-6.256a84.594,84.594,0,0,1,17.8-11.785c.561-.262,1.161-.432,1.742-.645l.215.308a20.364,20.364,0,0,1-1.2,1.966c-1.723,2.237-3.526,4.406-5.217,6.668a22.893,22.893,0,0,0-1.984,3.352c-.148.292-.008,1.076.178,1.152a1.882,1.882,0,0,0,1.231-.168c.247-.095.416-.407.627-.613,2.3-2.239,4.543-4.548,6.924-6.688C115.267,189.635,116.914,188.615,118.464,187.476Z" transform="translate(-81.909 -163.088)" fill="#fff"/>
      <g id="Trazado_48" data-name="Trazado 48" transform="translate(-73.279 -112.915)" fill="none" stroke-miterlimit="10">
        <path d="M103.18,112.982q12.468,0,24.936,0c.519,0,1.04,0,1.558-.033,1.618-.088,1.728-.11,1.97,1.465.649,4.233,1.307,8.471,1.752,12.728a74.993,74.993,0,0,1,.041,14.708c-1.152,12.477-5.249,23.64-14.57,32.447a48.175,48.175,0,0,1-15.189,9.578,1.749,1.749,0,0,1-1.251-.055,48.217,48.217,0,0,1-20.684-17.41,52.961,52.961,0,0,1-7.41-19.208,76.364,76.364,0,0,1-.938-17.653,86.807,86.807,0,0,1,2.114-15.454,1.177,1.177,0,0,1,1.385-1.1c8.762.029,17.524.018,26.286.018Z" stroke="none"/>
        <path d="M 123.6782989501953 121.9810180664062 L 91.75846099853516 122.015380859375 L 83.16392517089844 122.0037231445312 C 82.74948120117188 124.7141876220703 82.49315643310547 127.3336639404297 82.38777160644531 129.9143829345703 C 82.19593048095703 134.6135711669922 82.13893127441406 140.1397857666016 83.1708984375 145.4972534179688 C 84.38914489746094 151.8209686279297 86.38845825195312 157.0531616210938 89.28305053710938 161.4928436279297 C 92.70698547363281 166.744384765625 97.31470489501953 170.9201049804688 103.3086547851562 174.1900482177734 C 106.8893051147461 172.4349975585938 109.9777221679688 170.3132019042969 112.686149597168 167.7541046142578 C 119.6530838012695 161.1710357666016 123.399055480957 152.6764068603516 124.4749908447266 141.0211029052734 C 124.8866806030273 136.5609741210938 124.8766174316406 132.2056579589844 124.4451446533203 128.07666015625 C 124.2351760864258 126.0683746337891 123.975227355957 124.0647735595703 123.6782989501953 121.9810180664062 M 130.4784545898438 112.9150085449219 C 131.3415832519531 112.9149932861328 131.4508209228516 113.1535491943359 131.6439819335938 114.4128875732422 C 132.2932434082031 118.6460418701172 132.9512329101562 122.8834075927734 133.3963623046875 127.1407928466797 C 133.9073638916016 132.0308227539062 133.8896484375 136.9433746337891 133.4368896484375 141.8483123779297 C 132.2850952148438 154.3256683349609 128.1881713867188 165.4884490966797 118.8673324584961 174.2957153320312 C 114.4398956298828 178.4790344238281 109.3125228881836 181.5907897949219 103.6780853271484 183.8741607666016 C 103.3219146728516 184.0183563232422 102.782470703125 183.9837036132812 102.4274291992188 183.8187255859375 C 93.96192932128906 179.8820343017578 86.87521362304688 174.2785339355469 81.743896484375 166.4082641601562 C 77.91871643066406 160.541259765625 75.65530395507812 154.0615692138672 74.33340454101562 147.1997833251953 C 73.20578002929688 141.3457641601562 73.15455627441406 135.4429779052734 73.39527893066406 129.5472259521484 C 73.60755920410156 124.3486328125 74.3663330078125 119.1868743896484 75.50918579101562 114.0930328369141 C 75.69499206542969 113.2638397216797 76.04496765136719 112.9927215576172 76.89439392089844 112.9952239990234 C 85.65609741210938 113.0245208740234 94.41834259033203 113.0132598876953 103.1802749633789 113.0132598876953 L 103.1802749633789 112.9820098876953 C 111.4923095703125 112.9820098876953 119.804084777832 112.9825744628906 128.1158447265625 112.9806060791016 C 128.6352691650391 112.9806060791016 129.1556091308594 112.9761047363281 129.6739501953125 112.9476623535156 C 129.998291015625 112.9299926757812 130.2620849609375 112.9150085449219 130.4784545898438 112.9150085449219 Z" stroke="none" fill="#707070"/>
      </g>
    </g>
  </g>
</svg>
