<svg xmlns="http://www.w3.org/2000/svg" width="30.962" height="30.956" viewBox="0 0 30.962 30.956">
  <path id="Icon_awesome-instagram" data-name="Icon awesome-instagram" d="M15.479,9.779a7.937,7.937,0,1,0,7.937,7.937A7.924,7.924,0,0,0,15.479,9.779Zm0,13.1a5.16,5.16,0,1,1,5.16-5.16,5.169,5.169,0,0,1-5.16,5.16ZM25.592,9.454A1.851,1.851,0,1,1,23.741,7.6,1.847,1.847,0,0,1,25.592,9.454Zm5.257,1.879a9.161,9.161,0,0,0-2.5-6.486,9.221,9.221,0,0,0-6.486-2.5C19.306,2.2,11.646,2.2,9.09,2.346A9.208,9.208,0,0,0,2.6,4.84,9.191,9.191,0,0,0,.1,11.326C-.042,13.882-.042,21.542.1,24.1a9.161,9.161,0,0,0,2.5,6.486,9.233,9.233,0,0,0,6.486,2.5c2.556.145,10.216.145,12.772,0a9.161,9.161,0,0,0,6.486-2.5,9.221,9.221,0,0,0,2.5-6.486c.145-2.556.145-10.209,0-12.765Zm-3.3,15.507A5.224,5.224,0,0,1,24.6,29.783c-2.038.808-6.873.622-9.125.622s-7.094.18-9.125-.622A5.224,5.224,0,0,1,3.412,26.84C2.6,24.8,2.79,19.967,2.79,17.715s-.18-7.094.622-9.125A5.224,5.224,0,0,1,6.355,5.648c2.038-.808,6.873-.622,9.125-.622s7.094-.18,9.125.622a5.224,5.224,0,0,1,2.943,2.943c.808,2.038.622,6.873.622,9.125S28.355,24.809,27.547,26.84Z" transform="translate(0.005 -2.238)" fill="#fff"/>
</svg>
