<svg xmlns="http://www.w3.org/2000/svg" width="117.888" height="87.171" viewBox="0 0 117.888 87.171">
  <path id="Trazado_6993" data-name="Trazado 6993" d="M3913.6,607.4c1.656-6.582,6.6-17.991-.447-23.214-3.97-2.941-10.05-3.981-14.633-5.448q-9.069-2.9-18.246-5.438c-13.9-3.844-27.947-7.2-42.11-9.926-6.64-1.28-24.472-7.191-26.446,3.838a.688.688,0,0,0-.663.521c-3.656,12.837-6.774,25.788-9.666,38.819-.963,4.341-2.965,9.487-2.317,13.974.543,3.754,3.359,5.251,6.623,6.48,24.146,9.1,49.952,14.981,75.4,18.98,7.706,1.211,18.651,4.921,23.2-3.746,2.282-4.35,3.009-9.788,4.193-14.5Q3911.04,617.568,3913.6,607.4Zm-84.421-43.587q7.663,1.385,15.3,2.945,14.837,3.045,29.476,6.971,14.624,3.933,29.018,8.686c3.96,1.3,8.28,2.339,10.378,5.441a1.127,1.127,0,0,0-.144.07c-8.4,5.171-16.824,10.28-25.479,15.024q-6.484,3.555-13.07,6.926c-2.192,1.122-4.384,2.262-6.61,3.316a14.4,14.4,0,0,1-4.146,1.612c-2.391.3-4.431-1.014-6.143-2.634-3.587-3.4-6.572-7.748-9.77-11.517q-5.172-6.1-10.362-12.176c-7.079-8.309-14.161-16.652-21.665-24.582C3819.448,561.708,3825.4,563.126,3829.176,563.808Zm65.061,81.781c-5.6-.2-11.392-1.5-16.915-2.427a430.589,430.589,0,0,1-59.649-14.422c-4.168-1.328-12.7-2.756-15.568-6.978a448.733,448.733,0,0,0,37.376-26.132c.846-.668.055-2.071-.905-1.463a449.035,449.035,0,0,0-37.006,26.618,5.326,5.326,0,0,1-.433-2.054c-.057-5.4,2.293-11.531,3.48-16.783,2.523-11.157,5.171-22.285,7.729-33.433a.77.77,0,0,0,1-.62,6.044,6.044,0,0,1,1.849-3.436c7.192,9.487,14.937,18.565,22.611,27.661q5.73,6.792,11.473,13.573c2.89,3.412,6.253,9.433,10.537,11.194,3.228,1.327,6.551-.34,9.438-1.74,3.169-1.537,6.307-3.14,9.431-4.772a22.393,22.393,0,0,0,2.709,5.717c1.834,3.286,3.731,6.536,5.634,9.782,3.69,6.3,7.123,13.051,11.4,18.97A9.2,9.2,0,0,1,3894.237,645.589Zm17.277-38.685c-2.522,9.975-4.731,20.094-7.589,29.977-.823,2.847-1.923,5.315-3.782,6.891-2.824-5.795-6.608-11.287-9.966-16.783s-8.03-11.155-10.619-17.076c1.681-.884,3.367-1.761,5.036-2.666,10.084-5.467,20.046-11.252,29.634-17.552a9.1,9.1,0,0,1,.41,2.84C3914.607,597.307,3912.674,602.319,3911.514,606.9Z" transform="translate(-3798.942 -560.641)" fill="#cc4482"/>
</svg>
