<svg xmlns="http://www.w3.org/2000/svg" width="236.392" height="278.474" viewBox="0 0 236.392 278.474">
  <g id="Grupo_13274" data-name="Grupo 13274" transform="matrix(0.914, -0.407, 0.407, 0.914, -3258.076, 1235.019)">
    <g id="Grupo_13240" data-name="Grupo 13240" transform="translate(3453.339 253.957)">
      <path id="Trazado_6909" data-name="Trazado 6909" d="M3607.818,291.69c-9.864-13.791-24.613-24.324-41.185-28.262-19.513-4.636-39.887-.417-57.979,7.368-.764.329-.45,1.43.216,1.641-29.748,11.609-41.361,44.922-39.708,74.947.88,16,4.024,32.706,14.373,45.44,9.234,11.362,22.735,19.069,36.963,22.182,17.737,3.882,36.343,1.439,53.408-4.27,15.255-5.1,28.951-13,37.8-26.8C3629.1,356.814,3626.286,317.512,3607.818,291.69Zm-10.972-7.721c.4.4.813.789,1.207,1.2,12.444,12.855,19.846,30.193,21.644,48.059a7.769,7.769,0,0,0-3.849-.876c-2.51.406-3.324,2.836-6.2,2.94-1.848.067-3.379-.372-4.974.842a6.116,6.116,0,0,0-2.04,3.642.821.821,0,0,0-.146.14c-1.621,2.233-1.283,3.892-1.066,6.463.407,4.825.905,7.368-2.534,10.914a32.44,32.44,0,0,0-3.233,3.353c-1.859,2.567-2.3,5.23-2.492,8.318-.427,6.843-2.338,15.385-10.465,15.88a.824.824,0,0,0-.539-.562c-4.423-1.528-6.127-5.278-9.113-8.418-3.391-3.569-6.993-6.332-9.741-10.554-5.007-7.693-13.923-19.359-12.486-28.974,1.99-13.325,18.755-9.564,28.167-10.921,3.84-.554,9.6-1.708,9.323-6.272a.586.586,0,0,0-.036-.446c0-.038,0-.073-.008-.113a.384.384,0,0,0-.486-.28c-.017,0-.032-.01-.049-.011a10.938,10.938,0,0,0-2.613.344c-.664.125-2.138.659-2.791.279-1.331-.773.772-2.062,1.254-2.551a3.363,3.363,0,0,0,.955-1.507c.64-2.672-2.736-3.9-4.658-2.687-.007,0-.009.012-.017.016s-.03,0-.043,0c-1.29.28-1.4,2.021-1.392,3.093,0,.307.217,2.317-.048,2.4-.32.1-1.529-1.324-1.864-1.6a.452.452,0,0,0-.141-.078c-.039-.066-.065-.14-.109-.2-.259-.38-1.007-.41-1.1.144a22.342,22.342,0,0,0-.118,3.414c-1.038-2.274-1.021-5.125-2.783-7.078a.455.455,0,0,0-.614-.079.7.7,0,0,0-1.186.29A6.511,6.511,0,0,1,3569.25,316c-.566.629-1.428.956-1.619-.073-.089-.484.037-.991-.08-1.487a1.973,1.973,0,0,0-2.68-1.391.784.784,0,0,0-.905.249c-.615.837-1.672.9-2.166,1.938-.979,2.054-.354,4.8-2.367,6.344-2.615,2-5.13-1.152-6.313-3.367a13.542,13.542,0,0,1-1.132-2.935c-.173-.658-.043-2.254-.591-2.922a.749.749,0,0,0,.179-.253c1.545-3.481,2.958-7.772,5.255-10.823,2.906-3.86,8.742-3.485,13.181-3.506,4.282-.021,10.238,2.438,14.418.534a.688.688,0,0,0,.166.058c4.485.742,6.953-5.387,4.944-8.824a7.1,7.1,0,0,0-5.575-3.4,8.884,8.884,0,0,0-4.127.742c-.634.271-1.26.83-1.888,1.044-1.7.578-3.669.4-3.494-1.449a1.063,1.063,0,0,0,.687-.435,11.78,11.78,0,0,1,10.023-5.393c2.922-.033,9.2.768,11.42,3.147A.662.662,0,0,0,3596.846,283.969ZM3538.736,412.63a.988.988,0,0,0-.119,1.071c-.355,0-.711,0-1.065,0-14.835-.218-29.693-4.418-41.7-13.313-12.947-9.591-19.536-23.344-22.28-38.932-5.911-33.565,3.165-74.394,38.333-87.874a1.062,1.062,0,0,0,.607-.572c7.554,3.72,14.108,8.9,18.051,16.615,2.56,5.01,4.585,12.73-1.664,15.725-2.177,1.043-4.57,1.822-6.191,3.7-2.632,3.056-1.847,7.377-4.944,10.23-2.413,2.224-6.067,2.786-8.933,4.29a11.7,11.7,0,0,0-4.8,3.979c-1.139,1.856-1.446,3.384-2.909,5.269-2.386,3.075-5.529,4.018-9.163,5.121-6.573,1.994-12.32,3.49-15,10.469-1.77,4.605-2.976,13.28,1.129,17.029,4.306,3.933,10.354.84,14.217-1.923,4.923-3.522,10.175-6.765,16.543-5.041a11.773,11.773,0,0,1,8.021,7.322c1,2.838-.077,5.431.145,8.259.3,3.855,2.245,4.488,4.393,7.463,3.458,4.79.734,8.686,2.667,13.473.555,1.373,1.493,1.828,2.226,3,1.356,2.17,1.561,5.646,3,7.608a6.73,6.73,0,0,0,2.257,2.041C3532.828,408.379,3540.952,409.567,3538.736,412.63Zm76.035-41.789c-11.471,29.287-43.937,42.33-73.8,42.849a3.919,3.919,0,0,0,.223-4.407,5.48,5.48,0,0,0-2.726-2.172,7.66,7.66,0,0,0-1.1-.332c-2.982-.915-4.691-2.42-6.313-5.388-.534-.976-.422-2.073-1.048-3.061-1.481-2.34-3.525-3.893-4.053-6.964-.644-3.752.862-6.751-1.562-10.157-.836-1.173-2.2-1.892-3.048-3.031-2.1-2.826-1.538-4.387-1.426-7.819a13.469,13.469,0,0,0-2.756-8.854c-4.442-5.782-12.281-6.9-18.8-4.308-4.563,1.813-7.945,6.4-12.739,7.563-9.358,2.27-8.834-10.941-6.135-16.347,4.939-9.893,20.2-5.542,24.981-14.676.809-1.543.754-3.47,1.7-4.941,1.333-2.082,4-3.064,6.163-3.952,2.469-1.012,5.149-1.8,7.243-3.529,2.809-2.323,2.555-4.569,3.731-7.813,1.758-4.848,5.722-4.968,9.273-7.672,6.247-4.757,1.26-14.144-2.059-19.271a35.852,35.852,0,0,0-18.043-14.605.925.925,0,0,0-.453-.411c14.615-4.847,30.046-8.429,45.495-6.7a66.108,66.108,0,0,1,33.388,13.891,24.006,24.006,0,0,0-7.38-.551c-4.458.469-8.575,2.815-10.332,7.035a.881.881,0,0,0-.05.544,3.481,3.481,0,0,0,2.938,5.014c2.841.256,4.718-2.589,7.732-2.281,2.37.243,4.771,2.057,4.245,4.764-.339,1.741-1.751,2.462-3.125,3.252-8.27.068-16.279-2.187-24.618-.149-6.047,1.477-8.984,9.7-10.167,15.135a.772.772,0,0,0,.154.629c-.861,1.966.036,5.038.82,6.764,1.1,2.423,3.188,5.1,6.016,5.483a4.422,4.422,0,0,0,4.755-2.744c.811-1.684.7-3.564,1.347-5.243.436-1.137,1.443-1.357,1.9-2.344,1.052.161.556,2.537.967,3.347a2.162,2.162,0,0,0,2.484,1.074c1.885-.428,3.118-2.509,3.305-4.459,1.028,2.879.8,6.214,3.134,8.483a.922.922,0,0,0,1.527-.4,13.663,13.663,0,0,0,.438-3.866c.846.963,1.892,1.633,2.686.182a5.708,5.708,0,0,0,.281-2.79,5.6,5.6,0,0,1,.123-1.682c.119-.394.3-.7.38-1.091,1.089-.207,2.661.24,2.594,1.612-.034.718-1.512,1.46-1.959,1.957a2.514,2.514,0,0,0-.519,3.166,2.9,2.9,0,0,0,2.654.931,16.27,16.27,0,0,0,3.815-.7c-2.769,5.873-16.334,3.942-21.112,4.275-3.957.275-7.947.955-11.313,3.184-6.105,4.039-6.447,10.552-4.338,17.074a83.222,83.222,0,0,0,15.2,27.161c2.747,3.143,6.17,5.407,8.848,8.683,2.043,2.5,3.895,4.516,6.888,5.58,7.246,4.747,13.537-7.185,13.972-12.886.322-4.223.057-8.572,3.006-11.974,1.369-1.578,3.1-2.809,4.368-4.483,4.079-5.387-1.609-10.294,1.191-15.753a.876.876,0,0,0,.092-.3c1.073-1.839,2.2-2.909,4.756-2.975,1.44-.037,2.576.348,3.957-.237.936-.4,1.467-1.29,2.314-1.762,1.829-1.018,3.288-.1,5-.035A80.868,80.868,0,0,1,3614.771,370.841Z" transform="translate(-3449.605 -252.159)" fill="#53699b"/>
      <path id="Trazado_6910" data-name="Trazado 6910" d="M3603.845,467.207a1.3,1.3,0,0,0-1.3-.3c.748-4.9-2.194-9.813-5.95-12.808-6.884-5.491-16.623-4.525-24.861-5.121a1.508,1.508,0,0,0-.472.043c-1.437-5.461-4.888-10.434-8.411-14.788,9.826-1.939,19.872-4.992,26.791-12.572a1.5,1.5,0,0,0,0-2.077q-1.834-1.874-3.689-3.722a1.387,1.387,0,0,0-2.174.233,1.262,1.262,0,0,0-1.18.1c-15.615,9.317-34.4,9.95-52.045,8.09-18.392-1.938-33.952-9.664-45.478-24.281-21.595-27.381-25.391-68.7-9.089-99.5,8.751-16.534,22.861-29.089,39.451-37.482a.621.621,0,0,0-.052-1.084,7.172,7.172,0,0,0-.352-4.416,6.092,6.092,0,0,0-2.9-3.407.519.519,0,0,0-.249-.1l-.011,0a1.2,1.2,0,0,0-1.25.321c-17.863,5.182-33.135,21.176-42.605,36.55-11.521,18.7-16.051,41.246-14.313,63.029,1.571,19.679,8.25,39.259,20.89,54.617,12.948,15.729,31.479,24.776,51.53,27.32a109.356,109.356,0,0,0,26.4.015,59.26,59.26,0,0,0-5.036,12.227c-.258.848-.545,1.742-.833,2.656a1.041,1.041,0,0,0-.656-.333c-8.448-.953-17.752-.04-24.69,5.345-3.9,3.03-6.884,7.623-6.039,12.578-3.854,5.6-.6,13.613,4.99,17.155,4.244,2.686,9.288,3.5,14.2,4.008a193.882,193.882,0,0,0,22.356.937c12.956-.162,27.552-1,39.833-5.5C3603.372,482.479,3611.191,473.667,3603.845,467.207Zm-71.363-33.555c-19.772-1.251-38.875-8.691-52.625-23.255-27.975-29.636-31.122-77.8-12.253-112.915a95.276,95.276,0,0,1,18.684-24.348c7.325-6.878,15.781-11.766,24.207-17.045.031.046.047.1.083.14.732.893,1.687,1.3,2.25,2.395a5.97,5.97,0,0,1,.567,3.3.812.812,0,0,0,.125.511c-34.042,12.4-52.134,50.52-50.175,85.238,1.936,34.289,21.681,70.932,57.747,78.064,20.48,4.048,44.546,3.822,62.922-7.116a1.5,1.5,0,0,0,.33-.274q1.1,1.14,2.209,2.274c-6.708,6.655-16.108,9.19-25.189,11.008A111.475,111.475,0,0,1,3532.482,433.652Zm17.386,18.189c1.405-5.537,3.5-10.842,5.142-16.3,1.56-.215,3.117-.454,4.668-.728a1.319,1.319,0,0,0,.239.769c3.036,4.441,6.44,8.728,7.961,13.978,1.886,6.509-.2,14.584-7.69,16.086-2.547.51-6.2.477-8.474-1C3547.611,461.993,3548.815,455.984,3549.868,451.841Zm-23.779,4.381c5.959-3.159,13.267-4.062,19.907-3.792a1.164,1.164,0,0,0,.152-.024,23.17,23.17,0,0,0-1.251,8.748c.766,6.985,10.041,8.987,15.768,7.935,6.6-1.211,10.671-6.758,11.23-13.279a18.935,18.935,0,0,0-.081-3.867c5.973.423,12.319,0,18.066,1.9,6.929,2.3,14.21,11.772,6.419,17.66-4.51,3.409-11.293,3.921-16.69,4.906a187.952,187.952,0,0,1-21.033,2.807c-11.13.754-26.477,1.325-36.083-5.346C3514.574,468.375,3519.225,459.86,3526.089,456.222Zm58.1,28.706a161.183,161.183,0,0,1-27.374,2.579,154.464,154.464,0,0,1-25.308-1.29c-7.442-1.149-18.885-7.414-15.7-15.9,2.169,5.7,8.531,8.382,14.016,9.8,9.316,2.411,19.205,2.711,28.754,2.064a207.506,207.506,0,0,0,28.886-4.271c5.545-1.175,12.232-3.049,14.494-8.847l.013.019C3610.821,479.481,3590.412,483.773,3584.187,484.928Z" transform="translate(-3453.339 -253.957)" fill="#53699b"/>
    </g>
    <path id="Trazado_6911" data-name="Trazado 6911" d="M3546.181,278.332a6.027,6.027,0,0,0-7.708-.85c-6.321,4.145,1.384,10.6,6.542,10.616.624.454,1.715.207,1.632-.759C3546.376,284.213,3548.662,281.094,3546.181,278.332Zm-8.014,3.34a2.944,2.944,0,0,1,2.332-3.024c2.111-.689,4.643.358,4.9,2.712.192,1.749-.688,3.457-.8,5.23a10.517,10.517,0,0,1-4.521-2.089A4.767,4.767,0,0,1,3538.167,281.671Z" transform="translate(19.724 5.367)" fill="#53699b"/>
  </g>
</svg>
