<svg xmlns="http://www.w3.org/2000/svg" xmlns:xlink="http://www.w3.org/1999/xlink" width="96" height="95" viewBox="0 0 96 95">
  <defs>
    <filter id="Elipse_18" x="0" y="0" width="96" height="95" filterUnits="userSpaceOnUse">
      <feOffset dy="3" input="SourceAlpha"/>
      <feGaussianBlur stdDeviation="3" result="blur"/>
      <feFlood flood-opacity="0.161"/>
      <feComposite operator="in" in2="blur"/>
      <feComposite in="SourceGraphic"/>
    </filter>
  </defs>
  <g id="Grupo_237" data-name="Grupo 237" transform="translate(-1725.771 -924.912)">
    <g transform="matrix(1, 0, 0, 1, 1725.77, 924.91)" filter="url(#Elipse_18)">
      <ellipse id="Elipse_18-2" data-name="Elipse 18" cx="39" cy="38.5" rx="39" ry="38.5" transform="translate(9 6)" fill="#56a543"/>
    </g>
    <path id="Icon_awesome-whatsapp" data-name="Icon awesome-whatsapp" d="M38.251,8.787a22.3,22.3,0,0,0-35.088,26.9L0,47.239l11.82-3.1a22.226,22.226,0,0,0,10.655,2.711h.01a22.508,22.508,0,0,0,22.5-22.294A22.381,22.381,0,0,0,38.251,8.787Zm-15.766,34.3a18.5,18.5,0,0,1-9.44-2.581l-.673-.4L5.363,41.947,7.23,35.108l-.442-.7a18.566,18.566,0,1,1,34.435-9.851A18.737,18.737,0,0,1,22.485,43.092ZM32.647,29.213c-.552-.281-3.294-1.627-3.806-1.808s-.884-.281-1.255.281-1.436,1.808-1.767,2.189-.653.422-1.205.141c-3.274-1.637-5.423-2.922-7.582-6.628-.572-.984.572-.914,1.637-3.043a1.032,1.032,0,0,0-.05-.974c-.141-.281-1.255-3.023-1.717-4.137-.452-1.085-.914-.934-1.255-.954-.321-.02-.693-.02-1.064-.02a2.064,2.064,0,0,0-1.486.693,6.26,6.26,0,0,0-1.948,4.65c0,2.742,2,5.393,2.27,5.764s3.927,6,9.52,8.415c3.535,1.526,4.921,1.657,6.688,1.4,1.075-.161,3.294-1.346,3.756-2.651a4.659,4.659,0,0,0,.321-2.651C33.571,29.625,33.2,29.484,32.647,29.213Z" transform="translate(1751.277 944.669)" fill="#fff"/>
  </g>
</svg>
