<svg xmlns="http://www.w3.org/2000/svg" width="30.945" height="30.945" viewBox="0 0 30.945 30.945">
  <path id="Icon_awesome-facebook-square" data-name="Icon awesome-facebook-square" d="M27.63,2.25H3.316A3.316,3.316,0,0,0,0,5.566V29.88A3.316,3.316,0,0,0,3.316,33.2H12.8V22.674H8.444V17.723H12.8V13.948c0-4.293,2.556-6.664,6.47-6.664a26.363,26.363,0,0,1,3.835.334v4.214h-2.16a2.476,2.476,0,0,0-2.792,2.675v3.215H22.9l-.76,4.952H18.149V33.2h9.48a3.316,3.316,0,0,0,3.316-3.316V5.566A3.316,3.316,0,0,0,27.63,2.25Z" transform="translate(0 -2.25)" fill="#fff"/>
</svg>
