<svg xmlns="http://www.w3.org/2000/svg" width="271.714" height="175.183" viewBox="0 0 271.714 175.183">
  <g id="Grupo_13271" data-name="Grupo 13271" transform="translate(-3264.818 -285.298)">
    <path id="Trazado_6973" data-name="Trazado 6973" d="M3521.837,349.927c-3.856-9.7-7.386-19.643-11.678-29.154-2.365-5.24-5.545-10.126-11.59-10.607-.67-1.226-1.364-2.436-2.1-3.614-3.468-5.558-7.8-9.638-14.317-10.658a18.883,18.883,0,0,0-9.427-6.193c-31.462-10.332-69.525-2.071-93.7,20.482a1.014,1.014,0,0,0-.291.976l-.055-.042c-.247-.444-.487-.89-.733-1.335a1.107,1.107,0,0,0-1.638-.451c-12.521-8.41-30.292-6.188-44.464-4.49a181.483,181.483,0,0,0-27.267,5.348c-7.125,1.992-18.418,3.927-24.006,9.1-5.383,4.978-.6,11.391,1.943,16.631q7.2,14.848,14.409,29.694c10.022,20.657,20.208,41.242,30.038,61.992a2.251,2.251,0,0,0,3.021.792c25.8-12.15,52.958-24.455,81.417-22.809-29.2.216-58.5,11.675-81.436,29.093-4.188,3.179-8.479,2.991-10.849-2.478-1-2.308-1.83-4.7-2.786-7.023q-2.5-6.063-5.294-12a292.059,292.059,0,0,0-14.284-26.608c-5-8.267-10.431-16.252-16.2-24-3.091-4.146-6.736-7.888-8.377-12.807-1.622-4.859.7-5.871,3.646-9.511,1.455-1.8,2.882-3.589,4.271-5.435,1.155-1.534-1.411-3.513-2.668-2.06-3.774,4.363-13.169,12.046-9.841,18.751a26.379,26.379,0,0,0,2.689,4.181c-14.732,6.541,4.537,31.156,9.151,38.448q20.7,32.713,41.424,65.412a1.921,1.921,0,0,0,2.978.384c28.48-26.809,62.53-42.913,100.318-51.307.984-.023,1.969-.049,2.955-.062a1.907,1.907,0,0,0,.561.084,1.824,1.824,0,0,0,2.625.615c34.941-4.819,69.039-3.641,103.2,5.886a2.116,2.116,0,0,0,2.637-2.01C3538.542,390.907,3529.889,370.172,3521.837,349.927Zm-198.98,105.719q-15.135-23.808-30.187-47.669c-5.117-8.074-10.211-16.163-15.371-24.209-4.056-6.326-14.774-20.311-5.714-26.416,2.274,2.744,4.822,5.38,6.738,7.977q5.228,7.092,9.983,14.521a282.545,282.545,0,0,1,16.07,28.5q4.316,8.814,8.04,17.9c1.638,3.98,2.829,9.12,5.63,12.544,5.042,6.163,10.236,2.229,15.376-1.6a139.975,139.975,0,0,1,27.79-16.078,145.611,145.611,0,0,1,35.966-10.2C3369.546,420.075,3343.828,436,3322.857,455.646Zm190.079-118.458c3.072,7.933,6.209,15.841,9.245,23.787,3.763,9.85,7.208,19.856,8.984,30.116-4.757-19.668-13.418-38.015-21.656-56.455-2.968-6.643-5.608-13.712-8.839-20.371C3507.808,317.631,3510.507,330.916,3512.937,337.188Zm-14.795-19.144q5.714,12.928,11.391,25.875c7.318,16.654,14.57,33.386,18.531,51.185q-3.569-.389-7.15-.754a1.8,1.8,0,0,0,.5-2.159c-9.253-20.336-18.077-40.871-25.868-61.815-3.486-9.372-6.449-18.952-10.006-28.291-.266-.7-.554-1.354-.851-1.992C3491.827,302.841,3495.222,311.438,3498.142,318.045ZM3423.756,404.4c-31.965-9.522-65.075,5.025-93.881,19.145-7.351-14.812-14.488-29.735-21.721-44.6l-11.3-23.228c-3.814-7.844-9.41-16.188-11.924-24.519a5.666,5.666,0,0,1-.384-5.45q-1.615-4.343,2.083-4.937c1.784-1.177,4.726-1.893,6.7-2.6q5.5-1.973,11.119-3.586a186.527,186.527,0,0,1,22.792-5.09c14.863-2.326,36.9-6.215,49.324,4.572a1.964,1.964,0,0,0,.693.394,731.051,731.051,0,0,0,46.681,89.874Zm-44.024-91.37a1.464,1.464,0,0,0-.065-.832.923.923,0,0,0,.777-.18c25.328-19.009,61.33-29.492,92.205-17.926,9.6,3.6,11.167,16.111,14.218,24.718q4.51,12.729,9.519,25.275c6.266,15.716,13.068,31.183,20.553,46.35a107.274,107.274,0,0,0-87.738,14.459C3412.976,374.173,3396.518,343.447,3379.732,313.026Zm137.319,80.938c-12.98-1.233-26.035-1.966-39.03-.89a109.591,109.591,0,0,0-23.4,4.3c-1.69.522-3.582,1.095-5.518,1.753A108.234,108.234,0,0,1,3517.051,393.964Zm-80.321,11.767c-.358.067-.72.123-1.079.193.852-.5,1.7-1.007,2.558-1.487A16.889,16.889,0,0,0,3436.73,405.731Zm10.375-1.666A70.832,70.832,0,0,1,3457.752,400a123.629,123.629,0,0,1,25-3.451c15.98-.7,31.942.952,47.8,2.748a1.6,1.6,0,0,0,1.578-.839,72.8,72.8,0,0,1,.075,12.028C3504.874,402.936,3475.429,400.345,3447.105,404.065Z" transform="translate(0)" fill="#cc4482"/>
    <path id="Trazado_6974" data-name="Trazado 6974" d="M3362.645,304.875c-10.851-5.964-24.931-4.434-36.682-2.675a147.255,147.255,0,0,0-42.769,13.094c-1.056.514-.3,2.381.811,1.924,24.552-10.118,51.512-17.439,77.69-10.095A1.236,1.236,0,0,0,3362.645,304.875Z" transform="translate(11.115 9.532)" fill="#cc4482"/>
    <path id="Trazado_6975" data-name="Trazado 6975" d="M3363.858,309.581c-12.554-2.692-27.007-1.207-39.682.091a183.374,183.374,0,0,0-38.888,8.074.8.8,0,0,0,.425,1.541,305.543,305.543,0,0,1,39.815-6.783c12.7-1.161,25.392.245,38.017-.6C3364.8,311.813,3365.233,309.876,3363.858,309.581Z" transform="translate(12.382 14.166)" fill="#cc4482"/>
    <path id="Trazado_6976" data-name="Trazado 6976" d="M3363.687,314.185c-24.123-3.949-51.775,2.866-73.8,12.409-.627.272-.178,1.346.471,1.113a196.392,196.392,0,0,1,34.81-9.166c12.8-2.1,25.381-1.619,38.245-2.314C3364.509,316.169,3364.907,314.384,3363.687,314.185Z" transform="translate(15.403 17.255)" fill="#cc4482"/>
    <path id="Trazado_6977" data-name="Trazado 6977" d="M3369.744,317.881c-12.812-2.133-26.96-.217-39.6,2.36a132.824,132.824,0,0,0-39.084,14.474c-.751.428-.092,1.484.665,1.139a173.5,173.5,0,0,1,37.915-12.713c13.381-2.681,26.254-2.159,39.752-2.645C3370.814,320.444,3371.291,318.137,3369.744,317.881Z" transform="translate(16.114 19.693)" fill="#cc4482"/>
    <path id="Trazado_6978" data-name="Trazado 6978" d="M3365.762,321.907c-24.347.259-49.636,5.68-70.536,18.568-.42.258-.144,1.041.352.834,22.722-9.48,45.37-15.9,70.184-16.08C3367.9,325.214,3367.9,321.884,3365.762,321.907Z" transform="translate(18.784 22.768)" fill="#cc4482"/>
    <path id="Trazado_6979" data-name="Trazado 6979" d="M3367.249,326.336a204.145,204.145,0,0,0-69.574,20.094c-.915.457-.114,1.773.793,1.359a213.323,213.323,0,0,1,68.781-18.664C3369.029,328.958,3369.027,326.144,3367.249,326.336Z" transform="translate(20.184 25.517)" fill="#cc4482"/>
    <path id="Trazado_6980" data-name="Trazado 6980" d="M3371.646,331.916c-24.559-2.337-51.18,5.3-71.74,18.613a.787.787,0,0,0,.793,1.359c22.7-12.1,45.388-16.688,70.946-16.777C3373.738,335.1,3373.659,332.108,3371.646,331.916Z" transform="translate(21.591 28.733)" fill="#cc4482"/>
    <path id="Trazado_6981" data-name="Trazado 6981" d="M3372.433,336.837c-23.054-2.6-48.035,5.153-67.587,16.972a.812.812,0,0,0,.819,1.4,133.406,133.406,0,0,1,32.357-12.421c11.485-2.7,22.715-2.916,34.411-3.289A1.333,1.333,0,0,0,3372.433,336.837Z" transform="translate(24.65 31.74)" fill="#cc4482"/>
    <path id="Trazado_6982" data-name="Trazado 6982" d="M3376.479,341.571a133.387,133.387,0,0,0-70.484,17.625c-.816.469-.1,1.656.729,1.249a152.918,152.918,0,0,1,69.755-15.858A1.509,1.509,0,0,0,3376.479,341.571Z" transform="translate(25.386 34.954)" fill="#cc4482"/>
    <path id="Trazado_6983" data-name="Trazado 6983" d="M3381.471,349.334c-23.635-4.224-51.2,3.21-71.939,14.361-.766.41-.093,1.468.665,1.139a155.83,155.83,0,0,1,34.751-10.714c12.207-2.172,23.86-1.536,36.121-1.821C3382.7,352.26,3383.208,349.644,3381.471,349.334Z" transform="translate(27.599 39.08)" fill="#cc4482"/>
    <path id="Trazado_6984" data-name="Trazado 6984" d="M3422.41,296.3c-26.976-5.36-55.9.753-79.655,14.073-1.284.722-.145,2.658,1.152,1.971,24.6-13.031,50.726-16.2,78.062-12.781C3423.819,299.8,3424.239,296.667,3422.41,296.3Z" transform="translate(48.122 5.64)" fill="#cc4482"/>
    <path id="Trazado_6985" data-name="Trazado 6985" d="M3420.458,300.273c-24.392-6.737-49.636,4.49-71.287,14.748-.833.394-.232,1.864.635,1.505,22.821-9.4,44.837-17.893,69.91-13.563C3421.454,303.264,3422.221,300.762,3420.458,300.273Z" transform="translate(52.214 8.043)" fill="#cc4482"/>
    <path id="Trazado_6986" data-name="Trazado 6986" d="M3423.014,303.834c-24.551-1.225-51.279,7.192-72.6,18.863-1.257.689-.151,2.517,1.114,1.906a179.447,179.447,0,0,1,34.791-12.909c12.16-3.028,24.3-3.758,36.7-4.968A1.447,1.447,0,0,0,3423.014,303.834Z" transform="translate(52.889 11.455)" fill="#cc4482"/>
    <path id="Trazado_6987" data-name="Trazado 6987" d="M3429.157,311.3c-11.526-4.47-24.172-2.718-35.948-.17a134.965,134.965,0,0,0-38.165,14.166c-.882.5-.106,1.737.782,1.336,21.4-9.657,49.117-20.876,72.59-12.643C3430.129,314.588,3430.8,311.935,3429.157,311.3Z" transform="translate(55.874 14.46)" fill="#cc4482"/>
    <path id="Trazado_6988" data-name="Trazado 6988" d="M3430.259,317.721a114.243,114.243,0,0,0-72.129,10.1c-1.106.55-.138,2.141.96,1.643a119.189,119.189,0,0,1,70.394-8.927C3431.313,320.85,3432.113,318.072,3430.259,317.721Z" transform="translate(57.731 18.942)" fill="#cc4482"/>
    <path id="Trazado_6989" data-name="Trazado 6989" d="M3429.369,321.316c-24.473-1.724-49.086,4.3-70.7,15.658-.887.465-.107,1.771.78,1.335,22.047-10.82,45.483-14.99,69.917-14.177C3431.193,324.191,3431.159,321.442,3429.369,321.316Z" transform="translate(58.128 22.219)" fill="#cc4482"/>
    <path id="Trazado_6990" data-name="Trazado 6990" d="M3430.1,328.846c-22.8-4.068-48.463.955-68.888,11.493-.714.368-.209,1.635.556,1.322a145.314,145.314,0,0,1,32.2-9.449c12.025-1.924,23.692-1.372,35.769-.65C3431.27,331.652,3431.648,329.122,3430.1,328.846Z" transform="translate(59.738 26.208)" fill="#cc4482"/>
    <path id="Trazado_6991" data-name="Trazado 6991" d="M3435.013,334.689c-23.552-3.8-49.235.947-70.862,10.531-.778.345-.219,1.7.587,1.39,22.976-8.891,45.539-10.942,69.938-9.432C3436.082,337.266,3436.434,334.917,3435.013,334.689Z" transform="translate(61.547 29.902)" fill="#cc4482"/>
    <path id="Trazado_6992" data-name="Trazado 6992" d="M3438.528,339.933c-3.218-3.406-8.148-2.431-12.507-2.268a160.476,160.476,0,0,0-19.956,2c-13.816,2.263-27.651,6.136-40.177,12.458-.761.384-.23,1.685.585,1.39,10.72-3.855,21.389-7.535,32.595-9.74a163.519,163.519,0,0,1,17.791-2.488c4.82-.405,15.681-2.584,19.5.814A1.535,1.535,0,0,0,3438.528,339.933Z" transform="translate(62.63 32.411)" fill="#cc4482"/>
  </g>
</svg>
