<svg xmlns="http://www.w3.org/2000/svg" width="136.42" height="182.538" viewBox="0 0 136.42 182.538">
  <g id="Grupo_13263" data-name="Grupo 13263" transform="translate(-3707.332 -1112.872) rotate(11)">
    <path id="Trazado_6946" data-name="Trazado 6946" d="M3989.168,521.7c-5.259-12.054-14.225-23.035-20.771-34.5-6.728-11.777-12.811-23.872-18.841-36.014a37.8,37.8,0,0,0,19.554-24.967c4.612-18.726-6-42.7-26.153-47.171a1.435,1.435,0,0,0-1.521.615c-20.225-4.236-39.812,15.354-42.742,34.462a34.845,34.845,0,0,0,17.7,36.4c-8.359,26.9-24.848,50.235-33.787,76.9-.551,1.647,1.27,3.64,2.976,2.976,6.114-2.379,18.192-9.969,24.323-5.556,2.51,1.807,4.713,6.591,6.529,9.13l6.529,9.128a2.341,2.341,0,0,0,4.322-1.17q2.6-32.058,5.1-64.123c1.69,9.927,4.028,19.769,6.239,29.573,2.454,10.881,3.512,23.982,9.022,33.809a2.129,2.129,0,0,0,3.639,0q3.332-5.393,6.663-10.782c1.492-2.413,4.253-9.437,6.665-10.783,4.994-2.789,16.952,3.549,22.153,5.2C3988.717,525.454,3989.853,523.275,3989.168,521.7Zm-100.207,2.277c9.164-24.418,24.529-46.543,29.622-72.346a36.321,36.321,0,0,0,3.545,1.37c-.005.014-.016.023-.021.038-7.66,23.026-16.888,45.373-25.478,68.047Q3892.792,522.527,3888.961,523.982Zm34.218,11.485q-3-4.2-6-8.4c-.184-.258-.372-.538-.56-.819a.887.887,0,0,0,.244-.465c4.373-22.785,9.491-46.126,11.487-69.258.105-1.218-1.83-1.452-2.117-.286-5.405,22.053-8.017,45.269-11.092,67.777-1.452-2.18-3.116-4.4-5.285-5.427-2.823-1.336-5.325-.394-8.143.621-1.066.385-2.125.784-3.188,1.177,10.652-21.3,18.607-44.057,25.674-66.749a37.6,37.6,0,0,0,4.953,1c.274.036.541.038.813.066Q3926.438,495.077,3923.179,535.467ZM3902.11,419.41c.411-19.689,19-39.662,39.346-38.054a1.47,1.47,0,0,0,.392.331c7.938,4.581,15.15,8.625,19.8,16.964a35.659,35.659,0,0,1,4.271,22.645c-2.138,15.126-13.306,27.677-28.487,29.355-.079-.182-.161-.363-.24-.546-.263-.606-1.3-.174-1.073.453l.064.177c-.665.047-1.327.107-2.007.113C3916.509,450.969,3901.732,437.528,3902.11,419.41Zm47.557,116.384c-4.114-9.391-5.247-21.324-7.552-30.983-2.751-11.536-5.368-23.212-9.153-34.458q.245-3.185.494-6.37c6.935,20.365,13.995,40.667,21.615,60.8a1.328,1.328,0,0,0,.882.823Q3952.811,530.7,3949.667,535.795Zm7.958-12.9-.25.406c-7.792-21.129-15.809-42.175-23.61-63.3q.2-2.546.4-5.091a34.73,34.73,0,0,0,3.47-.215c3.67,10.04,7.48,20.012,11.635,29.87,4.241,10.065,8.125,21.034,13.663,30.557C3960.514,516.863,3958.967,520.717,3957.625,522.892Zm13.795-7.373a21.389,21.389,0,0,0-5.316-1.333c-3.7-10.092-9.2-19.787-13.6-29.554q-6.774-15.034-13.392-30.144a35.114,35.114,0,0,0,6.824-1.717c.02.052.028.1.052.156a404.15,404.15,0,0,0,18.7,36.446c5.712,9.981,13.26,19.6,18.592,29.886C3979.335,518,3975.384,516.736,3971.42,515.519Z" transform="translate(0)" fill="#53699b"/>
    <path id="Trazado_6947" data-name="Trazado 6947" d="M3929.989,383.148a1.957,1.957,0,0,0-2.109.274c-29.44-3.347-45.33,49.947-14.422,58.265,14.749,3.969,29.682-6.919,34.115-20.74C3952.47,405.677,3944.238,389.666,3929.989,383.148Zm14.531,34.6c-3.1,13.086-17.4,24.846-31.254,20.068-12.73-4.39-15.272-20.76-11.072-31.925,4.375-11.629,13.638-17.46,24.878-20.785a1.536,1.536,0,0,0,.984,1.35C3939.909,391.895,3947.637,404.6,3944.52,417.747Z" transform="translate(11.174 3.105)" fill="#53699b"/>
    <path id="Trazado_6948" data-name="Trazado 6948" d="M3934.177,402.348q-4.165-.126-8.3.013-1.766-5.272-3.545-10.545c-.78-2.3-4.331-3.229-5.577-.728a102.78,102.78,0,0,0-5.294,12.53q-4.218.6-8.421,1.454c-3.324.682-2.655,5.091,0,6.085,1.949.732,3.875,1.51,5.783,2.318-.271,1.461-.476,2.932-.633,4.408-.148.166-.318.317-.461.485-2,2.347.61,6.55,3.524,4.568,2.456-1.667,4.8-3.34,7.146-4.964,2.873,1.467,5.719,2.993,8.511,4.642,2.245,1.325,5.445-.891,4.568-3.511q-1.288-3.845-2.568-7.692a56.308,56.308,0,0,1,6.114-2.792C3938.285,407.369,3937.958,402.464,3934.177,402.348Zm-15.328-1.631.344,1.045a4.231,4.231,0,0,0-.768,1.055l-.483.041C3918.241,402.144,3918.534,401.427,3918.849,400.716Z" transform="translate(14.426 8.344)" fill="#53699b"/>
  </g>
</svg>
