<svg xmlns="http://www.w3.org/2000/svg" width="194" height="137.874" viewBox="0 0 194 137.874">
  <g id="Grupo_13267" data-name="Grupo 13267" transform="translate(-3508.815 -458.325)">
    <path id="Trazado_6966" data-name="Trazado 6966" d="M3694.919,536.016a1.989,1.989,0,0,0-.46-2.552c-5.362-4.233-10.61-8.618-16.087-12.707,3.226-1.265,6.442-2.556,9.633-3.9.042-.018.077-.043.117-.063.257.19.511.382.771.552.987.655,1.845-.732,1.184-1.534-.316-.385-.623-.768-.934-1.151a1.579,1.579,0,0,0-.967-1.211,32.333,32.333,0,0,1-4.069-6.366c-1.528-3.306-1.877-6.645-2.8-10.1a1.353,1.353,0,0,0-2.06-.836,1.314,1.314,0,0,0-.406.038c-.111.033-.222.073-.332.106-12.669-8.629-25.662-16.812-38.532-25.136-10.443-6.752-20.639-14.921-33.781-12.35-7.2,1.411-14.042,4.886-20.779,7.693q-9.549,3.979-19.079,8.008c-14.252,6.027-28.471,12.131-42.472,18.726a.875.875,0,0,0-.5.857c-2.374,1.526-4.126,4.082-4.846,8.078-1.928,10.693,6.027,17.37,14.86,22.161a106.2,106.2,0,0,0-19.852,8.534c-1.482.815-1.643,3.368,0,4.137.187.088.376.174.564.262a20.323,20.323,0,0,1,1.133,7.145,19.132,19.132,0,0,1-4.347,10.833c0-.023-.016-.045-.019-.069a.489.489,0,0,0-.727-.418l-.793.523a1.13,1.13,0,0,0-.5,1.224c.857,4.3,5.369,6.208,8.732,8.428,5.607,3.7,11.321,7.268,17.164,10.587,11.083,6.3,22.735,11.9,34.99,15.52,7.987,2.36,20.4,6.164,29.285,3.8,9.5,4.445,22.812-3.126,31.233-6.98q20.7-9.476,41.369-19.043c6.321-2.917,12.712-5.721,18.973-8.767,4.136-2.014,8.387-4.461,10.744-8.582C3704.733,545.525,3702.15,536.917,3694.919,536.016Zm-16.5-36.34c.316,5.112,3.066,10.539,6.7,14.427-13.5,4.4-26.76,10.024-39.88,15.409-13.156,5.4-26.539,10.832-39.079,17.557a.891.891,0,0,0-.4.452.825.825,0,0,0-.9-.387c-2.714.644-4.461-6.984-4.816-8.759a13.709,13.709,0,0,1-.24-2.1,280.764,280.764,0,0,0,36.464-13.367c12.913-5.578,26.529-10.7,38.881-17.422.672-.365.216-1.516-.53-1.255-12.292,4.306-24.1,10.541-36.039,15.749-12.733,5.556-25.6,10.729-38.768,15.156a11.529,11.529,0,0,1,2.795-6.761,1.1,1.1,0,0,0,.094-.169c.37.2.737.4,1.107.6a1.608,1.608,0,0,0,2.3-.864c12.7-4.42,25.3-9.059,37.788-14.043,11.206-4.472,23.463-8.349,34.131-14.128A1.444,1.444,0,0,0,3678.42,499.676Zm-115.233-20.367c12.678-5.288,25.364-11.31,38.417-15.608,7.869-2.591,14.935-2.353,22.272,1.7,5.6,3.1,10.857,6.884,16.23,10.361,11.326,7.329,22.585,14.8,34.046,21.922-10.907,3.761-21.57,9.254-32.208,13.532-12.187,4.9-24.356,9.85-36.542,14.755-17.569-10.281-35.706-20.495-54.449-28.483-4.939-2.1-12.387-4.992-18.937-5.283C3542.438,487.987,3552.809,483.637,3563.187,479.309Zm-41.219,27.308a19.467,19.467,0,0,1-.173-2.188c11.812,6.229,23.87,11.954,36.063,17.395,12.087,5.394,24.375,11.057,37.061,14.883.775.234,1.325-.979.563-1.335-12.315-5.754-25.214-10.335-37.7-15.72-12.094-5.218-24.032-10.788-35.965-16.363.931-16.948,32.608-.683,40.559,3.259,12.953,6.423,25.473,13.607,38.172,20.491a8.24,8.24,0,0,0-1.967,2.15,1.014,1.014,0,0,0-.635-.984c-10.929-4.465-21.894-8.836-32.8-13.351q-8.629-3.568-17.234-7.2c-5.193-2.2-12.375-3.681-16.13-8.015-.3-.346-.917.12-.64.495,2.577,3.475,6.758,4.743,10.594,6.472,6.452,2.912,12.959,5.7,19.466,8.487,12.008,5.144,24.07,10.207,36.234,14.972a.79.79,0,0,0,.667-.014c-1.6,3.283-1.254,7.539-.158,11.016.03.1.07.217.1.323-25.091-8.816-48.723-19.671-72.313-31.916a.462.462,0,0,0-.466.8c22.521,13.888,47.775,24.822,72.965,32.847a.717.717,0,0,0,.415.01c.712,1.916,1.758,4.147,3.218,5.27-14.736-5.493-29.559-10.63-44.012-16.858-6.822-2.939-13.625-5.983-20.282-9.281C3530.969,518.992,3523.07,514.656,3521.968,506.617Zm15.088,19.684c.03-.014.045-.038.074-.055,2.986,1.444,5.93,2.71,8.49,3.876,17.924,8.163,36.516,15.974,55.938,19.7a.71.71,0,0,0,.718-1.14,3.081,3.081,0,0,0,3.227-.015.782.782,0,0,0,.272-.24.937.937,0,0,0,1.2.569c13.625-4.9,26.927-10.887,40.362-16.3,8.922-3.59,17.979-6.9,26.965-10.358a1.762,1.762,0,0,0,.421.576c4.3,3.92,8.818,7.6,13.293,11.32a404.2,404.2,0,0,0-38.506,15.23c-14.036,6.393-27.185,14.083-40.727,21.393-7.675,4.143-17.431-3.019-24.617-6.351l-22.744-10.541c-13.793-6.393-27.566-12.833-41.372-19.2C3525.627,531.772,3531.329,528.951,3537.057,526.3ZM3596,590.909c-4.277.342-8.849-.419-13.031-1.133a118.253,118.253,0,0,1-25.574-7.688,221.228,221.228,0,0,1-23.332-11.727c-3.7-2.088-7.354-4.25-11.01-6.413-2.208-1.3-8.609-3.983-11.148-6.8a1.25,1.25,0,0,0,.36-.21,18.145,18.145,0,0,0,4.483-6.048c9.666,5.213,19.668,9.881,29.495,14.781,9.355,4.666,18.6,10.208,28.317,14.073.728.29,1.117-.827.513-1.217-9.339-6.03-20.084-10.482-30.073-15.334-9.207-4.474-18.49-9.02-27.985-12.866a22.129,22.129,0,0,0,1.417-4.438c10.394,5.651,22.131,9.346,32.865,14.374,11.185,5.239,21.952,11.2,32.947,16.8a1.064,1.064,0,0,0,1.074-1.836c-10.9-6.475-22.551-11.9-34.092-17.128-10.374-4.7-21.489-10.46-32.634-13.047a17.707,17.707,0,0,0,.067-5.669c14.157,6.6,28.348,13.129,42.517,19.7L3585,570.142c3.963,1.839,8.877,5.005,13.722,6.507a1.547,1.547,0,0,0,.137.419c.87,1.6,2.335,3.069,2.992,4.772C3604.4,588.442,3600.949,590.512,3596,590.909Zm96.939-37.184c-3.265,2.132-6.986,3.595-10.516,5.222q-14.148,6.521-28.3,13.046c-9.425,4.358-18.867,8.684-28.273,13.085A125.941,125.941,0,0,1,3612.081,591a46.631,46.631,0,0,1-8.44,1.71c4.815-3.732,4.063-10.629.331-15.242.268-.008.537-.01.8-.036,6.285-.629,12.607-6.106,17.94-9.07q10.858-6.033,22.067-11.4a428.989,428.989,0,0,1,48.031-19.331,1.729,1.729,0,0,0,1.311,2C3702.906,541.444,3697.185,550.952,3692.94,553.725Z" fill="#fff"/>
    <path id="Trazado_6967" data-name="Trazado 6967" d="M3616.609,488.79c-4.53-4.254-10.623-7.126-15.878-10.434-5.834-3.672-11.543-7.583-17.536-10.993-2.8-1.593-4.9,2.371-2.46,4.21,5.511,4.152,11.437,7.769,17.26,11.462,5.252,3.332,10.537,7.457,16.41,9.541C3616.56,493.342,3618.208,490.291,3616.609,488.79Z" transform="translate(26.464 3.238)" fill="#fff"/>
    <path id="Trazado_6968" data-name="Trazado 6968" d="M3609.708,494.535c-3.505-4.876-9.943-7.592-14.965-10.752-6.237-3.926-12.469-7.82-18.888-11.446-2.545-1.438-4.563,2.216-2.254,3.857,5.7,4.052,11.549,7.851,17.435,11.629,5.049,3.239,10.647,8.338,16.574,9.442C3609.03,497.53,3610.744,495.976,3609.708,494.535Z" transform="translate(23.823 5.112)" fill="#fff"/>
    <path id="Trazado_6969" data-name="Trazado 6969" d="M3649.552,494.074c-24.562,10.134-48.389,22.587-72.53,33.711-.494.228-.063.928.423.722,24.324-10.328,49.472-20.391,72.678-33.079C3650.84,495.037,3650.342,493.749,3649.552,494.074Z" transform="translate(25.397 13.335)" fill="#fff"/>
    <path id="Trazado_6970" data-name="Trazado 6970" d="M3584.305,557.558c-12.861-4.2-25.927-7.343-38.207-13.2-5.423-2.584-10.574-5.755-16.147-8.013-5.644-2.287-11.45-3.743-16.554-7.2-.4-.271-.893.359-.519.676,4.049,3.441,8.764,4.949,13.643,6.846,6.861,2.667,12.96,6.7,19.587,9.843a184.376,184.376,0,0,0,37.752,12.657A.838.838,0,0,0,3584.305,557.558Z" transform="translate(1.468 26.433)" fill="#fff"/>
    <path id="Trazado_6971" data-name="Trazado 6971" d="M3658.186,524.278c-.085-.206-.169-.412-.254-.617a2.919,2.919,0,0,0-2.64-2.011c-3.056-.3-5.853,2.033-8.429,3.394q-6.466,3.416-13.1,6.509c-8.831,4.111-18.023,7.332-26.858,11.4-2.4,1.107-.67,4.772,1.754,4.161,8.2-2.064,16.063-5.54,23.773-8.968q6.167-2.743,12.193-5.794c2.04-1.027,6.091-4.031,8.948-4.961a1.827,1.827,0,0,0,.211.151l.371.2a2.473,2.473,0,0,0,2.953-.38l.386-.479A2.691,2.691,0,0,0,3658.186,524.278Z" transform="translate(36.213 23.645)" fill="#fff"/>
    <path id="Trazado_6972" data-name="Trazado 6972" d="M3594.314,543.821a2.384,2.384,0,0,0-2.411-.637,15.419,15.419,0,0,0-6.733,5.195c-1.495,2.007,1.828,4.566,3.473,2.681a10.186,10.186,0,0,1,4.577-3.1,2.546,2.546,0,0,0,1.819-2.389A2.613,2.613,0,0,0,3594.314,543.821Z" transform="translate(28.382 31.658)" fill="#fff"/>
  </g>
</svg>
