<svg xmlns="http://www.w3.org/2000/svg" width="151.515" height="138.672" viewBox="0 0 151.515 138.672">
  <g id="Grupo_13265" data-name="Grupo 13265" transform="translate(-3589.121 -354.664)">
    <path id="Trazado_6951" data-name="Trazado 6951" d="M3732.964,423.573a27.523,27.523,0,0,0-17.709-9.358c-10.3-.956-20.852,6.9-30.812,2.667-5.313-6.555-3.975-17.261-4.4-25.3a41.691,41.691,0,0,0-6.51-20.852,34.363,34.363,0,0,0-34.85-15.6c-29.94,4.771-50.609,35.64-49.518,64.837,1.171,31.381,23.994,58.529,53.183,68.467,28.668,9.763,70.48,5.877,89.952-20.087C3742.114,455.255,3744.392,436.414,3732.964,423.573Zm-.833,37.178c-14.858,28.162-57.582,32.674-84.917,24.7-28.272-8.25-51.4-33.191-53.581-63.213-2.053-28.27,18.139-60.415,48.191-63.094,19.75-1.759,33.249,15.348,33.906,33.8.324,9.11-.032,19.3,5.772,25.722a1.486,1.486,0,0,0,.974,1.442c.334.154.667.253,1,.384a18.479,18.479,0,0,0,5.307,2.9c1.007.357,1.8-.738,1.669-1.614,9.1.028,17.968-5.3,27.325-2.906C3736.473,423.665,3740.122,445.6,3732.13,460.751Z" transform="translate(0 0)" fill="#cc4482"/>
    <path id="Trazado_6952" data-name="Trazado 6952" d="M3677.005,406.76c-.02-7.9-7.645-12.407-14.791-12.476a1.381,1.381,0,0,0-1.049,2.184,8.924,8.924,0,0,0-5.2,4.185c-3.191,5.778,1.333,12.7,6.924,14.76C3669.307,417.778,3677.021,414.134,3677.005,406.76Zm-12.32,5.686c-3.792-1.023-7.294-5.024-6.445-9.128.747-3.607,4.911-5.829,8.37-5.066a10.544,10.544,0,0,1,6.043,4.932C3675.467,408.786,3670.507,414.014,3664.685,412.446Z" transform="translate(50.632 30.493)" fill="#cc4482"/>
    <path id="Trazado_6953" data-name="Trazado 6953" d="M3636.759,375.491a24.125,24.125,0,0,0-2.081-1.851c2.564-1.573.32-5.812-2.637-5.178-.034.007-.064.018-.1.025-1.239-3.874-3.923-7.507-8.027-7.647-4.6-.156-5.057,3.1-4.353,6.631a37.265,37.265,0,0,1-4.325-.936c-2.9-.832-5,3.677-2.127,5.024l.649.308c-2.231,1.869-3.322,4.551-1.313,7.885a5.549,5.549,0,0,0,2.157,2.161c.226,1.9,2.331,3.592,4.176,2.269a47.235,47.235,0,0,0,4.78-3.975,16.881,16.881,0,0,0,2.807,5.895c1.877,2.538,6.172,1.228,5.342-2.2-.447-1.849-.964-3.672-1.509-5.486q1.484.828,2.969,1.655C3636.028,381.66,3639.164,377.891,3636.759,375.491Z" transform="translate(17.142 4.749)" fill="#cc4482"/>
    <path id="Trazado_6954" data-name="Trazado 6954" d="M3615.289,383.107a14.584,14.584,0,0,0-6.733-1.124,17.1,17.1,0,0,0-5.284-4.553,3.028,3.028,0,0,0-4.114,1.053,10.692,10.692,0,0,0-.326,8.56,11.221,11.221,0,0,0-1.483,3.644c-.871,4.068-1.051,9.754,4.043,10.906,3.614.814,6.1-1.136,7.679-3.842a15.268,15.268,0,0,0,8.208-3.518C3621.373,390.831,3619.856,385.191,3615.289,383.107Zm-3.869,7.22a1.947,1.947,0,0,0,.229-1.271c-.02-.119-.057-.23-.08-.347.626.143,1.13.4,1.039.9C3612.578,389.771,3611.965,390.079,3611.42,390.327Z" transform="translate(5.967 17.223)" fill="#cc4482"/>
    <path id="Trazado_6955" data-name="Trazado 6955" d="M3624.013,400.362a10.891,10.891,0,0,0-6.586,1.046,5.5,5.5,0,0,0-4.5-3.422c-4.916-.786-7.349,4.454-6.36,8.615.016.069.039.131.057.2-1.535.046-3.085.168-4.658.354-1.716.2-3.8,1.837-2.959,3.874,2.063,5.015,6.238,6.333,10.707,5.861a20.729,20.729,0,0,0-.391,5.068,3.213,3.213,0,0,0,4.006,3.062,10.269,10.269,0,0,0,6.737-6.466,8.833,8.833,0,0,0,9.618-3.063C3633.734,410.079,3630.611,401.726,3624.013,400.362Zm-1.3,12.025a6.751,6.751,0,0,0,.489-.538,8.3,8.3,0,0,0,1.849-2.653A2.513,2.513,0,0,1,3622.709,412.387Z" transform="translate(7.459 33.28)" fill="#cc4482"/>
    <path id="Trazado_6956" data-name="Trazado 6956" d="M3642.2,426.79c3.709-1.724,6.712-4.638,6.33-9.264-.479-5.838-7.1-8.586-12.105-6.44a12.645,12.645,0,0,0-6.451,6.636,6.84,6.84,0,0,0-1.623.142c-3.983.878-7.362,5.236-8.5,8.988-1.313,4.341,2.039,7.592,6.335,7.066a10.148,10.148,0,0,0,4.295-1.61c1.36,3.134,3.932,5.325,8.227,4.383,2.615-.573,5.061-2.525,5.353-5.321A4.92,4.92,0,0,0,3642.2,426.79Z" transform="translate(23.431 42.865)" fill="#cc4482"/>
    <path id="Trazado_6957" data-name="Trazado 6957" d="M3665.7,414.966a10.99,10.99,0,0,0-4.808.418,7.754,7.754,0,0,0-2.368-3.635,6.372,6.372,0,0,0-9.448,1.244,8.412,8.412,0,0,0-.809,7.045,8.6,8.6,0,0,0-3.214,4.123,2.984,2.984,0,0,0,2.081,3.642,10.467,10.467,0,0,0,4.582-.027,9.977,9.977,0,0,0-.816,3.481,5.715,5.715,0,0,0,5.377,5.289,7.206,7.206,0,0,0,6.672-4.594,7.611,7.611,0,0,0,.45-3.329,7.529,7.529,0,0,0,7.579-3.332C3674.083,420.656,3670.7,415.756,3665.7,414.966Z" transform="translate(42.956 42.739)" fill="#cc4482"/>
  </g>
</svg>
