<svg xmlns="http://www.w3.org/2000/svg" width="213.971" height="195.834" viewBox="0 0 213.971 195.834">
  <g id="Grupo_13266" data-name="Grupo 13266" transform="translate(-3589.121 -354.664)">
    <path id="Trazado_6959" data-name="Trazado 6959" d="M3792.257,451.978c-6.415-7.2-15.316-12.315-25.008-13.215-14.55-1.35-29.447,9.739-43.514,3.766-7.5-9.257-5.613-24.376-6.218-35.734a58.878,58.878,0,0,0-9.194-29.447c-10.939-16.761-29.4-25.188-49.215-22.029-42.282,6.738-71.471,50.332-69.93,91.564,1.654,44.316,33.885,82.655,75.105,96.69,40.485,13.787,99.533,8.3,127.031-28.367C3805.18,496.719,3808.4,470.112,3792.257,451.978Zm-1.177,52.5c-20.982,39.771-81.317,46.143-119.921,34.875-39.926-11.651-72.586-46.873-75.668-89.27-2.9-39.923,25.616-85.319,68.056-89.1,27.893-2.484,46.955,21.675,47.883,47.733.457,12.865-.046,27.25,8.151,36.324a2.1,2.1,0,0,0,1.375,2.037c.472.217.941.357,1.414.542a26.1,26.1,0,0,0,7.5,4.1c1.422.5,2.544-1.042,2.356-2.279,12.851.04,25.375-7.49,38.588-4.1C3797.213,452.108,3802.366,483.087,3791.08,504.482Z" transform="translate(0)" fill="#53699b"/>
    <path id="Trazado_6960" data-name="Trazado 6960" d="M3686.115,411.9c-.027-11.159-10.8-17.521-20.888-17.619a1.949,1.949,0,0,0-1.481,3.084,12.6,12.6,0,0,0-7.343,5.91c-4.506,8.16,1.882,17.933,9.778,20.845C3675.243,427.462,3686.137,422.316,3686.115,411.9Zm-17.4,8.029c-5.356-1.444-10.3-7.095-9.1-12.89,1.055-5.093,6.935-8.232,11.821-7.155,3.551,1.357,6.755,3.419,8.534,6.965C3683.942,414.764,3676.937,422.146,3668.716,419.932Z" transform="translate(98.62 59.394)" fill="#53699b"/>
    <path id="Trazado_6961" data-name="Trazado 6961" d="M3647.215,381.533a34.139,34.139,0,0,0-2.939-2.614c3.621-2.222.452-8.207-3.724-7.312-.048.01-.09.025-.135.035-1.75-5.471-5.54-10.6-11.336-10.8-6.5-.22-7.143,4.371-6.147,9.364a52.645,52.645,0,0,1-6.108-1.322c-4.1-1.175-7.055,5.193-3,7.095l.917.435c-3.151,2.639-4.69,6.428-1.854,11.136a7.833,7.833,0,0,0,3.046,3.051c.32,2.676,3.291,5.073,5.9,3.2a66.784,66.784,0,0,0,6.75-5.613,23.84,23.84,0,0,0,3.963,8.324c2.651,3.584,8.717,1.734,7.545-3.111-.632-2.612-1.361-5.186-2.132-7.747q2.1,1.169,4.193,2.337C3646.183,390.244,3650.611,384.921,3647.215,381.533Z" transform="translate(33.388 9.251)" fill="#53699b"/>
    <path id="Trazado_6962" data-name="Trazado 6962" d="M3622.88,385.606a20.6,20.6,0,0,0-9.509-1.587,24.158,24.158,0,0,0-7.463-6.43c-1.854-1.035-4.815-.637-5.811,1.487a15.1,15.1,0,0,0-.46,12.088,15.849,15.849,0,0,0-2.094,5.146c-1.23,5.745-1.484,13.775,5.71,15.4,5.1,1.15,8.612-1.6,10.844-5.426a21.561,21.561,0,0,0,11.591-4.968C3631.472,396.515,3629.33,388.55,3622.88,385.606Zm-5.464,10.2a2.75,2.75,0,0,0,.322-1.794c-.027-.167-.08-.325-.112-.49.885.2,1.6.57,1.467,1.267C3619.051,395.018,3618.187,395.453,3617.416,395.8Z" transform="translate(11.623 33.546)" fill="#53699b"/>
    <path id="Trazado_6963" data-name="Trazado 6963" d="M3634.4,401.374a15.382,15.382,0,0,0-9.3,1.477,7.762,7.762,0,0,0-6.36-4.833c-6.942-1.11-10.378,6.29-8.981,12.166.022.1.056.185.08.28-2.167.065-4.356.237-6.577.5-2.425.285-5.363,2.594-4.179,5.47,2.913,7.082,8.81,8.944,15.119,8.277a29.235,29.235,0,0,0-.552,7.157c.12,2.756,2.786,5.253,5.657,4.323a14.5,14.5,0,0,0,9.515-9.132,12.474,12.474,0,0,0,13.582-4.326C3648.13,415.1,3643.719,403.3,3634.4,401.374Zm-1.842,16.981a9.6,9.6,0,0,0,.689-.76,11.715,11.715,0,0,0,2.611-3.746A3.548,3.548,0,0,1,3632.561,418.355Z" transform="translate(14.527 64.824)" fill="#53699b"/>
    <path id="Trazado_6964" data-name="Trazado 6964" d="M3651.528,433.562c5.238-2.434,9.479-6.55,8.938-13.083-.677-8.245-10.03-12.125-17.1-9.094-3.549,1.522-7.646,5.261-9.108,9.372a9.664,9.664,0,0,0-2.292.2c-5.625,1.24-10.4,7.395-12,12.693-1.854,6.13,2.878,10.721,8.946,9.979a14.325,14.325,0,0,0,6.065-2.274c1.922,4.426,5.553,7.52,11.618,6.19,3.694-.81,7.147-3.566,7.56-7.515A6.95,6.95,0,0,0,3651.528,433.562Z" transform="translate(45.639 83.492)" fill="#53699b"/>
    <path id="Trazado_6965" data-name="Trazado 6965" d="M3674.266,416.933a15.524,15.524,0,0,0-6.79.59,10.946,10.946,0,0,0-3.344-5.133,9,9,0,0,0-13.342,1.757,11.876,11.876,0,0,0-1.143,9.949,12.145,12.145,0,0,0-4.539,5.823,4.215,4.215,0,0,0,2.939,5.143,14.781,14.781,0,0,0,6.471-.037c-.638,1.837-1.268,3.659-1.152,4.916a8.072,8.072,0,0,0,7.595,7.47,10.175,10.175,0,0,0,9.421-6.488,10.742,10.742,0,0,0,.636-4.7c4.061.43,7.977-.627,10.7-4.706C3686.1,424.967,3681.326,418.047,3674.266,416.933Z" transform="translate(83.669 83.248)" fill="#53699b"/>
  </g>
</svg>
