<svg width="124" height="171" viewBox="0 0 124 171" fill="none" xmlns="http://www.w3.org/2000/svg">
<g clip-path="url(#clip0_2_3)">
<path d="M113.661 30.409C113.198 29.6235 112.557 28.9574 111.79 28.4641C111.023 27.9709 110.151 27.6642 109.244 27.5686C108.337 27.473 107.42 27.5913 106.567 27.9138C105.714 28.2364 104.949 28.7543 104.332 29.426C104.301 29.455 104.274 29.487 104.244 29.519C103.274 30.5596 102.668 31.8864 102.515 33.3007C102.363 34.7149 102.672 36.1406 103.398 37.364C108.921 46.6493 111.529 57.3793 110.884 68.164C109.984 81.969 103.919 94.9289 93.896 104.464C85.8759 112.232 80.7206 122.486 79.269 133.557H42.452C40.9926 121.866 35.6881 110.992 27.373 102.645C22.8546 98.2772 19.2316 93.07 16.707 87.315C1.62798 50.68 26.378 14.533 59.215 12.925C67.6191 12.5109 75.9808 14.354 83.432 18.263C84.5466 18.8276 85.8159 19.0103 87.0445 18.783C88.2732 18.5557 89.3931 17.931 90.232 17.005L90.32 16.912C91.0057 16.1733 91.5131 15.2873 91.8033 14.322C92.0935 13.3568 92.1587 12.3379 91.994 11.3435C91.8293 10.3491 91.439 9.40561 90.8531 8.58545C90.2672 7.76529 89.5013 7.09021 88.614 6.61201C79.3953 1.78103 69.045 -0.4758 58.652 0.0790129C23.429 1.80501 -4.32802 35.384 0.560976 73.809C2.53537 88.3353 9.11792 101.845 19.341 112.352C26.5566 119.74 30.6161 129.645 30.661 139.972C30.661 143.53 33.155 146.434 36.523 146.434H81.244C88.244 146.434 91.044 143.68 91.025 140.206C91.0073 135.231 92.0132 130.307 93.9801 125.737C95.9469 121.168 98.8327 117.052 102.458 113.646C113.43 103.063 120.507 89.0844 122.54 73.9761C124.573 58.8678 121.443 43.5158 113.658 30.409H113.661Z" fill="#2A344F"/>
<path d="M78.181 149.109H41.881C40.661 149.109 39.491 149.594 38.6283 150.456C37.7656 151.319 37.281 152.489 37.281 153.709C37.281 154.929 37.7656 156.099 38.6283 156.962C39.491 157.824 40.661 158.309 41.881 158.309H78.181C79.401 158.309 80.571 157.824 81.4337 156.962C82.2964 156.099 82.781 154.929 82.781 153.709C82.781 152.489 82.2964 151.319 81.4337 150.456C80.571 149.594 79.401 149.109 78.181 149.109Z" fill="#2A344F"/>
<path d="M71.619 161.456H48.709C47.489 161.456 46.319 161.941 45.4563 162.803C44.5937 163.666 44.109 164.836 44.109 166.056C44.109 167.276 44.5937 168.446 45.4563 169.309C46.319 170.171 47.489 170.656 48.709 170.656H71.617C72.837 170.656 74.007 170.171 74.8697 169.309C75.7324 168.446 76.217 167.276 76.217 166.056C76.217 164.836 75.7324 163.666 74.8697 162.803C74.007 161.941 72.837 161.456 71.617 161.456H71.619Z" fill="#2A344F"/>
</g>
<defs>
<clipPath id="clip0_2_3">
<rect width="123.145" height="170.657" fill="white"/>
</clipPath>
</defs>
</svg>
