<svg xmlns="http://www.w3.org/2000/svg" width="79.056" height="76.918" viewBox="0 0 79.056 76.918">
  <path id="Trazado_7060" data-name="Trazado 7060" d="M3476.739,479.012c-3.642-3.871-9.081-2.871-13.515-.93a25.233,25.233,0,0,0,.441-4.865.732.732,0,0,0-.544-.689,1.019,1.019,0,0,0-.365-.572,1.114,1.114,0,0,0-.058-.125c-3.243-5.49-9.662-7.108-15.384-8.842-7.131-2.161-14.305-3.906-21.794-2.988-.688.085-.557,1.232.134,1.21.053,0,.106,0,.16,0a33.707,33.707,0,0,0-3.682,7.591c-1.915-4.8-6.875-8.607-12.243-7.867-6.695.923-9.842,7.909-9.585,14.01.5,11.872,11.226,23.1,23.386,22.751q.278.89.551,1.78a87.831,87.831,0,0,1,2.734,13.4.721.721,0,0,0,.172.376.349.349,0,0,0-.047.011c-1.708.75-7.479,2.445-8.508,5.06a.991.991,0,0,0-.594.221c-2.083,1.585-4.646,8.22-3.968,10.561.412,1.42,3.127,3.18,4.357,3.957a21.706,21.706,0,0,0,6.249,2.6,31.667,31.667,0,0,0,6.931.909c1.7.043,4.157.347,5.725-.374,3.44-1.582,3.147-8.5,3.075-11.584a.976.976,0,0,0-.746-.952c.788-2.65-3.449-6.974-5.06-8.7.022-.018.048-.03.07-.048a.6.6,0,0,0,.679-.223c1.428-2.082,2.552-4.019,4.544-5.673,1.746-1.448,3.7-2.625,5.537-3.947.465-.334.921-.678,1.371-1.028,10.72,3.28,24.351-1.149,30.381-10.777C3479.839,488.955,3480.456,482.962,3476.739,479.012Zm-15.418,5.522c3.674-.745,12.243-1.519,10.125,5.209a15.717,15.717,0,0,1-5.169,6.88,21.382,21.382,0,0,1-16.111,4.46,44.664,44.664,0,0,0,4.193-4.59A48.6,48.6,0,0,0,3461.321,484.533Zm-16.347-20.266c5.077,1.531,11.367,2.891,14.9,7.13-5.536-.731-11.063-1.139-16.5-2.654a45.944,45.944,0,0,1-15.138-7.536A64.084,64.084,0,0,1,3444.974,464.267Zm-24.284,21.85a51.942,51.942,0,0,0,1.368,6.125c-5.12-1.955-9.463-4.882-12.059-10.022-1.5-2.974-3.582-8.924.231-11.09,4.257-2.421,7.89,2.084,10.261,5.029A37.777,37.777,0,0,0,3420.69,486.117Zm-16.7-5.068c-1.89-4.99-2.3-11.7,1.864-15.7,5.2-5,12.091-1.024,14.677,4.482a.893.893,0,0,0,1.149.412,35.129,35.129,0,0,0-.85,3.646c-2.182-3.024-5.342-5.6-9.264-5.064-4.108.559-5.659,3.953-5.286,7.783.791,8.116,7.873,16.333,16.214,17.181q.344,1.16.7,2.317C3414.731,494.456,3407.144,489.378,3403.988,481.049Zm34.354,44.045a28.13,28.13,0,0,1-.456,5.667c-.5,2.545-1.215,3.468-4.029,3.727a26.643,26.643,0,0,1-8.631-.8c-2.7-.678-6.207-1.933-8.083-4.16-1.3-1.539-.807-2.489-.215-4.341a25.462,25.462,0,0,1,1.909-4.764c1.72,2.975,7.55,4.518,10.528,5C3431.238,525.727,3435.975,526.371,3438.342,525.093Zm-.971-2.739c-.389,2.254-7.08,1.122-8.563.8a20.152,20.152,0,0,1-3.806-1.239c-1.655-.718-2.993-.91-2.867-2.806.122-1.835,3.479-3.646,5.184-4.842a2.985,2.985,0,0,0,.967.908,5.7,5.7,0,0,0,4.466.658,1.054,1.054,0,0,0,.181.286C3433.863,517.159,3437.629,520.856,3437.371,522.354Zm2.96-16.136c-2.428,1.78-5.328,4.092-5.957,7.182a.849.849,0,0,0-.7.035,5.224,5.224,0,0,1-3.157.735,4.98,4.98,0,0,1-1.865-.717.361.361,0,0,0-.094-.339c-.011-.013-.025-.02-.037-.032a.829.829,0,0,0,.154-.4c.668-7.8-3.5-15.665-5.317-23.085-2.31-9.436-.707-18.9,3.531-27.521,8.631,8.944,23.327,11.114,35.191,11.508-1.069,4.313-1.823,8.489-3.7,12.6a44.1,44.1,0,0,1-8.2,12.136C3447.219,501.418,3443.768,503.7,3440.331,506.219Zm30.054-8.648c-6.5,5.028-14.555,6.469-22.509,5.57.524-.436,1.032-.887,1.534-1.345a.386.386,0,0,0,.2.135,20.347,20.347,0,0,0,21.762-8.29c1.921-2.831,3.226-6.434.759-9.351-2.546-3.01-6.4-2.867-9.947-2.19.172-.538.346-1.077.491-1.618,5.229-2.105,12.605-4.08,14.511,3.357C3478.6,489.345,3474.459,494.419,3470.385,497.571Z" transform="translate(-3400.291 -459.751)" fill="#fff"/>
</svg>
