<svg xmlns="http://www.w3.org/2000/svg" xmlns:xlink="http://www.w3.org/1999/xlink" width="306" height="305" viewBox="0 0 306 305">
  <defs>
    <filter id="Elipse_33" x="0" y="0" width="306" height="305" filterUnits="userSpaceOnUse">
      <feOffset dx="1" dy="4" input="SourceAlpha"/>
      <feGaussianBlur stdDeviation="7.5" result="blur"/>
      <feFlood flood-opacity="0.161"/>
      <feComposite operator="in" in2="blur"/>
      <feComposite in="SourceGraphic"/>
    </filter>
  </defs>
  <g id="Grupo_13346" data-name="Grupo 13346" transform="translate(-297.5 -155.5)">
    <g transform="matrix(1, 0, 0, 1, 297.5, 155.5)" filter="url(#Elipse_33)">
      <ellipse id="Elipse_33-2" data-name="Elipse 33" cx="130.5" cy="130" rx="130.5" ry="130" transform="translate(21.5 18.5)" fill="#fff"/>
    </g>
    <g id="Grupo_13326" data-name="Grupo 13326" transform="translate(36 85.142)">
      <g id="Grupo_13325" data-name="Grupo 13325" transform="translate(331 141)">
        <path id="Trazado_7133" data-name="Trazado 7133" d="M5940.955,209.387c1.842.419,3.7.791,5.524,1.263a38.42,38.42,0,0,1,28.574,36.071c.028,1.284.33,1.5,1.59,1.395,21.557-1.744,40.211,11,46.248,31.532a43.075,43.075,0,0,1,1.438,16.406c-.1,1.064.092,1.315,1.165,1.346a38.348,38.348,0,0,1,36.719,30.4c4.68,21-9.65,42.346-30.844,45.943a38.511,38.511,0,0,1-44.878-32.38,31.6,31.6,0,0,1-.368-4.649c-.007-1-.239-1.2-1.261-1.106-9.395.892-18.338-.73-26.415-5.681-15.733-9.644-22.811-23.858-21.618-42.229.053-.812.226-1.307-.982-1.358-19.385-.822-34.173-13.9-37.379-32.971-.065-.383.168-.889-.366-1.128V243.22c.509-.165.307-.619.37-.95,3.092-16.376,12.56-27,28.577-31.74,1.612-.477,3.338-.423,4.886-1.143Zm-8.075,71.153a19.379,19.379,0,0,0,4.147.366,1.116,1.116,0,0,0,1.28-.9,42.829,42.829,0,0,1,10.324-18.25c.576-.605.479-.979-.24-1.319a10.894,10.894,0,0,0-4.562-1.348,123.939,123.939,0,0,0-12.849-.136,13.677,13.677,0,0,0-13.613,14.869,1.4,1.4,0,0,0,.7,1.314c1.3.741,2.585,1.509,3.877,2.267.643.378.956.284.933-.55-.038-1.339-.035-2.68,0-4.019a2.651,2.651,0,0,1,2.718-2.911,2.723,2.723,0,0,1,2.757,2.913c.044,1.07.01,2.143.01,3.215C5928.366,280.333,5928.488,280.454,5932.88,280.54Zm115.006,72.446c.416,1.513.833,3.026,1.306,4.745a31.958,31.958,0,0,0,8.327-20.642c.313-11.24-4.056-20.447-12.908-27.414a25.045,25.045,0,0,0-10.545-5.216,26.9,26.9,0,0,0-10.073-1.6.922.922,0,0,0-1.061.72c-.487,1.635-1.008,3.26-1.589,5.126a17.336,17.336,0,0,1,8.214.336,18.694,18.694,0,0,1,7.345,3.84,17.762,17.762,0,0,1,4.969,6.437c3.856,8.893,1.833,16.575-5.028,23.276a21.014,21.014,0,0,1,7.35,4.972A34.385,34.385,0,0,1,6047.886,352.985Zm-21.551-11.855a4.306,4.306,0,0,0,.8,0,13.76,13.76,0,0,0,10.568-17.539c-1.622-5.247-6.538-9.343-11.36-9.465-4.064-.478-7.759-.04-10.343,3.721a56.189,56.189,0,0,1-3.587,4.326,4.581,4.581,0,0,0-.963,1.447C6008.2,332.829,6016.707,342.851,6026.335,341.13Zm-87.959-114.983a8.262,8.262,0,0,0-4.287-.011,13.791,13.791,0,0,0-11.105,15.482,13.617,13.617,0,0,0,15.385,11.537c7.992-.451,13.8-9.317,11.4-17.39C5948.178,230.443,5943.256,226.285,5938.376,226.147ZM6037.992,359.2c.589,1.835.179,3.726.315,5.586.027.365-.148,1.072.583.742a14.089,14.089,0,0,0,4.63-2.841c.757-.8.274-2.163.216-3.262A13.564,13.564,0,0,0,6031.5,347.02c-4.393-.254-8.791-.2-13.181-.065a13.715,13.715,0,0,0-12.95,15.026c.026.253.039.608.2.732a23.2,23.2,0,0,0,5.284,3.065c0-1.8-.018-3.3,0-4.8.029-1.935,1.059-3.077,2.733-3.075,1.647,0,2.718,1.176,2.747,3.088.03,1.93.026,3.861,0,5.791-.01.676.131,1.027.9,1.2a31.694,31.694,0,0,0,14.647,0c.732-.175.953-.474.939-1.182-.036-1.822.019-3.646-.021-5.469-.032-1.463.346-2.705,1.807-3.262A2.781,2.781,0,0,1,6037.992,359.2ZM5946.4,216.548a27.56,27.56,0,0,0-14.739-1.277c-12.435,2.188-21.343,9.09-25.84,20.924-4.473,11.773-2.4,22.756,5.379,32.652.208.266.347.692.917.63a19.525,19.525,0,0,1,4.138-9.056,20.2,20.2,0,0,1,8.151-5.855c-.52-.5-.835-.784-1.137-1.086a18.863,18.863,0,0,1-5.539-17.491,19.219,19.219,0,0,1,35.734-5.631,19.379,19.379,0,0,1-2.374,21.934c-.683.782-2.216,1.493-1.887,2.306.312.769,1.859,1.039,2.864,1.524a.476.476,0,0,0,.159.015c.513.5.989,1.269,1.833.725,1.994-1.287,3.939-2.647,5.9-3.978l4.039-1.762a38.689,38.689,0,0,1,4.112-1.359,1.622,1.622,0,0,0,1.512-1.955,32.862,32.862,0,0,0-12-25.317A26.256,26.256,0,0,0,5946.4,216.548Zm45.459,38.628a35.642,35.642,0,0,0-17.619-1.253c-24.919,4.007-39.371,31.282-28.534,54.084,6.184,13.009,16.715,20.4,31.009,22.12a32.166,32.166,0,0,0,15.813-1.8c.664-.194,1.347-.34,1.99-.588a38.438,38.438,0,0,0,24.5-36.468,37.734,37.734,0,0,0-9.774-25.038A35.786,35.786,0,0,0,5991.859,255.175Zm13.479,73.066a43.592,43.592,0,0,1-12.861,5.9c-.929.241-.917.853-.91,1.577a32.922,32.922,0,0,0,7.754,21.29c.189.228.34.581.774.429,1.419-7.069,5.5-11.995,12.292-14.9A19.84,19.84,0,0,1,6005.338,328.242Z" transform="translate(-5898.1 -209.387)" fill="#020302"/>
        <path id="Trazado_7134" data-name="Trazado 7134" d="M5971.726,462.76c-.963-.91-1.957-1.791-2.882-2.739-1.327-1.359-1.38-2.962-.2-4.12a2.69,2.69,0,0,1,4.009.181q3.965,3.891,7.852,7.861a2.767,2.767,0,0,1,.019,4.255q-3.945,4.025-7.974,7.966a2.711,2.711,0,0,1-4.014.087,2.755,2.755,0,0,1,.188-4.01c1.024-1.092,2.073-2.16,3.108-3.241.029-.031.021-.1.061-.3-2.882-.227-5.74-.546-8.578-1.058a69.827,69.827,0,0,1-34.541-16.737,70.634,70.634,0,0,1-22.957-40.135,68.8,68.8,0,0,1-1.261-12.794c-.018-2.056.943-3.309,2.613-3.372,1.719-.064,2.865,1.158,2.884,3.314a58.554,58.554,0,0,0,2.531,17.451c8.153,25.449,25.242,41.149,51.449,46.781A25.448,25.448,0,0,0,5971.726,462.76Z" transform="translate(-5901.775 -314.843)" fill="#030303"/>
        <path id="Trazado_7135" data-name="Trazado 7135" d="M6105.823,230.109c1.008.949,2.059,1.855,3.011,2.856a2.707,2.707,0,0,1,.046,4.008,2.654,2.654,0,0,1-3.888-.126q-4.089-4-8.086-8.084a2.694,2.694,0,0,1,.035-4.019q3.993-4.091,8.09-8.079a2.731,2.731,0,1,1,3.8,3.916c-1.086,1.1-2.292,2.079-3.446,3.112l.277.379c2.27.277,4.545.505,6.806.84a71.365,71.365,0,0,1,60.5,69.158c.044,2.8-.726,4.108-2.586,4.18-1.9.074-2.874-1.261-2.921-4.118A61.108,61.108,0,0,0,6161.7,268.6c-10.517-22.091-27.917-34.993-52.18-38.529-1.16-.169-2.333-.251-3.5-.374Z" transform="translate(-6010.794 -213.035)" fill="#030303"/>
        <path id="Trazado_7136" data-name="Trazado 7136" d="M6050.657,386.487a32.164,32.164,0,0,1-15.813,1.8c-14.294-1.716-24.825-9.111-31.009-22.12-10.837-22.8,3.615-50.077,28.534-54.084a35.644,35.644,0,0,1,17.619,1.253c.024.537.474.666.841.87a40.171,40.171,0,0,1,16.09,16.557,41.193,41.193,0,0,1-15.363,54.733C6051.16,385.74,6050.617,385.848,6050.657,386.487Zm-20.3-22.7a3.752,3.752,0,0,0,2.615-1.38q10.411-10.435,20.84-20.853a7.071,7.071,0,0,0,.866-.951,2.665,2.665,0,0,0-.389-3.517,2.606,2.606,0,0,0-3.4-.268,7.005,7.005,0,0,0-1.186,1.082q-9.117,9.109-18.212,18.241c-.79.8-1.295.875-2.036,0a27.724,27.724,0,0,0-2.385-2.4,2.838,2.838,0,0,0-4.044-.084,2.733,2.733,0,0,0,.231,4.009c1.684,1.732,3.421,3.414,5.115,5.137A3.281,3.281,0,0,0,6030.361,363.789Z" transform="translate(-5956.229 -267.545)" fill="#9d325e"/>
        <path id="Trazado_7137" data-name="Trazado 7137" d="M5959.36,263.306a.483.483,0,0,1-.159-.015c-1-.486-2.553-.755-2.863-1.524-.329-.813,1.2-1.523,1.887-2.306a19.252,19.252,0,0,0-17.884-31.617,19.154,19.154,0,0,0-15.478,15.314,18.862,18.862,0,0,0,5.539,17.491c.3.3.617.59,1.138,1.086a20.2,20.2,0,0,0-8.152,5.855,19.536,19.536,0,0,0-4.139,9.056c-.57.061-.708-.364-.917-.63-7.778-9.9-9.853-20.88-5.379-32.652,4.5-11.833,13.405-18.736,25.841-20.924a27.563,27.563,0,0,1,14.739,1.277c.155.965,1.075,1.128,1.706,1.545a34.452,34.452,0,0,1,10.446,10.706,36.056,36.056,0,0,1,5.45,22.323l-4.038,1.762A15.323,15.323,0,0,0,5959.36,263.306Z" transform="translate(-5905.232 -216.556)" fill="#2a344f"/>
        <path id="Trazado_7138" data-name="Trazado 7138" d="M6179.73,540.951a2.781,2.781,0,0,0-3.386-1.13c-1.46.556-1.838,1.8-1.807,3.262.041,1.822-.015,3.646.021,5.469.014.708-.207,1.007-.939,1.182a31.693,31.693,0,0,1-14.647,0c-.77-.177-.911-.527-.9-1.2q.042-2.895,0-5.791c-.029-1.912-1.1-3.087-2.747-3.088-1.675,0-2.7,1.14-2.733,3.076-.022,1.5,0,3,0,4.8a23.192,23.192,0,0,1-5.284-3.065c-.162-.124-.174-.478-.2-.732a13.715,13.715,0,0,1,12.95-15.026c4.39-.139,8.789-.189,13.181.065a10.883,10.883,0,0,0,1.089,1.175,14.356,14.356,0,0,1,4.354,5.841C6179.341,537.423,6180.183,539.067,6179.73,540.951Z" transform="translate(-6039.838 -391.135)" fill="#fd9701"/>
        <path id="Trazado_7139" data-name="Trazado 7139" d="M5971.068,274.924a13.617,13.617,0,0,1-15.385-11.537,13.792,13.792,0,0,1,11.105-15.482,8.262,8.262,0,0,1,4.287.011c.673,1.418,2.081,2.175,3.01,3.4a16.506,16.506,0,0,1-.3,20.577C5972.922,272.963,5971.52,273.522,5971.068,274.924Z" transform="translate(-5930.8 -231.155)" fill="#fddeb1"/>
        <path id="Trazado_7140" data-name="Trazado 7140" d="M6175.274,479.412c-9.628,1.721-18.138-8.3-14.889-17.51a4.582,4.582,0,0,1,.963-1.447,56.176,56.176,0,0,0,3.586-4.326c2.584-3.761,6.279-4.2,10.343-3.721-.01.536.475.663.779.936a16.645,16.645,0,0,1,2.14,22.8C6177.3,477.33,6175.978,478.087,6175.274,479.412Z" transform="translate(-6047.04 -347.669)" fill="#fddeb1"/>
        <path id="Trazado_7141" data-name="Trazado 7141" d="M6210.842,476.575a34.449,34.449,0,0,0-3.693-5.422,21.018,21.018,0,0,0-7.351-4.972c6.861-6.7,8.885-14.383,5.028-23.276a17.757,17.757,0,0,0-4.97-6.437,18.693,18.693,0,0,0-7.345-3.84,17.336,17.336,0,0,0-8.214-.336c.581-1.866,1.1-3.491,1.59-5.126a.921.921,0,0,1,1.061-.72,26.9,26.9,0,0,1,10.073,1.6c-.007.469.368.605.685.8a34.813,34.813,0,0,1,8.882,7.562c7.282,8.994,9.928,19.1,7.625,30.489A57.609,57.609,0,0,1,6210.842,476.575Z" transform="translate(-6061.056 -332.977)" fill="#2a344f"/>
        <path id="Trazado_7142" data-name="Trazado 7142" d="M6116.5,388.872c-.041-.639.5-.746.9-.993a41.418,41.418,0,0,0,15.363-54.733,40.175,40.175,0,0,0-16.09-16.557c-.366-.2-.816-.333-.841-.87a35.784,35.784,0,0,1,17.385,11.059,37.734,37.734,0,0,1,9.774,25.038,38.438,38.438,0,0,1-24.5,36.468C6117.849,388.532,6117.167,388.678,6116.5,388.872Z" transform="translate(-6022.074 -269.931)" fill="#9d325e"/>
        <path id="Trazado_7143" data-name="Trazado 7143" d="M5958.318,345.946c-4.392-.085-4.514-.207-4.515-4.49,0-1.071.034-2.144-.01-3.215a2.723,2.723,0,0,0-2.757-2.913,2.651,2.651,0,0,0-2.718,2.911c-.033,1.339-.036,2.68,0,4.019.023.834-.29.928-.933.55-1.292-.758-2.577-1.527-3.878-2.267a1.4,1.4,0,0,1-.7-1.314,13.677,13.677,0,0,1,13.613-14.869,123.931,123.931,0,0,1,12.849.136c.078.2.1.471.243.573,1.2.845.827,1.5-.1,2.328a34.643,34.643,0,0,0-6.825,8.434C5960.739,339.006,5958.914,342.226,5958.318,345.946Z" transform="translate(-5923.539 -274.793)" fill="#ed304b"/>
        <path id="Trazado_7144" data-name="Trazado 7144" d="M6128.921,485.4a19.84,19.84,0,0,0,7.049,14.292c-6.788,2.908-10.873,7.834-12.292,14.9-.435.152-.586-.2-.775-.429a32.922,32.922,0,0,1-7.753-21.29c-.008-.724-.019-1.336.91-1.577A43.581,43.581,0,0,0,6128.921,485.4Z" transform="translate(-6021.684 -366.542)" fill="#2a344f" opacity="0.75"/>
        <path id="Trazado_7145" data-name="Trazado 7145" d="M6227.665,478.693a57.7,57.7,0,0,0,3.372-9.674c2.3-11.386-.343-21.5-7.625-30.489a34.794,34.794,0,0,0-8.881-7.562c-.316-.2-.692-.334-.685-.8a25.047,25.047,0,0,1,10.545,5.216c8.852,6.967,13.221,16.175,12.908,27.414a31.958,31.958,0,0,1-8.327,20.642Z" transform="translate(-6077.879 -335.094)" fill="#2a344f" opacity="0.75"/>
        <path id="Trazado_7146" data-name="Trazado 7146" d="M6027.868,260.59a36.056,36.056,0,0,0-5.45-22.323,34.441,34.441,0,0,0-10.446-10.706c-.631-.417-1.55-.581-1.706-1.545a26.259,26.259,0,0,1,11.229,5.944,32.859,32.859,0,0,1,12,25.317c.03,1.185-.331,1.7-1.512,1.955A38.718,38.718,0,0,0,6027.868,260.59Z" transform="translate(-5961.965 -218.855)" fill="#2a344f" opacity="0.75"/>
        <path id="Trazado_7147" data-name="Trazado 7147" d="M5991.613,275.316c.452-1.4,1.854-1.961,2.716-3.029a16.505,16.505,0,0,0,.3-20.577c-.929-1.227-2.337-1.984-3.01-3.4,4.88.138,9.8,4.3,11.389,9.618C6005.415,266,5999.6,274.865,5991.613,275.316Z" transform="translate(-5951.345 -231.548)" fill="#dcc29a"/>
        <path id="Trazado_7148" data-name="Trazado 7148" d="M6195.892,479.62c.7-1.325,2.026-2.082,2.923-3.27a16.645,16.645,0,0,0-2.139-22.8c-.3-.273-.79-.4-.779-.936,4.822.122,9.738,4.218,11.359,9.465a13.76,13.76,0,0,1-10.568,17.539A4.317,4.317,0,0,1,6195.892,479.62Z" transform="translate(-6067.658 -347.877)" fill="#dcc29a"/>
        <path id="Trazado_7149" data-name="Trazado 7149" d="M5978.867,346.257c.6-3.72,2.42-6.94,4.268-10.117a34.63,34.63,0,0,1,6.825-8.434c.926-.829,1.3-1.483.1-2.328-.145-.1-.166-.378-.244-.573a10.893,10.893,0,0,1,4.563,1.348c.719.34.816.713.241,1.319a42.824,42.824,0,0,0-10.325,18.25,1.116,1.116,0,0,1-1.28.9A19.38,19.38,0,0,1,5978.867,346.257Z" transform="translate(-5944.087 -275.104)" fill="#b8193a"/>
        <path id="Trazado_7150" data-name="Trazado 7150" d="M6214.377,541.189c.452-1.884-.39-3.528-1.053-5.167a14.35,14.35,0,0,0-4.354-5.841,10.775,10.775,0,0,1-1.088-1.175,13.563,13.563,0,0,1,12.239,12.409c.058,1.1.541,2.459-.216,3.262a14.087,14.087,0,0,1-4.63,2.841c-.731.329-.557-.378-.583-.742C6214.556,544.915,6214.965,543.024,6214.377,541.189Z" transform="translate(-6074.485 -391.372)" fill="#f07a00"/>
        <path id="Trazado_7151" data-name="Trazado 7151" d="M6023.8,313.651a15.323,15.323,0,0,1,7.737-3.254c-1.965,1.331-3.911,2.691-5.9,3.978C6024.789,314.92,6024.312,314.149,6023.8,313.651Z" transform="translate(-5969.67 -266.9)" fill="#2a344f" opacity="0.75"/>
        <path id="Trazado_7152" data-name="Trazado 7152" d="M6059.549,396.566a3.281,3.281,0,0,1-1.98-.978c-1.693-1.723-3.431-3.4-5.115-5.137a2.733,2.733,0,0,1-.231-4.009,2.838,2.838,0,0,1,4.044.084,27.733,27.733,0,0,1,2.385,2.4c.741.872,1.246.794,2.036,0q9.067-9.16,18.212-18.241a7,7,0,0,1,1.186-1.082,2.606,2.606,0,0,1,3.4.268,2.665,2.665,0,0,1,.389,3.517,7.065,7.065,0,0,1-.866.951q-10.421,10.427-20.84,20.853A3.752,3.752,0,0,1,6059.549,396.566Z" transform="translate(-5985.417 -300.321)" fill="#fff"/>
      </g>
    </g>
  </g>
</svg>
