<svg xmlns="http://www.w3.org/2000/svg" xmlns:xlink="http://www.w3.org/1999/xlink" width="306" height="305" viewBox="0 0 306 305">
  <defs>
    <filter id="Elipse_32" x="0" y="0" width="306" height="305" filterUnits="userSpaceOnUse">
      <feOffset dx="1" dy="4" input="SourceAlpha"/>
      <feGaussianBlur stdDeviation="7.5" result="blur"/>
      <feFlood flood-opacity="0.161"/>
      <feComposite operator="in" in2="blur"/>
      <feComposite in="SourceGraphic"/>
    </filter>
  </defs>
  <g id="Grupo_13345" data-name="Grupo 13345" transform="translate(21.5 -155.5)">
    <g transform="matrix(1, 0, 0, 1, -21.5, 155.5)" filter="url(#Elipse_32)">
      <ellipse id="Elipse_32-2" data-name="Elipse 32" cx="130.5" cy="130" rx="130.5" ry="130" transform="translate(21.5 18.5)" fill="#fff"/>
    </g>
    <g id="Grupo_13328" data-name="Grupo 13328" transform="translate(-141.072 162.42)">
      <g id="Grupo_13327" data-name="Grupo 13327" transform="translate(191.999 62)">
        <path id="Trazado_7153" data-name="Trazado 7153" d="M5534.163,221.1c-1.1-1.721-1.031-2.565.392-3.928a27.65,27.65,0,0,1,13.632-7.2c.614-.131,1.335-.009,1.809-.591h7.148c1.524.356,3.081.608,4.565,1.086,11.012,3.546,18.03,10.944,19.881,22.367,1.946,12.016-2.654,21.55-12.719,28.41-.855.583-1.787,1.051-2.109,2.154a2.849,2.849,0,0,0,1.423,3.759,7.372,7.372,0,0,1-.262,12.794,2.229,2.229,0,0,0-1.337,2.4,13.417,13.417,0,0,1-.209,3.4,6.96,6.96,0,0,1-6.242,5.427,90.333,90.333,0,0,1-12.1.017,7.144,7.144,0,0,1-6.687-6.93,2.6,2.6,0,0,1-.009-.465,4.046,4.046,0,0,0-2.109-4.456c-4.415-2.877-3.9-9.489.641-12.246.618-.375,1.6-.395,1.5-1.631-.108-1.41.034-2.818-1.419-3.687a31.29,31.29,0,0,1-4.285-3.064,28.194,28.194,0,0,1-7.777-31.626c.865-2.153,1.368-2.449,3.631-2.13,1.45,1.144,1.258,2.483.657,4.026a23.289,23.289,0,0,0,8.973,27.979c3.083,1.964,5.128,4.306,4.846,8.147-.05.677.215.918.885.9a34.256,34.256,0,0,1,3.571.012c.992.074,1.207-.3,1.2-1.227-.049-3.883-.021-7.767-.021-11.651,0-2.826,0-2.826-2.737-3.051-.052,0-.1,0-.156-.007a2.305,2.305,0,0,1-2.19-2.365,2.219,2.219,0,0,1,2.261-2.269q5.2-.069,10.408,0a2.284,2.284,0,0,1,2.262,2.3,2.361,2.361,0,0,1-2.26,2.322,14.357,14.357,0,0,1-2.019.014c-.649-.034-.916.174-.912.87q.034,7.069,0,14.137c0,.618.095,1.045.857.836,1.136.023,2.278-.011,3.408.086,1.047.089,1.438-.2,1.411-1.337-.077-3.167,1.4-5.444,4.061-7.179,8.748-5.709,12.479-13.8,10.99-24.159-1.262-8.776-8.8-16.758-17.279-18.524l-.012.013-.71-.155a5.853,5.853,0,0,0-.88-.277,23.138,23.138,0,0,0-20.234,6.046C5536.718,221.552,5535.585,221.9,5534.163,221.1Zm22.947,59.952c-3.405-.025-6.811-.039-10.216-.083-.652-.008-.956.2-.908.884.04.565-.005,1.136.01,1.7.055,1.978.964,3.018,2.912,3.059,2.525.054,5.053-.035,7.58-.063.508.04,1.016.113,1.524.115,3.339.012,4.75-1.829,3.97-5.1-.13-.547-.432-.624-.877-.613Q5559.108,281.009,5557.11,281.055Zm4.668-10.3c-6-.026-12-.081-18-.059a2.716,2.716,0,0,0-2.862,2.825,2.616,2.616,0,0,0,2.736,2.747c6.052.029,12.1-.027,18.157-.05.866.025,1.737.119,2.6.059a2.731,2.731,0,0,0,2.688-2.786,2.808,2.808,0,0,0-2.712-2.8A25.232,25.232,0,0,0,5561.778,270.759Z" transform="translate(-5448.658 -209.389)" fill="#040403"/>
        <path id="Trazado_7154" data-name="Trazado 7154" d="M5679.135,209.389c2.2,1.731,2.089,3.341-.327,4.75q-3.867,2.254-7.749,4.48c-1.55.884-2.917.643-3.647-.589s-.274-2.5,1.3-3.425c2.619-1.534,5.251-3.046,7.867-4.585.262-.154.731-.132.694-.631Z" transform="translate(-5531.175 -209.389)" fill="#050505"/>
        <path id="Trazado_7155" data-name="Trazado 7155" d="M5490.341,209.389l7.8,4.634c.488.29,1,.55,1.46.874a2.309,2.309,0,0,1,.8,3.112,2.108,2.108,0,0,1-2.94.946c-3.175-1.717-6.315-3.512-9.369-5.434-1.434-.9-1.2-2.432.382-4.132Z" transform="translate(-5425.989 -209.389)" fill="#050505"/>
        <path id="Trazado_7156" data-name="Trazado 7156" d="M5702.031,299.249a3.32,3.32,0,0,1-3.25,1.581c-2.946-.085-5.9-.015-8.843-.03-1.812-.01-2.845-.881-2.843-2.343s1.025-2.31,2.852-2.316c2.948-.01,5.9.062,8.843-.03a3.232,3.232,0,0,1,3.242,1.583Z" transform="translate(-5542.883 -260.086)" fill="#030303"/>
        <path id="Trazado_7157" data-name="Trazado 7157" d="M5342.346,411.448c-1.9-.441-2.4-1.052-2.41-2.985-.01-2.693-.025-5.386,0-8.079a4.826,4.826,0,0,1,4.954-5.043c4.3-.056,8.6-.072,12.894.006a7.246,7.246,0,0,1,7.315,6.642c.093.807.329,1.065,1.115,1.024a13.456,13.456,0,0,1,3.249.18,7.227,7.227,0,0,1,5.876,6.2c.112,1.225.584,1.358,1.625,1.355,11.237-.033,22.475.022,33.711-.04a15.047,15.047,0,0,1,12.44,5.8c5.567,6.814,11.262,13.524,16.868,20.307a2.4,2.4,0,0,0,2.083.979c7.25-.038,14.5-.025,21.749-.02,7.167,0,12.159,3.709,14.2,10.626.282.957.8.965,1.565.981,7.07.147,12.4,4.27,13.946,10.754a13.914,13.914,0,0,1-13,17.06c-.517.017-1.035.016-1.553.016q-31.226,0-62.452.02a14.607,14.607,0,0,1-12.509-6.223c-4.929-6.651-10-13.2-14.861-19.9-2.436-3.355-5.486-5.068-9.633-4.776-.155.011-.31,0-.465,0a9.432,9.432,0,0,0-3.082.079c-1.109.412-.532,1.808-.9,2.732A7.589,7.589,0,0,1,5367.5,454c-1.5-.016-2.288.079-2.568,1.947a6.969,6.969,0,0,1-6.94,5.754c-4.4.086-8.8.077-13.2.012a4.776,4.776,0,0,1-4.841-4.982c-.021-12.636,0-25.271-.023-37.907a2.636,2.636,0,0,1,2.442-2.859c1.747.449,2.318,1.608,2.262,3.352-.091,2.79-.024,5.584-.024,8.377q0,13.963.008,27.925c0,.646-.331,1.5.929,1.472,3.2-.074,6.407-.07,9.61-.1,3.873.349,5.438.048,5.4-4.762-.123-15.9-.046-31.8-.046-47.707,0-4-.621-4.61-4.584-4.518a7.486,7.486,0,0,0-.765.093c-3.1-.034-6.208-.025-9.308-.125-1.072-.034-1.289.366-1.265,1.337.062,2.38-.021,4.764.034,7.145A2.586,2.586,0,0,1,5342.346,411.448ZM5464.571,442.5q-9.777-.028-19.555-.062c-.725,0-1.042.134-.751.978a12.488,12.488,0,0,1,.708,5.036c-.05.649.125.925.834.921q11.4-.069,22.811-.093c1.231.03,2.465.027,3.694.1,1.188.069,1.1-.456.754-1.3A9.166,9.166,0,0,0,5464.571,442.5Zm-99.347,6.1c-.062.253-.136.533.165.669a3.7,3.7,0,0,0,5.414-3.427q.016-17.364,0-34.728a3.755,3.755,0,0,0-5.373-3.38c-.381.171-.272.5-.2.8-.018,2.329-.052,4.658-.05,6.986Q5365.19,432.06,5365.224,448.6Zm115.187,5.575a1.933,1.933,0,0,0-.449-.108q-17.788-.018-35.576-.038a1.425,1.425,0,0,0-1.316.844c-5.635,8.694-16.593,9.277-23.2,1.253q-2.566-3.118-5.141-6.228-6.032-7.3-12.062-14.611c-1.1-1.333-1.212-2.51-.378-3.483,1.1-1.28,2.618-1.11,3.939.485q8.714,10.528,17.412,21.069c3.519,4.249,9.213,4.961,13.241,1.679,4.152-3.382,4.634-9.074,1.058-13.4-6.27-7.579-12.586-15.119-18.875-22.681a9.456,9.456,0,0,0-7.6-3.558c-11.548-.011-23.1.011-34.645-.03-1.107,0-1.376.324-1.37,1.394.045,7.146.023,14.293.023,21.44,0,3.465.007,3.606,3.462,3.434,6.131-.307,10.706,2.085,14.268,7.085,4.742,6.657,9.79,13.1,14.677,19.652,1.839,2.466,4.2,4.116,7.293,4.122,21.645.044,43.29,0,64.934-.011a9.13,9.13,0,0,0,9.113-9.2A8.991,8.991,0,0,0,5480.41,454.177Z" transform="translate(-5339.921 -318.071)" fill="#030303"/>
        <path id="Trazado_7158" data-name="Trazado 7158" d="M5540.736,227.694c1.422.8,2.555.448,3.735-.646A23.138,23.138,0,0,1,5564.705,221a5.851,5.851,0,0,1,.88.277.5.5,0,0,0,.71.155l.012-.013c.279.819,1.1,1.017,1.7,1.454,8.5,6.205,12.184,14.642,10.826,24.962a23.785,23.785,0,0,1-11.291,17.627c-2.735,1.715-4.289,3.769-3.827,7.069-.763.209-.858-.217-.857-.836q.018-7.068,0-14.137c0-.7.263-.9.912-.87a14.355,14.355,0,0,0,2.019-.014,2.361,2.361,0,0,0,2.26-2.322,2.284,2.284,0,0,0-2.262-2.3q-5.2-.077-10.408,0a2.219,2.219,0,0,0-2.261,2.269,2.305,2.305,0,0,0,2.19,2.365c.051.006.1,0,.156.007,2.737.225,2.737.225,2.737,3.051,0,3.884-.028,7.768.021,11.651.011.93-.2,1.3-1.2,1.227a34.256,34.256,0,0,0-3.571-.012c-.669.02-.935-.221-.885-.9.282-3.842-1.763-6.183-4.846-8.147a23.289,23.289,0,0,1-8.973-27.979c.6-1.544.792-2.883-.657-4.026A15.05,15.05,0,0,1,5540.736,227.694Z" transform="translate(-5455.231 -215.979)" fill="#fddd40"/>
        <path id="Trazado_7159" data-name="Trazado 7159" d="M5356.563,465.585c-3.2.027-6.408.024-9.611.1-1.26.029-.928-.826-.929-1.472q-.018-13.963-.008-27.925c0-2.793-.066-5.587.024-8.377.057-1.744-.515-2.9-2.262-3.352l-.016-4.519a2.586,2.586,0,0,0,2.267-2.989c-.054-2.381.027-4.764-.034-7.145-.025-.972.192-1.371,1.264-1.337,3.1.1,6.205.091,9.308.125a12.971,12.971,0,0,1,.643,4.866q-.03,23.655,0,47.311A14.63,14.63,0,0,1,5356.563,465.585Z" transform="translate(-5342.166 -325.829)" fill="#2a344f"/>
        <path id="Trazado_7160" data-name="Trazado 7160" d="M5680.629,377.868a2.267,2.267,0,0,1-3.172,2.189c-3.19-1.692-6.318-3.51-9.406-5.385a2.286,2.286,0,0,1,2.242-3.962c3.172,1.73,6.282,3.575,9.394,5.414A2.051,2.051,0,0,1,5680.629,377.868Z" transform="translate(-5531.134 -303.534)" fill="#050505"/>
        <path id="Trazado_7161" data-name="Trazado 7161" d="M5500.7,372.887a2.3,2.3,0,0,1-1.28,2.146c-2.857,1.656-5.708,3.324-8.589,4.938a2.331,2.331,0,1,1-2.274-4.048c2.843-1.679,5.692-3.35,8.583-4.946A2.277,2.277,0,0,1,5500.7,372.887Z" transform="translate(-5425.995 -303.643)" fill="#050505"/>
        <path id="Trazado_7162" data-name="Trazado 7162" d="M5471.529,296.173c1.6,0,3.205-.02,4.807.006a2.334,2.334,0,1,1,.081,4.644q-4.961.058-9.922,0a2.332,2.332,0,1,1,.073-4.647C5468.222,296.153,5469.876,296.173,5471.529,296.173Z" transform="translate(-5412.464 -260.119)" fill="#030303"/>
        <path id="Trazado_7163" data-name="Trazado 7163" d="M5600.972,273.6c-.461-3.3,1.092-5.354,3.828-7.069a23.785,23.785,0,0,0,11.291-17.627c1.357-10.319-2.328-18.756-10.826-24.962-.6-.437-1.422-.635-1.7-1.454,8.475,1.765,16.016,9.747,17.278,18.524,1.49,10.354-2.241,18.449-10.989,24.159-2.658,1.734-4.138,4.011-4.061,7.179.027,1.134-.364,1.426-1.411,1.337C5603.25,273.59,5602.108,273.624,5600.972,273.6Z" transform="translate(-5492.487 -217.047)" fill="#fbbb3f"/>
        <path id="Trazado_7164" data-name="Trazado 7164" d="M5582.907,362.5c-6.052.024-12.1.079-18.156.05a2.616,2.616,0,0,1-2.736-2.747,2.715,2.715,0,0,1,2.861-2.825c6-.022,12,.033,18,.059A10.9,10.9,0,0,1,5582.907,362.5Z" transform="translate(-5469.76 -295.67)" fill="#f2f3f7"/>
        <path id="Trazado_7165" data-name="Trazado 7165" d="M5584.725,387.3c-2.527.028-5.055.118-7.58.063-1.947-.042-2.856-1.081-2.911-3.059-.016-.567.029-1.138-.011-1.7-.048-.687.256-.893.908-.884,3.4.044,6.81.058,10.215.083C5585.375,383.661,5585.711,385.556,5584.725,387.3Z" transform="translate(-5476.894 -310.134)" fill="#ccd3e2"/>
        <path id="Trazado_7166" data-name="Trazado 7166" d="M5599.511,387.279c.987-1.745.65-3.64.622-5.5q2-.049,4-.1c.445-.011.747.066.877.613.78,3.274-.631,5.115-3.971,5.1C5600.527,387.392,5600.019,387.319,5599.511,387.279Z" transform="translate(-5491.681 -310.112)" fill="#a2aec2"/>
        <path id="Trazado_7167" data-name="Trazado 7167" d="M5612.273,362.474a10.9,10.9,0,0,0-.027-5.462,25.236,25.236,0,0,1,2.6-.064,2.807,2.807,0,0,1,2.711,2.8,2.731,2.731,0,0,1-2.687,2.786C5614.011,362.593,5613.14,362.5,5612.273,362.474Z" transform="translate(-5499.125 -295.642)" fill="#c5ccd8"/>
        <path id="Trazado_7168" data-name="Trazado 7168" d="M5606.3,222.3a.5.5,0,0,1-.71-.155Z" transform="translate(-5495.232 -216.848)" fill="#fbbb3f"/>
        <path id="Trazado_7169" data-name="Trazado 7169" d="M5530.111,500.747c-21.645.014-43.29.055-64.935.011-3.089-.006-5.455-1.656-7.293-4.122-4.887-6.555-9.935-12.994-14.677-19.652-3.562-5-8.137-7.392-14.268-7.085-3.455.173-3.462.031-3.462-3.434,0-7.146.022-14.294-.023-21.44-.007-1.07.262-1.4,1.369-1.394,11.548.041,23.1.019,34.645.03a9.455,9.455,0,0,1,7.6,3.558c6.29,7.562,12.606,15.1,18.875,22.681,3.577,4.323,3.094,10.015-1.058,13.4-4.028,3.282-9.722,2.57-13.24-1.679q-8.717-10.526-17.413-21.069c-1.321-1.6-2.841-1.765-3.939-.485-.834.973-.721,2.15.378,3.483q6.023,7.312,12.063,14.611,2.571,3.114,5.14,6.228c6.6,8.024,17.563,7.441,23.2-1.253a1.426,1.426,0,0,1,1.316-.844q17.788.036,35.576.038a1.933,1.933,0,0,1,.449.108c.221.282.432.572.663.846,2.978,3.54,4.249,7.43,2.73,12.028A14.464,14.464,0,0,1,5530.111,500.747Z" transform="translate(-5389.925 -346.33)" fill="#fdd7b2"/>
        <path id="Trazado_7170" data-name="Trazado 7170" d="M5374.578,465.621a14.616,14.616,0,0,0,.65-4.717q-.039-23.655,0-47.311a12.97,12.97,0,0,0-.642-4.866,7.493,7.493,0,0,1,.765-.093c3.964-.092,4.585.521,4.585,4.518,0,15.9-.076,31.805.046,47.707C5380.016,465.668,5378.451,465.97,5374.578,465.621Z" transform="translate(-5360.182 -325.865)" fill="#2a344f"/>
        <path id="Trazado_7171" data-name="Trazado 7171" d="M5400.739,425.543c-.067-.3-.176-.626.2-.8a3.755,3.755,0,0,1,5.373,3.38q.022,17.364,0,34.728a3.7,3.7,0,0,1-5.414,3.427c-.3-.136-.227-.416-.165-.669.806-.446.812-1.245.813-2q.018-18.039,0-36.078C5401.551,426.788,5401.547,425.989,5400.739,425.543Z" transform="translate(-5375.437 -335.083)" fill="#ccd3e2"/>
        <path id="Trazado_7172" data-name="Trazado 7172" d="M5615.319,515.633q-11.405.04-22.811.093c-.71,0-.884-.272-.834-.921a12.488,12.488,0,0,0-.708-5.036c-.291-.844.026-.982.751-.978q9.778.042,19.555.062C5613.211,510.761,5614.963,512.781,5615.319,515.633Z" transform="translate(-5486.623 -384.423)" fill="#feba98"/>
        <path id="Trazado_7173" data-name="Trazado 7173" d="M5677.405,555.359a14.462,14.462,0,0,0,3.694-5.438c1.519-4.6.248-8.488-2.729-12.028-.23-.274-.442-.564-.663-.846a8.991,8.991,0,0,1,8.812,9.112A9.13,9.13,0,0,1,5677.405,555.359Z" transform="translate(-5537.219 -400.942)" fill="#feba98"/>
        <path id="Trazado_7174" data-name="Trazado 7174" d="M5400.765,427.162c.808.446.812,1.245.812,2q.018,18.039,0,36.078c0,.751-.006,1.55-.812,2q-.026-16.542-.05-33.084C5400.712,431.82,5400.747,429.491,5400.765,427.162Z" transform="translate(-5375.462 -336.702)" fill="#f2f3f7"/>
        <path id="Trazado_7175" data-name="Trazado 7175" d="M5644.049,515.719c-.356-2.852-2.108-4.872-4.047-6.781a9.167,9.167,0,0,1,8.5,5.579c.347.845.434,1.37-.754,1.3C5646.514,515.746,5645.28,515.749,5644.049,515.719Z" transform="translate(-5515.352 -384.509)" fill="#f19d7b"/>
      </g>
    </g>
  </g>
</svg>
