<svg xmlns="http://www.w3.org/2000/svg" xmlns:xlink="http://www.w3.org/1999/xlink" width="306" height="305" viewBox="0 0 306 305">
  <defs>
    <filter id="Elipse_34" x="0" y="0" width="306" height="305" filterUnits="userSpaceOnUse">
      <feOffset dx="1" dy="4" input="SourceAlpha"/>
      <feGaussianBlur stdDeviation="7.5" result="blur"/>
      <feFlood flood-opacity="0.161"/>
      <feComposite operator="in" in2="blur"/>
      <feComposite in="SourceGraphic"/>
    </filter>
  </defs>
  <g id="Grupo_13347" data-name="Grupo 13347" transform="translate(-616.5 -155.5)">
    <g transform="matrix(1, 0, 0, 1, 616.5, 155.5)" filter="url(#Elipse_34)">
      <ellipse id="Elipse_34-2" data-name="Elipse 34" cx="130.5" cy="130" rx="130.5" ry="130" transform="translate(21.5 18.5)" fill="#fff"/>
    </g>
    <g id="Grupo_13324" data-name="Grupo 13324" transform="translate(414.498 255.413)">
      <g id="Grupo_13323" data-name="Grupo 13323" transform="translate(277.565 -34.123)">
        <path id="Trazado_7107" data-name="Trazado 7107" d="M4990.959,390.377c-8.686,0-17.372.012-26.057-.016a2.639,2.639,0,0,0-2.332.974,9.43,9.43,0,0,1-4.612,2.761,30.469,30.469,0,0,1-18.747-.046,9.322,9.322,0,0,1-4.884-3.146c-.513-.69-1.143-.518-1.762-.518q-25.754-.014-51.508,0a11.093,11.093,0,0,1-3.439-.41,7.8,7.8,0,0,1-5.229-9.224q5.569-28.641,11.164-57.278c.594-3.046,2.449-4.6,5.584-4.664,1.211-.026,2.425-.045,3.635.009.766.034,1.049-.231,1.128-1,.352-3.43,2.15-5.445,5.716-5.655.681-.041.877-.239.669-1.04a20.423,20.423,0,0,1,2.341-16.288,2.6,2.6,0,0,0,.236-1.737,10.316,10.316,0,0,1,5.487-10.454,1.823,1.823,0,0,0,1.041-1.44c1.341-7.7,7.721-12.144,15.437-10.784a1.492,1.492,0,0,0,1.55-.562c6.135-6.636,14.382-8.022,22.378-3.76a1.125,1.125,0,0,0,1.434-.132c5.083-3.685,10.887-2.967,14.9,1.9.711.863,1.538.613,2.324.665a21.7,21.7,0,0,1,19.792,15.629,4.067,4.067,0,0,0,2.72,3.036,10.338,10.338,0,0,1,5.9,12.365,2.506,2.506,0,0,0,.191,2,14.953,14.953,0,0,1,1.583,9.666c-.125.743.061.938.78,1.054,3.126.505,4.434,1.762,4.962,4.978.2,1.241.615,1.732,1.9,1.578a20.1,20.1,0,0,1,3.178-.014,5.2,5.2,0,0,1,5.376,4.554c.933,4.7,1.834,9.4,2.747,14.1q4.167,21.445,8.34,42.888c1.128,5.747-2.284,10.01-8.166,10.022C5008.128,390.391,4999.544,390.377,4990.959,390.377Zm23.43-5.287a6.213,6.213,0,0,0,2.7.124c2.236-.221,3.191-1.519,2.759-3.758-1.334-6.916-2.708-13.824-4.055-20.737q-3.42-17.556-6.816-35.117c-.318-1.643-.92-1.975-3.478-1.536-1.56.268-.7,1.441-.581,2.159,1.008,6.36,2.091,12.709,3.152,19.06q2.2,13.165,4.4,26.329c1.145,4.982-2.708,8.171-7.265,6.715a85.972,85.972,0,0,0-40.8-2.764c-1.023.17-1.227.565-1.124,1.484.224,2,.413,4.012.541,6.023.137,2.151.1,2.156,2.26,2.156q23.253,0,46.506-.006C5013.188,385.224,5013.789,385.137,5014.389,385.091Zm-35.661-96.451a4.637,4.637,0,0,0,1.1-.77c.685-.866,2.559-.33,2.478-1.935a8.588,8.588,0,0,0-1.272-3.362c-.161-.312-.333-.621-.523-.917-2.6-4.02-6.1-6.742-10.937-7.518-.8-.067-1.812-1.143-2.293.371-.524,1.652-1.281,2.378-2.664,2.319-1.4-.059-2.314-.994-2.495-2.7a4.649,4.649,0,0,0-1.219-3.14,4.8,4.8,0,0,0-5.565-1.882,4.3,4.3,0,0,0-2.687,1.56,5.266,5.266,0,0,0-1.315,2.992c-.25,2.3-1.295,3.369-2.994,3.156-1.663-.208-2.39-1.522-2.12-3.831a2.8,2.8,0,0,1,.13-.893c.53-1.069-.049-1.508-.922-1.948a12.637,12.637,0,0,0-17.644,7.523c-.652,1.961-1.889,2.833-3.385,2.389s-2.122-1.75-1.579-3.666c.274-.967-.056-1.11-.9-1.113a7.96,7.96,0,0,0-7.064,5.088c-.271.793-.193,1.151.75,1.318a9.841,9.841,0,0,1,5.963,3.587,2.587,2.587,0,0,1-.063,3.78,2.54,2.54,0,0,1-3.755-.3c-.212-.215-.4-.457-.614-.668a5.394,5.394,0,0,0-9.152,3.735,5.582,5.582,0,0,0,2.694,4.942,2.41,2.41,0,0,1,.81,3.215,2.363,2.363,0,0,1-2.893,1.349,2.98,2.98,0,0,1-1.434-.786c-1.129-1.161-1.472-.478-1.782.629a15.84,15.84,0,0,0,17.431,20.211c.726-.1,1.116-.209.757-1.1a4.729,4.729,0,0,1-.041-1.644,28.745,28.745,0,0,1,.771-5.03,18.838,18.838,0,0,1,1.791-3.655,2.564,2.564,0,0,1,4.44,2.475c-.161.421-.405.81-.594,1.222a10.838,10.838,0,0,0,.193,10.042,11.008,11.008,0,0,0,17.611,2.565c.97-.954,1.961-1.723,3.321-1.208a20.975,20.975,0,0,0,13.216.483,2.5,2.5,0,0,1,3.106,1.712,2.534,2.534,0,0,1-1.625,3.163,21.812,21.812,0,0,1-2.636.65c-.388.087-.937,0-1.08.4-.173.478.318.812.622,1.124a15.485,15.485,0,0,0,6.548,3.633,20.022,20.022,0,0,1,8.248,4.866,7.3,7.3,0,0,0,.57.684,2.8,2.8,0,0,0,3.673.591c1.153-.742,1.5-2,.984-3.589-.17-.522-.377-1.034-.585-1.544-.967-2.375-.97-2.373-3.352-1.686-.623.18-1.25.345-1.875.516-1.872.158-2.947-.38-3.375-1.733a2.462,2.462,0,0,1,1.085-2.982,7.773,7.773,0,0,1,1.362-.6,14.212,14.212,0,0,0,9.676-5.913,42.04,42.04,0,0,1-4.848.288,17.007,17.007,0,0,1-9.657-3.75c-1.32-1.364-2.976-2.618-1.577-4.863l1.543-.961a3.6,3.6,0,0,1,2.874,1.29,2.26,2.26,0,0,0,1.293.938,9.381,9.381,0,0,0,8.574,1.758c5.78-.757,10.2-7.258,8.436-13.484-.216-.764-.6-.615-1.075-.258a3.285,3.285,0,0,1-3.929.31,3.57,3.57,0,0,1-.688-3.207c.8-.6,1.6-1.2,2.389-1.814a5.453,5.453,0,0,0,1.424-6.81,5.06,5.06,0,0,0-5.94-2.587,2.354,2.354,0,0,0-1.686.53c-1.184.779-2.4,1.138-3.6.126C4977.881,291.257,4978.071,289.959,4978.728,288.639Zm22.818,83.142c1.584.476,3.205.859,4.738,1.465.861.34.907.085.913-.62a31.454,31.454,0,0,0-.753-5.376c-2.663-16.148-5.376-32.288-8.027-48.439-.167-1.01-.482-1.453-1.528-1.584a1.788,1.788,0,0,0-2,.8,8.74,8.74,0,0,0-1.418,3.6,21.388,21.388,0,0,1-6.532,9.458c-1.285,1-1.287,1.729-.59,3.047,1.229,2.326,2.247,4.786,1.622,7.523a7.653,7.653,0,0,1-5.443,5.956,7.468,7.468,0,0,1-8.039-2.132,15.468,15.468,0,0,0-6.8-4.311,26.791,26.791,0,0,1-4.584-1.94c-3.023-1.612-5.521-3.711-6.589-7.134-.1-.326-.185-.688-.648-.723a21.368,21.368,0,0,1-4.6-.852c-.42-.126-.653.185-.914.409a16.193,16.193,0,0,1-24.385-4.05,1.08,1.08,0,0,0-1.332-.591c-8.8,1.51-15.863-1.373-21.184-8.506-1.107-1.484-2.374-.39-3.57-.406-1.018-.013-.8.857-.9,1.443q-3.431,20.513-6.841,41.029c-.75,4.513-1.489,9.028-2.255,13.681.664-.181,1.184-.307,1.7-.465a87.865,87.865,0,0,1,52.871.033c1.634.5,1.632.516,1.632-1.28q0-15,.007-30c0-2.043,1.011-3.209,2.641-3.176,1.572.032,2.5,1.165,2.547,3.125.01.4,0,.808,0,1.212,0,9.646.031,19.291-.033,28.936-.01,1.436.293,1.662,1.629,1.224a85.432,85.432,0,0,1,25.286-4.112A92.013,92.013,0,0,1,5001.545,371.781Zm-95.164,13.452h13.03c4.242,0,8.484-.012,12.726.01.814,0,1.322-.124,1.379-1.118.139-2.415.363-4.825.589-7.234.076-.805-.156-1.2-1.02-1.294-1.9-.215-3.785-.573-5.687-.778a86.788,86.788,0,0,0-18.582-.01,93.278,93.278,0,0,0-17.275,3.656c-4.053,1.235-7.421-1.921-6.741-6.128.169-1.044.369-2.083.543-3.126q2.664-15.948,5.322-31.9c.646-3.876,1.3-7.751,1.918-11.63.076-.476.36-1.207-.06-1.426-1.007-.524-2.174-.247-3.264-.194-.908.045-.73.976-.841,1.546q-4.522,23.059-8.994,46.127c-.626,3.214-1.272,6.424-1.891,9.639-.475,2.471.55,3.737,3.092,3.852.4.018.808,0,1.211,0Zm42.3,5.149c3.056-.228,6.139-.371,8.977-1.755.756-.368,1.411-.786,1.31-1.8-.293-2.954-.583-5.909-.834-8.866-.066-.777-.344-.9-1.067-.7a41.807,41.807,0,0,0-6.288,2.135,4.791,4.791,0,0,1-4.057.077c-1.952-.808-4-1.392-5.983-2.115-.937-.341-1.476-.356-1.56.9-.193,2.861-.506,5.713-.789,8.567-.1,1.009.547,1.432,1.306,1.8C4942.538,390.008,4945.62,390.154,4948.686,390.382Z" transform="translate(-4872.218 -242.937)" fill="#030303"/>
        <path id="Trazado_7108" data-name="Trazado 7108" d="M4996.469,218.31a2.374,2.374,0,0,1,2,1.6c1.023,2.4,2.052,4.8,2.99,7.239a2.56,2.56,0,0,1-4.722,1.977c-1.08-2.432-2.131-4.882-3.049-7.378C4993.033,219.961,4994.3,218.295,4996.469,218.31Z" transform="translate(-4944.39 -215.974)" fill="#2a344f"/>
        <path id="Trazado_7109" data-name="Trazado 7109" d="M5113.57,218.318c2.179-.037,3.48,1.626,2.827,3.4-.934,2.543-2,5.042-3.121,7.511a2.449,2.449,0,0,1-3.318,1.206,2.5,2.5,0,0,1-1.348-3.263c.959-2.482,2-4.935,3.049-7.378A2.287,2.287,0,0,1,5113.57,218.318Z" transform="translate(-5012.759 -215.979)" fill="#2a344f"/>
        <path id="Trazado_7110" data-name="Trazado 7110" d="M4919.48,310.264a2.519,2.519,0,0,1-3.437,2.455c-2.5-.909-4.956-1.964-7.387-3.052a2.551,2.551,0,0,1,1.949-4.712c2.49.942,4.946,1.982,7.391,3.04A2.386,2.386,0,0,1,4919.48,310.264Z" transform="translate(-4893.005 -267.421)" fill="#2a344f"/>
        <path id="Trazado_7111" data-name="Trazado 7111" d="M5187.451,312.813c-1.672.023-2.552-.581-2.927-1.759a2.281,2.281,0,0,1,1.154-2.968c2.6-1.187,5.264-2.26,7.95-3.247a2.222,2.222,0,0,1,2.771,1.272,2.153,2.153,0,0,1-.505,3C5193.18,310.854,5190.063,311.737,5187.451,312.813Z" transform="translate(-5057.947 -267.376)" fill="#2a344f"/>
        <path id="Trazado_7112" data-name="Trazado 7112" d="M4950.394,264.252a2.852,2.852,0,0,1-1.676-.687c-.934-.921-1.9-1.813-2.776-2.787a2.453,2.453,0,0,1,.048-3.536,2.487,2.487,0,0,1,3.542-.113,34.1,34.1,0,0,1,2.878,2.895,2.355,2.355,0,0,1,.3,2.82A2.628,2.628,0,0,1,4950.394,264.252Z" transform="translate(-4915.649 -238.663)" fill="#2a344f"/>
        <path id="Trazado_7113" data-name="Trazado 7113" d="M5160.188,264.209a2.685,2.685,0,0,1-2.324-1.287,2.249,2.249,0,0,1-.016-2.577,15.912,15.912,0,0,1,3.5-3.52,2.289,2.289,0,0,1,3.055.278,2.189,2.189,0,0,1,.613,2.867,12.839,12.839,0,0,1-4.014,4.016A2.619,2.619,0,0,1,5160.188,264.209Z" transform="translate(-5041.929 -238.616)" fill="#2a344f"/>
        <path id="Trazado_7114" data-name="Trazado 7114" d="M5059.747,216.492c.03,2.539-.839,3.82-2.571,3.839s-2.647-1.279-2.647-3.791a12.582,12.582,0,0,1,.034-1.506,2.59,2.59,0,0,1,5.175-.048A11.635,11.635,0,0,1,5059.747,216.492Z" transform="translate(-4980.688 -212.544)" fill="#2a344f"/>
        <path id="Trazado_7115" data-name="Trazado 7115" d="M5027.5,450.19a92.013,92.013,0,0,0-23.382-2.757,85.424,85.424,0,0,0-25.285,4.112c-1.337.439-1.64.213-1.63-1.224.064-9.645.033-19.29.033-28.936,0-.4.008-.808,0-1.212-.049-1.96-.975-3.093-2.547-3.125-1.63-.033-2.638,1.133-2.641,3.176q-.021,15-.007,30c0,1.8,0,1.784-1.632,1.28a87.865,87.865,0,0,0-52.871-.033c-.511.157-1.031.283-1.7.465.767-4.654,1.5-9.169,2.255-13.681q3.412-20.516,6.841-41.029c.1-.586-.122-1.456.9-1.443,1.2.016,2.462-1.078,3.57.406,5.321,7.133,12.384,10.016,21.184,8.506a1.08,1.08,0,0,1,1.332.591,16.193,16.193,0,0,0,24.385,4.05c.261-.223.494-.534.914-.409a21.37,21.37,0,0,0,4.6.852c.463.034.546.4.648.723,1.068,3.422,3.566,5.522,6.59,7.134a26.762,26.762,0,0,0,4.583,1.94,15.468,15.468,0,0,1,6.8,4.311,7.468,7.468,0,0,0,8.039,2.132,7.653,7.653,0,0,0,5.443-5.956c.625-2.737-.394-5.2-1.622-7.523-.7-1.318-.694-2.046.59-3.047a21.393,21.393,0,0,0,6.532-9.458c.3.176.323.47.373.777,1.016,6.284,2.018,12.57,3.071,18.848,1.575,9.392,3.213,18.773,4.729,28.175C5027.713,448.54,5028.473,449.46,5027.5,450.19Z" transform="translate(-4898.172 -321.346)" fill="#f3f3f3"/>
        <path id="Trazado_7116" data-name="Trazado 7116" d="M4971.28,326.254a4.729,4.729,0,0,0,.041,1.644c.359.89-.031.994-.757,1.1a15.84,15.84,0,0,1-17.43-20.211c.31-1.107.652-1.79,1.781-.629a2.978,2.978,0,0,0,1.434.786,2.363,2.363,0,0,0,2.894-1.349,2.411,2.411,0,0,0-.81-3.215,5.581,5.581,0,0,1-2.695-4.942,5.394,5.394,0,0,1,9.153-3.735c.216.211.4.453.614.668a2.54,2.54,0,0,0,3.755.3,2.586,2.586,0,0,0,.063-3.78,9.84,9.84,0,0,0-5.963-3.587c-.943-.168-1.021-.525-.751-1.318a7.961,7.961,0,0,1,7.065-5.088c.846,0,1.176.146.9,1.113-.543,1.916.074,3.219,1.579,3.666s2.732-.428,3.385-2.389a12.637,12.637,0,0,1,17.644-7.523c.873.439,1.452.879.922,1.948a2.825,2.825,0,0,0-.131.893c-.27,2.309.457,3.623,2.12,3.831,1.7.213,2.744-.859,2.995-3.156a5.26,5.26,0,0,1,1.315-2.992,4.292,4.292,0,0,1,2.687-1.559,2.3,2.3,0,0,0,2.9,1.967,19.669,19.669,0,0,1,2.663-.085,4.648,4.648,0,0,1,1.218,3.14c.181,1.7,1.093,2.639,2.5,2.7,1.382.059,2.139-.667,2.664-2.319.48-1.513,1.493-.438,2.292-.371.109.217.161.508.333.642,4.179,3.232,6.958,7.294,7.643,12.643.076.6.21,1.372,1.177,1.214-.656,1.321-.847,2.618.424,3.684,1.206,1.012,2.42.652,3.6-.126a2.353,2.353,0,0,1,1.686-.53,2.006,2.006,0,0,0,.426,1.238,7.8,7.8,0,0,1,.493,6.619c-.517,1.443-.2,2.369,1.208,3.354a3.57,3.57,0,0,0,.688,3.207,14.038,14.038,0,0,1-2.817,11.329,2.8,2.8,0,0,0-.614,2.1,9.381,9.381,0,0,1-8.574-1.759,3.671,3.671,0,0,0,1.354-2.575,7.87,7.87,0,0,0-.748-6.4,2.319,2.319,0,0,0-2.946-1.192c-1.2.452-2.144,1.789-1.715,2.838a6.39,6.39,0,0,1-.113,5.1l-1.543.961a4.255,4.255,0,0,1-5.06-1.854c-1.071-1.546-2.4-1.841-3.609-1.026-1.4.94-1.606,2.273-.607,3.939,2.221,3.7,6.159,5.082,10.853,3.8a17.008,17.008,0,0,0,9.657,3.75c-.049.636-.516,1.038-.819,1.542-1.018,1.688-2.91,2.493-4.009,4.082a7.775,7.775,0,0,0-1.362.6,2.463,2.463,0,0,0-1.085,2.982c.428,1.353,1.5,1.891,3.375,1.733.176.624.355,1.247.527,1.872.286,1.046.748,2.09.059,3.155a20.026,20.026,0,0,0-8.248-4.866,15.481,15.481,0,0,1-6.548-3.633c-.3-.313-.8-.646-.622-1.124.144-.4.692-.31,1.08-.4a21.893,21.893,0,0,0,2.637-.65,2.533,2.533,0,0,0,1.625-3.163,2.5,2.5,0,0,0-3.105-1.712,20.977,20.977,0,0,1-13.217-.483c-1.359-.514-2.351.254-3.321,1.208a11.008,11.008,0,0,1-17.611-2.565,10.84,10.84,0,0,1-.194-10.042c.189-.411.434-.8.595-1.222a2.564,2.564,0,0,0-4.439-2.475,18.821,18.821,0,0,0-1.791,3.654c-2.064-.626-3.392-1.8-3.545-4.144a2.357,2.357,0,0,0-2.773-2.341c-1.5.1-2.3,1.053-2.331,2.771C4963.339,321.78,4966.669,325.476,4971.28,326.254Zm18.158-.123c5.8-.491,9.366-2.742,11.611-7.008a2.7,2.7,0,0,1,1.79-1.633,15,15,0,0,0,11.234-10.695c.762-2.421.3-3.841-1.409-4.387-1.677-.534-2.769.473-3.52,2.941a9.631,9.631,0,0,1-6.961,6.925,10.17,10.17,0,0,1-10.44-2.658,2.8,2.8,0,0,0-4.043-.212c-1.023,1.069-.816,2.5.424,3.873a14.537,14.537,0,0,0,6.771,4.093c1.161.35.835.633.277,1.218a6.824,6.824,0,0,1-4.807,2.208,3.234,3.234,0,0,0-2.956,1.486C4986.515,323.847,4987.571,326.451,4989.438,326.13Zm-13.017-23.118v.3c0,2.08.494,2.809,2,2.946,1.74.158,2.528-.5,2.924-2.437a12.147,12.147,0,0,1,.534-2.334,6.439,6.439,0,0,1,6.131-4.343,2.657,2.657,0,0,0,2.667-2.541,2.379,2.379,0,0,0-2.354-2.594C4982.375,291.57,4976.458,297.04,4976.421,303.012Z" transform="translate(-4919.971 -250.558)" fill="#9d325e"/>
        <path id="Trazado_7117" data-name="Trazado 7117" d="M4914.027,473.845h-24.544c-.4,0-.809.014-1.211,0-2.542-.115-3.567-1.381-3.092-3.852.619-3.215,1.265-6.425,1.89-9.639q4.49-23.065,8.995-46.127c.111-.57-.066-1.5.841-1.546,1.09-.054,2.257-.331,3.265.194.42.219.136.95.06,1.426-.622,3.88-1.273,7.755-1.919,11.63q-2.659,15.949-5.322,31.9c-.174,1.043-.374,2.082-.543,3.126-.68,4.206,2.688,7.363,6.741,6.128a93.273,93.273,0,0,1,17.275-3.656,86.779,86.779,0,0,1,18.582.01c1.9.2,3.787.563,5.688.778.863.1,1.095.489,1.02,1.294-.226,2.409-.45,4.82-.589,7.234-.057.994-.564,1.122-1.378,1.118-4.243-.021-8.484-.01-12.727-.01Z" transform="translate(-4879.863 -331.55)" fill="#9d502c"/>
        <path id="Trazado_7118" data-name="Trazado 7118" d="M5148.135,543.74c-.6.047-1.2.134-1.8.134q-23.253.012-46.506.006c-2.163,0-2.124,0-2.26-2.156-.127-2.011-.316-4.02-.541-6.023-.1-.919.1-1.314,1.124-1.484a85.975,85.975,0,0,1,40.8,2.764c4.557,1.456,8.409-1.733,7.266-6.714,1.091,1.371.886,3.1,1.2,4.661C5147.986,537.822,5149.1,540.708,5148.135,543.74Z" transform="translate(-5005.964 -401.587)" fill="#9f512d"/>
        <path id="Trazado_7119" data-name="Trazado 7119" d="M5208.838,473.625c.965-3.032-.149-5.918-.724-8.812-.31-1.56-.105-3.29-1.2-4.661q-2.2-13.166-4.4-26.33c-1.061-6.352-2.143-12.7-3.151-19.06-.114-.718-.978-1.892.582-2.16,2.557-.439,3.159-.107,3.477,1.536q3.394,17.561,6.816,35.117c1.347,6.913,2.722,13.822,4.055,20.738.432,2.238-.523,3.536-2.76,3.758A6.211,6.211,0,0,1,5208.838,473.625Z" transform="translate(-5066.667 -331.472)" fill="#753c21"/>
        <path id="Trazado_7120" data-name="Trazado 7120" d="M5179.677,450.471c.974-.729.213-1.65.1-2.358-1.516-9.4-3.154-18.783-4.729-28.175-1.053-6.278-2.055-12.564-3.07-18.848-.05-.307-.074-.6-.374-.777a8.74,8.74,0,0,1,1.418-3.6,1.787,1.787,0,0,1,2-.8c1.046.132,1.361.574,1.528,1.584,2.652,16.15,5.364,32.29,8.028,48.439a31.5,31.5,0,0,1,.753,5.376c-.006.706-.052.961-.913.62C5182.882,451.33,5181.261,450.948,5179.677,450.471Z" transform="translate(-5050.35 -321.628)" fill="#cdd6da"/>
        <path id="Trazado_7121" data-name="Trazado 7121" d="M5045.888,557.171c-3.065-.228-6.147-.374-8.986-1.755-.759-.369-1.406-.791-1.306-1.8.283-2.854.6-5.706.789-8.567.085-1.261.623-1.245,1.561-.9,1.988.723,4.032,1.307,5.983,2.115a4.79,4.79,0,0,0,4.057-.077,41.812,41.812,0,0,1,6.289-2.135c.723-.2,1-.073,1.067.7.251,2.958.541,5.912.834,8.866.1,1.012-.555,1.43-1.311,1.8C5052.028,556.8,5048.945,556.943,5045.888,557.171Z" transform="translate(-4969.421 -409.727)" fill="#763d21"/>
        <path id="Trazado_7122" data-name="Trazado 7122" d="M5147.76,381.009a2.8,2.8,0,0,1,.612-2.1,14.038,14.038,0,0,0,2.818-11.329,3.284,3.284,0,0,0,3.929-.31c.479-.357.859-.506,1.075.258C5157.958,373.75,5153.539,380.251,5147.76,381.009Z" transform="translate(-5036.152 -304.429)" fill="#aa1456"/>
        <path id="Trazado_7123" data-name="Trazado 7123" d="M4987.331,382.515c-4.611-.777-7.941-4.474-7.878-8.743.026-1.719.828-2.673,2.331-2.771a2.357,2.357,0,0,1,2.774,2.341c.152,2.347,1.481,3.518,3.544,4.144A28.755,28.755,0,0,0,4987.331,382.515Z" transform="translate(-4936.022 -306.819)" fill="#ad1457"/>
        <path id="Trazado_7124" data-name="Trazado 7124" d="M5121.753,304.084c-.968.158-1.1-.618-1.178-1.215-.686-5.35-3.464-9.411-7.643-12.643-.173-.134-.225-.424-.333-.642,4.835.776,8.333,3.5,10.938,7.518.191.3.362.6.524.917a8.6,8.6,0,0,1,1.271,3.362c.08,1.6-1.793,1.068-2.479,1.935A4.634,4.634,0,0,1,5121.753,304.084Z" transform="translate(-5015.244 -258.382)" fill="#aa1456"/>
        <path id="Trazado_7125" data-name="Trazado 7125" d="M5099.552,394.137c-4.693,1.279-8.632-.1-10.853-3.8-1-1.666-.794-3,.606-3.94,1.213-.814,2.539-.52,3.609,1.026a4.256,4.256,0,0,0,5.061,1.854C5096.576,391.519,5098.231,392.774,5099.552,394.137Z" transform="translate(-5000.653 -315.721)" fill="#ad1457"/>
        <path id="Trazado_7126" data-name="Trazado 7126" d="M5151.421,343.734c-1.413-.985-1.724-1.911-1.208-3.354a7.8,7.8,0,0,0-.493-6.619,2,2,0,0,1-.426-1.239,5.06,5.06,0,0,1,5.94,2.587,5.454,5.454,0,0,1-1.424,6.81C5153.018,342.529,5152.218,343.129,5151.421,343.734Z" transform="translate(-5037.071 -283.793)" fill="#a91455"/>
        <path id="Trazado_7127" data-name="Trazado 7127" d="M5116.327,379.867a6.39,6.39,0,0,0,.113-5.1c-.428-1.049.513-2.385,1.715-2.838a2.319,2.319,0,0,1,2.946,1.192,7.87,7.87,0,0,1,.748,6.4,3.67,3.67,0,0,1-1.354,2.575,2.262,2.262,0,0,1-1.294-.938A3.6,3.6,0,0,0,5116.327,379.867Z" transform="translate(-5017.461 -307.275)" fill="#ad1457"/>
        <path id="Trazado_7128" data-name="Trazado 7128" d="M5131.207,446.119c.688-1.065.227-2.109-.059-3.155-.172-.625-.352-1.248-.527-1.872.626-.172,1.253-.337,1.876-.517,2.382-.686,2.384-.689,3.352,1.686.208.509.414,1.021.585,1.544.521,1.593.169,2.848-.984,3.589a2.8,2.8,0,0,1-3.673-.591A7.073,7.073,0,0,1,5131.207,446.119Z" transform="translate(-5025.966 -347.985)" fill="#a91455"/>
        <path id="Trazado_7129" data-name="Trazado 7129" d="M5128.333,420.623c1.1-1.59,2.992-2.395,4.009-4.082.3-.5.77-.906.819-1.542a42.04,42.04,0,0,0,4.848-.288A14.212,14.212,0,0,1,5128.333,420.623Z" transform="translate(-5024.604 -332.831)" fill="#a91455"/>
        <path id="Trazado_7130" data-name="Trazado 7130" d="M5083.016,278.726a19.662,19.662,0,0,0-2.662.085,2.3,2.3,0,0,1-2.9-1.967A4.8,4.8,0,0,1,5083.016,278.726Z" transform="translate(-4994.33 -250.672)" fill="#a91455"/>
        <path id="Trazado_7131" data-name="Trazado 7131" d="M5040.229,364.085c-1.867.32-2.924-2.284-2.027-3.848a3.234,3.234,0,0,1,2.956-1.486,6.82,6.82,0,0,0,4.806-2.209c.559-.584.885-.868-.276-1.218a14.537,14.537,0,0,1-6.771-4.093c-1.24-1.371-1.447-2.8-.424-3.873a2.8,2.8,0,0,1,4.043.212,10.169,10.169,0,0,0,10.439,2.658,9.632,9.632,0,0,0,6.961-6.925c.751-2.468,1.843-3.475,3.52-2.941,1.711.545,2.171,1.966,1.409,4.387a15,15,0,0,1-11.234,10.695,2.7,2.7,0,0,0-1.789,1.633C5049.594,361.344,5046.026,363.595,5040.229,364.085Z" transform="translate(-4970.761 -288.513)" fill="#ad1457"/>
        <path id="Trazado_7132" data-name="Trazado 7132" d="M5011.6,325.861c.036-5.972,5.953-11.442,11.9-11a2.38,2.38,0,0,1,2.355,2.594A2.658,2.658,0,0,1,5023.19,320a6.439,6.439,0,0,0-6.131,4.343,12.113,12.113,0,0,0-.534,2.334c-.4,1.935-1.184,2.6-2.924,2.437-1.508-.137-2-.866-2-2.946Z" transform="translate(-4955.15 -273.406)" fill="#ad1457"/>
      </g>
    </g>
  </g>
</svg>
