<svg xmlns="http://www.w3.org/2000/svg" xmlns:xlink="http://www.w3.org/1999/xlink" width="306" height="305" viewBox="0 0 306 305">
  <defs>
    <filter id="Elipse_35" x="0" y="0" width="306" height="305" filterUnits="userSpaceOnUse">
      <feOffset dx="1" dy="4" input="SourceAlpha"/>
      <feGaussianBlur stdDeviation="7.5" result="blur"/>
      <feFlood flood-opacity="0.161"/>
      <feComposite operator="in" in2="blur"/>
      <feComposite in="SourceGraphic"/>
    </filter>
  </defs>
  <g id="Grupo_13348" data-name="Grupo 13348" transform="translate(-935.5 -155.5)">
    <g transform="matrix(1, 0, 0, 1, 935.5, 155.5)" filter="url(#Elipse_35)">
      <ellipse id="Elipse_35-2" data-name="Elipse 35" cx="130.5" cy="130" rx="130.5" ry="130" transform="translate(21.5 18.5)" fill="#fff"/>
    </g>
    <g id="Grupo_13322" data-name="Grupo 13322" transform="translate(461 53.29)">
      <g id="Grupo_13321" data-name="Grupo 13321" transform="translate(561 168)">
        <path id="Trazado_7084" data-name="Trazado 7084" d="M4502.177,340.383c-5.912.017-11.824.021-17.735.066-.774.006-.986-.29-1.084-1q-1.084-7.9-2.252-15.79c-.108-.73.042-1.094.789-1.263a16.935,16.935,0,0,0,2.142-.691,7.053,7.053,0,0,0,4.914-5.845,7.154,7.154,0,0,0-3.16-7.271c-.355-.256-1.3-.38-.659-1.082.658-.718.695-2.359,2.117-2.005a23.3,23.3,0,0,0,8.79.443c1.8,2.18,3.562,4.389,5.413,6.523a2.816,2.816,0,0,1,.75,2.015Q4502.168,327.43,4502.177,340.383Z" transform="translate(-4456.466 -265.017)" fill="#9d325e"/>
        <path id="Trazado_7085" data-name="Trazado 7085" d="M4635.939,240.821h-20.045c1.16-2.087,2.265-4.078,3.372-6.068.417-.751.8-1.524,1.268-2.244a3.025,3.025,0,0,0,.005-3.467c-1.56-2.683-3.046-5.408-4.676-8.32h20.1Q4635.948,230.772,4635.939,240.821Z" transform="translate(-4533.059 -216.872)" fill="#9d325e"/>
        <path id="Trazado_7086" data-name="Trazado 7086" d="M4499.337,271.824a12.109,12.109,0,0,1-13.62-3.271c1.269-.2,2.456-.315,3.615-.567,5.288-1.151,8.108-4.414,8.341-9.766a2.233,2.233,0,0,1,1.9-2.389,29.4,29.4,0,0,1,5.894-.824,15.8,15.8,0,0,1-3.3,14.109c-.679.861-2.014,1.126-2.151,2.436l.017-.012A.586.586,0,0,0,4499.337,271.824Z" transform="translate(-4459.104 -236.354)" fill="#fbdccc"/>
        <path id="Trazado_7087" data-name="Trazado 7087" d="M4662.362,240.733q.01-10.049.018-20.1c1.828-.017,3.656,0,5.482-.066.793-.026,1,.283.993,1.031q-.035,9.116,0,18.231c0,.77-.253,1.054-1.022,1.025C4666.011,240.788,4664.186,240.771,4662.362,240.733Z" transform="translate(-4559.481 -216.784)" fill="#9d325e"/>
        <path id="Trazado_7088" data-name="Trazado 7088" d="M4437.767,339.713c0-1.933.038-3.868-.012-5.8a2.692,2.692,0,0,1,2-2.923c2.029-.683,4.063-1.354,6.075-2.087.687-.25,1.046-.215,1.254.573.327,1.24,1.252,2.574,1,3.648-.264,1.111-2.046.994-3.158,1.416a3.094,3.094,0,0,0-2.134,3.232c.007,2.632.021,5.263,0,7.895-.019,1.953-.979,3.032-2.578,2.981-1.532-.049-2.414-1.107-2.431-2.972C4437.753,343.687,4437.768,341.7,4437.767,339.713Z" transform="translate(-4431.85 -278.265)" fill="#fbcbbc"/>
        <path id="Trazado_7089" data-name="Trazado 7089" d="M4521.872,339.877q.008-12.952.026-25.9a2.817,2.817,0,0,0-.75-2.015c-1.85-2.134-3.616-4.342-5.413-6.523a21.281,21.281,0,0,0,2.109-.734.967.967,0,0,1,1.362.369c1.7,2.158,3.4,4.308,5.155,6.419a2.741,2.741,0,0,1,.467,1.97c0,8.183-.055,16.367.047,24.549.021,1.683-.459,2.234-2.042,1.956C4522.517,339.908,4522.192,339.9,4521.872,339.877Z" transform="translate(-4476.161 -264.511)" fill="#9d325e"/>
        <path id="Trazado_7090" data-name="Trazado 7090" d="M4572.271,318.409c-1.156.32-1.375-.369-1.4-1.648-.047-2.371.07-4.482,1.917-6.406,1.686-1.756,2.855-4.007,4.26-6.034a3.017,3.017,0,0,1,3-1.486c2.156.26,3.3,2.333,2.092,4.12-2.459,3.644-5.075,7.183-7.58,10.8C4574,318.556,4573.252,318.3,4572.271,318.409Z" transform="translate(-4507.488 -263.517)" fill="#fbcbbc"/>
        <path id="Trazado_7091" data-name="Trazado 7091" d="M4583.771,463.043c-4.511.019-9.021.021-13.531.07-.835.009-1.16-.25-1.108-1.1.108-1.76-.69-3.984.29-5.161.959-1.152,3.235-.376,4.92-.344,2.172.041,4.4-.469,6.519.405,0,.609.515.885.815,1.306C4582.715,459.674,4583.909,461.073,4583.771,463.043Z" transform="translate(-4506.388 -350.692)" fill="#d67e4a"/>
        <path id="Trazado_7092" data-name="Trazado 7092" d="M4474.261,494.51c-4.077.016-8.154.023-12.231.057-.687.006-1.114-.095-1.089-.941.047-1.608.043-3.22,0-4.829-.021-.807.348-.991,1.068-.978,2.9.05,5.791.062,8.687.089.214.848.991,1.238,1.506,1.839A7.8,7.8,0,0,1,4474.261,494.51Z" transform="translate(-4445.025 -368.647)" fill="#d67e4a"/>
        <path id="Trazado_7093" data-name="Trazado 7093" d="M4518.848,271.013c.137-1.311,1.473-1.576,2.152-2.436a15.8,15.8,0,0,0,3.3-14.109c2.2-.692,2.2-.692,2.749,1.462A13.115,13.115,0,0,1,4518.848,271.013Z" transform="translate(-4477.931 -235.814)" fill="#fbcbbc"/>
        <path id="Trazado_7094" data-name="Trazado 7094" d="M4475.3,320.975c1.3.168,2.256.674,2.537,1.963a2.256,2.256,0,0,1-1.294,2.813c-1.479.617-3.035,1.044-4.554,1.566-.658.227-.788-.166-.989-.675-1.573-3.967-1.585-3.963,2.517-5.161C4474.137,321.3,4474.755,321.131,4475.3,320.975Z" transform="translate(-4450.188 -273.839)" fill="#9d325e"/>
        <path id="Trazado_7095" data-name="Trazado 7095" d="M4553.082,328.662c0,2.711,0,2.711-2.663,2.711-2.408,0-2.408,0-2.408-2.631,0-3.064,0-3.064,2.813-3.064C4553.082,325.678,4553.082,325.678,4553.082,328.662Z" transform="translate(-4494.502 -276.512)" fill="#9d325e"/>
        <path id="Trazado_7096" data-name="Trazado 7096" d="M4487.1,494.627a7.8,7.8,0,0,0-2.058-4.764c-.515-.6-1.292-.991-1.506-1.839,3.046-.01,6.84,2.778,7.684,5.609.223.749.1,1.1-.763,1.056C4489.343,494.633,4488.222,494.645,4487.1,494.627Z" transform="translate(-4457.867 -368.764)" fill="#c06935"/>
        <path id="Trazado_7097" data-name="Trazado 7097" d="M4599.477,463.952c.138-1.97-1.056-3.368-2.095-4.824-.3-.421-.817-.7-.816-1.306a8.429,8.429,0,0,1,5.379,4.5c.788,1.49.644,1.687-1.023,1.689C4600.441,464.008,4599.959,463.971,4599.477,463.952Z" transform="translate(-4522.093 -351.601)" fill="#c06935"/>
        <path id="Trazado_7098" data-name="Trazado 7098" d="M4517.263,293.558a.586.586,0,0,1,.7-.283C4517.8,293.553,4517.538,293.566,4517.263,293.558Z" transform="translate(-4477.03 -258.088)" fill="#fbcbbc"/>
        <path id="Trazado_7099" data-name="Trazado 7099" d="M4443.309,310.624c-1.581-.9-1.811-2.188-1.284-3.842,1.254-3.937,2.411-7.9,3.643-11.848a5.629,5.629,0,0,0,.175-2.659c-1.008-6.48-1.944-12.972-2.9-19.46-.03-.2-.083-.406-.126-.614a2.923,2.923,0,0,0-.525.038c-3.461.942-3.457.943-3.463,4.537,0,1.507.047,3.019-.05,4.521a7.329,7.329,0,0,1-14.631-.217c-.088-4.413-.077-8.83-.009-13.243.05-3.284,2.013-5.75,5.365-6.881,4.624-1.56,9.249-3.12,13.91-4.565a5.139,5.139,0,0,0,3.348-2.48,9.137,9.137,0,0,1,.635-.932c1.327-1.906,1.313-1.891-.369-3.543-5.035-4.943-6.352-11.246-6.108-17.913.3-8.285,4.9-14,12.34-15.972a18.478,18.478,0,0,1,5.445-.508,27.539,27.539,0,0,0,13.643-2.51c1.5-.75,2.729-.229,3.452,1.319,2.095,4.494,2.823,9.032.068,13.544a1.4,1.4,0,0,0,.02,1.474c3.065,7.727,1.237,15.2-5.11,20.678-.7.6-.944.935-.236,1.736,1.389,1.569,2.68,3.228,3.948,4.9a2.2,2.2,0,0,0,2.012,1.017c2.206-.07,4.416-.063,6.621,0a1.9,1.9,0,0,0,1.837-.977c1.338-2.014,2.678-4.036,4.158-5.945a7.616,7.616,0,0,1,8.98-2.432,7.487,7.487,0,0,1,4.92,7.554,7.6,7.6,0,0,1-1.455,3.876c-2.472,3.52-5,7-7.451,10.536a6.032,6.032,0,0,1-5.479,2.761c-3.6-.076-7.214.017-10.82-.031-.946-.013-1.3.173-1.284,1.221.063,4.575.048,9.152.01,13.728-.008.876.238,1.153,1.139,1.272,4.317.57,8.618,1.266,12.93,1.876,4.79.677,7.335,3.038,7.634,7.856.292,4.72.168,9.469.129,14.2a1.747,1.747,0,0,0,1.351,1.931c4.357,1.822,7.413,4.884,8.5,9.622a1.11,1.11,0,0,0,1.28,1.042c3.778.085,3.777.118,3.777-3.573q0-6.057,0-12.113c0-4.032,1.663-5.706,5.649-5.709,4.092,0,8.184-.04,12.274.026,1.031.017,1.224-.295,1.223-1.262q-.043-29.8.011-59.6c0-1.255-.475-1.336-1.488-1.333-9.206.033-18.413.019-27.619.019-.43,0-.862.019-1.291-.006-2.442-.141-3.436-1.848-2.263-4q2.74-5.019,5.6-9.973a1.723,1.723,0,0,0,0-2.017c-1.807-3.11-3.54-6.264-5.3-9.4-1.262-2.255-1.162-2.919.672-4.544h34.892a3.528,3.528,0,0,1,1.633,3.388q-.051,43.447-.056,86.894c0,1.4.257,1.9,1.786,1.849,3.979-.125,7.967-.048,11.95-.04,3.424.007,5.1,1.625,5.1,4.99.015,8.829-.018,17.659.024,26.488.008,1.731-.675,2.756-2.362,3.109-2.029-.574-2.5-1.179-2.5-3.315-.007-8.34-.024-16.68.022-25.019.006-1.114-.26-1.516-1.411-1.427-1.5.114-3.009.063-4.514.083-8.718-.02-17.437-.021-26.154-.085-1.095-.008-1.042.541-1.041,1.291q.021,8.236.007,16.472c0,2.968-.652,3.632-3.568,3.633-11.035,0-22.069.017-33.1-.025-1.117,0-1.472.267-1.438,1.416.083,2.85.029,5.7.027,8.558,0,2.822-.72,3.549-3.509,3.55-14.372,0-28.744.016-43.115-.028-1.2,0-1.512.269-1.5,1.49q.089,12.757,0,25.514c-.014,1.47.363,1.824,1.826,1.822q54.983-.066,109.967-.037c.538,0,1.075-.035,1.611-.054,1.5.019,3.015-.035,4.513.079,1.144.087,1.42-.294,1.412-1.417-.051-7.585-.031-15.17-.023-22.755,0-2.131.458-2.714,2.5-3.326,1.777.378,2.378,1.5,2.368,3.274-.05,8.612-.018,17.224-.026,25.837,0,2.477-.767,3.213-3.31,3.213q-61.2,0-122.4,0c-2.478,0-3.254-.785-3.254-3.291q-.006-14.856,0-29.712c0-3.692,1.736-5.506,5.4-5.418,1.4.034,1.734-.409,1.633-1.713-.117-1.5-.012-3.012-.031-4.519-.022-1.782-.167-3.569,1.526-4.844.318-.24.351-.874.492-1.334.833-2.719,1.646-5.444,2.491-8.159.6-1.943,1.273-2.384,3.285-2.253a2.7,2.7,0,0,1,1.358,3.643c-.727,2.181-1.326,4.4-2.013,6.6-.183.585-.356,1,.558.977,1.769-.044,3.539-.025,5.309-.006a1.062,1.062,0,0,0,1.02-.611q4.335-7.316,8.694-14.617l2.639-4.144a20.977,20.977,0,0,1-10.338-7.707c-.494,1.757-.911,3.243-1.328,4.729-.374,1.155-.75,2.309-1.12,3.465C4446.047,310.264,4445.4,310.711,4443.309,310.624Zm20.41-62.338-.017.012a13.117,13.117,0,0,0,8.2-15.083c-.546-2.154-.546-2.154-2.749-1.462a29.406,29.406,0,0,0-5.894.824,2.233,2.233,0,0,0-1.9,2.389c-.233,5.352-3.053,8.614-8.342,9.766-1.158.252-2.346.372-3.615.567a12.111,12.111,0,0,0,13.621,3.271A.677.677,0,0,0,4463.719,248.286Zm-15.262,84.074c-2.9-.026-5.792-.038-8.687-.089-.721-.013-1.089.171-1.069.978.042,1.609.046,3.221,0,4.829-.025.846.4.946,1.089.941,4.077-.034,8.154-.041,12.231-.057,1.119.018,2.239.006,3.357.063.862.044.986-.308.763-1.057C4455.3,335.138,4451.5,332.351,4448.457,332.36Zm51.711-6.91c.481.02.964.057,1.445.056,1.667,0,1.812-.2,1.023-1.689a8.428,8.428,0,0,0-5.379-4.5c-2.123-.875-4.346-.364-6.518-.405-1.686-.032-3.962-.808-4.921.344-.98,1.177-.181,3.4-.29,5.161-.053.85.273,1.11,1.108,1.1C4491.147,325.471,4495.657,325.469,4500.168,325.45Zm25.516-108.5h-20.095c1.63,2.912,3.116,5.637,4.676,8.32a3.026,3.026,0,0,1-.005,3.467c-.466.72-.85,1.493-1.268,2.244-1.107,1.99-2.212,3.981-3.372,6.068h20.045c1.824.038,3.649.055,5.471.123.768.029,1.025-.255,1.021-1.025q-.035-9.116,0-18.232c0-.747-.2-1.057-.992-1.031C4529.339,216.945,4527.511,216.933,4525.684,216.95Zm-35.547,78.86c-5.426-.8-10.828-1.986-16.28-2.292-7.3-.409-14.634-.127-21.954-.163-.767,0-1.128.152-.8.99,2.217,5.621,7.741,9.6,12.681,9.447,5.7-.179,11.409-.06,17.114-.032,2.869.014,4.288,1.278,4.54,4.124a46.9,46.9,0,0,1,.068,5c-.016.813.2,1.194,1.082,1.136,1.283-.085,2.571-.09,3.857-.13.693.038,1.387.079,2.08.114.534.026.777-.219.767-.769-.084-4.834.222-9.677-.168-14.5C4492.966,296.745,4492.251,296.188,4490.137,295.81Zm-27.78-41.787a23.294,23.294,0,0,1-8.789-.443c-1.423-.354-1.46,1.288-2.117,2.005-.643.7.3.826.659,1.082a7.155,7.155,0,0,1,3.161,7.271,7.053,7.053,0,0,1-4.915,5.845,16.955,16.955,0,0,1-2.142.691c-.747.169-.9.534-.79,1.263q1.169,7.889,2.252,15.79c.1.714.31,1.009,1.084,1,5.912-.045,11.823-.049,17.735-.066.32.028.645.031.96.086,1.583.279,2.063-.273,2.042-1.956-.1-8.182-.046-16.366-.047-24.549a2.739,2.739,0,0,0-.467-1.97c-1.753-2.111-3.46-4.261-5.155-6.419a.967.967,0,0,0-1.362-.369A21.287,21.287,0,0,1,4462.356,254.023Zm-9.686,74.243c4.432,2.058,7.569,5.164,8.549,10.06.154.77.653.691,1.194.69,3.82-.006,7.642-.028,11.461.016.856.01,1.1-.245,1.08-1.091-.054-2.42-.032-4.843-.016-7.264.021-3.01,1.634-4.861,4.639-5.118.967-.082,1.118-.414,1.113-1.255q-.044-7.265.011-14.53c.008-.895-.22-1.207-1.162-1.2-4.681.045-9.363.029-14.044.01a1.419,1.419,0,0,0-1.444.722C4460.29,315.619,4456.5,321.908,4452.671,328.266Zm-7.148-95.175a22.2,22.2,0,0,0,.346,4.174c.477,2.968.444,2.976,3.358,2.952.646-.005,1.295,0,1.937-.063,3.462-.329,5.271-2.17,5.384-5.454.13-3.742,1.763-5.861,5.471-6.784a49.611,49.611,0,0,1,5.862-1c1.756-.219,3.217-.721,3.968-2.516a9.2,9.2,0,0,0,.36-5.226c-.118-.7-.372-1-1.188-.69a32.235,32.235,0,0,1-12.545,1.645,14.7,14.7,0,0,0-4.78.551C4448.767,222.168,4445.236,226.376,4445.523,233.091ZM4428.7,274.546c0,1.987-.015,3.974,0,5.961.018,1.865.9,2.923,2.431,2.972,1.6.051,2.559-1.028,2.578-2.981.025-2.632.011-5.263,0-7.895a3.1,3.1,0,0,1,2.134-3.232c1.111-.422,2.894-.305,3.157-1.416.255-1.074-.669-2.408-1-3.648-.208-.788-.568-.823-1.254-.573-2.012.733-4.045,1.4-6.075,2.087a2.692,2.692,0,0,0-2,2.923C4428.739,270.678,4428.7,272.613,4428.7,274.546Zm58.865-6.555c.98-.11,1.728.147,2.285-.658,2.506-3.614,5.122-7.152,7.581-10.8,1.205-1.787.064-3.86-2.093-4.12a3.018,3.018,0,0,0-3,1.486c-1.4,2.028-2.573,4.279-4.26,6.034-1.847,1.924-1.964,4.035-1.917,6.406C4486.193,267.622,4486.411,268.312,4487.567,267.992Zm-39.667-7.757c-.549.156-1.168.326-1.784.506-4.1,1.2-4.09,1.194-2.517,5.161.2.509.331.9.989.675,1.519-.522,3.076-.949,4.554-1.566a2.256,2.256,0,0,0,1.294-2.813C4450.156,260.909,4449.2,260.4,4447.9,260.235Zm33.463,5.015c0-2.984,0-2.984-2.258-2.984-2.812,0-2.812,0-2.812,3.064,0,2.631,0,2.631,2.408,2.631C4481.363,267.96,4481.363,267.96,4481.363,265.25Z" transform="translate(-4424.08 -211.804)" fill="#030303"/>
        <path id="Trazado_7100" data-name="Trazado 7100" d="M4707.271,433.914c1.5-.02,3.016.032,4.513-.083,1.152-.088,1.418.313,1.412,1.427-.047,8.34-.029,16.68-.022,25.02,0,2.137.476,2.741,2.5,3.315v6.419c-2.046.612-2.5,1.2-2.5,3.326-.008,7.585-.028,15.17.024,22.755.007,1.124-.269,1.5-1.413,1.417-1.5-.114-3.008-.06-4.513-.079Q4707.272,465.673,4707.271,433.914Z" transform="translate(-4585 -337.962)" fill="#2a344f" opacity="0.72"/>
        <path id="Trazado_7101" data-name="Trazado 7101" d="M4481.629,431.984q-4.351,7.307-8.694,14.617a1.061,1.061,0,0,1-1.02.612c-1.769-.019-3.54-.038-5.309.005-.914.023-.74-.392-.557-.977.687-2.195,1.286-4.418,2.013-6.6A2.7,2.7,0,0,0,4466.7,436q.705-2.678,1.412-5.355c2.093.087,2.74-.36,3.367-2.319.37-1.156.746-2.31,1.12-3.465C4475.12,427.858,4477.876,430.553,4481.629,431.984Z" transform="translate(-4447.846 -332.872)" fill="#2a344f"/>
        <path id="Trazado_7102" data-name="Trazado 7102" d="M4558.021,433.927q0,31.758,0,63.517c-.538.019-1.074.054-1.611.054q-54.984,0-109.968.037c-1.463,0-1.839-.351-1.826-1.822q.114-12.757.005-25.514c-.008-1.221.308-1.493,1.5-1.49,14.372.045,28.743.03,43.116.028,2.788,0,3.505-.728,3.508-3.55,0-2.853.057-5.707-.026-8.558-.034-1.148.321-1.42,1.438-1.416,11.034.041,22.068.026,33.1.024,2.917,0,3.567-.664,3.568-3.632q0-8.236-.007-16.472c0-.749-.054-1.3,1.041-1.291C4540.583,433.907,4549.3,433.908,4558.021,433.927Z" transform="translate(-4435.75 -337.975)" fill="#2a344f" opacity="0.72"/>
        <path id="Trazado_7103" data-name="Trazado 7103" d="M4528.856,418.137c-1.286.039-2.574.044-3.857.13-.882.059-1.1-.322-1.082-1.136a46.516,46.516,0,0,0-.069-5c-.25-2.846-1.669-4.11-4.539-4.124-5.706-.028-11.415-.146-17.115.032-4.94.155-10.463-3.826-12.68-9.447-.331-.838.031-.993.8-.99,7.319.036,14.656-.246,21.954.163,5.452.306,10.855,1.5,16.28,2.292C4529.154,406.075,4528.787,412.11,4528.856,418.137Z" transform="translate(-4461.192 -317.347)" fill="#2a344f"/>
        <path id="Trazado_7104" data-name="Trazado 7104" d="M4476.723,238.727c-.287-6.715,3.244-10.922,8.172-12.409a14.709,14.709,0,0,1,4.781-.55,32.231,32.231,0,0,0,12.545-1.645c.817-.306,1.071-.01,1.189.69a9.2,9.2,0,0,1-.36,5.226c-.751,1.795-2.212,2.3-3.968,2.516a49.6,49.6,0,0,0-5.863,1c-3.708.924-5.34,3.042-5.471,6.784-.114,3.284-1.922,5.125-5.384,5.454-.642.061-1.291.058-1.937.063-2.914.024-2.882.016-3.358-2.952A22.281,22.281,0,0,1,4476.723,238.727Z" transform="translate(-4453.984 -218.736)" fill="#2a344f"/>
        <path id="Trazado_7105" data-name="Trazado 7105" d="M4490.445,425.759c-3.753-1.431-6.51-4.125-9.028-7.122l1.328-4.73a20.972,20.972,0,0,0,10.337,7.707Z" transform="translate(-4456.661 -326.647)" fill="#2a344f"/>
        <path id="Trazado_7106" data-name="Trazado 7106" d="M4580.386,421.45c-.069-6.027.3-12.062-.312-18.08,2.115.378,2.829.935,2.99,2.921.39,4.826.084,9.668.168,14.5.01.55-.232.8-.767.769C4581.772,421.529,4581.08,421.488,4580.386,421.45Z" transform="translate(-4512.722 -320.659)" fill="#2a344f"/>
      </g>
    </g>
  </g>
</svg>
