<svg xmlns="http://www.w3.org/2000/svg" width="311.922" height="94.948" viewBox="0 0 311.922 94.948">
  <g id="Grupo_13308" data-name="Grupo 13308" transform="translate(-546 -414)">
    <g id="Grupo_3" data-name="Grupo 3" transform="translate(546 414)">
      <g id="Grupo_1" data-name="Grupo 1" transform="translate(93.546 0.416)">
        <path id="Trazado_1" data-name="Trazado 1" d="M436.024,119.078c-3.717.629-7.465,1.117-11.147,1.913a344.534,344.534,0,0,0-41.123,12.072q-23.57,8.259-46.442,18.3c-4.088,1.8-8.156,3.638-12.235,5.453-.4.179-.826.316-1.382.526l-1.791-4.863c.73-.31,1.374-.6,2.027-.861,12.663-5.144,25.3-10.34,37.994-15.416,17.219-6.887,34.617-13.284,52.58-17.987,6.054-1.585,12.2-2.833,18.35-4.032a14.27,14.27,0,0,1,5.228.207c3.413.643,4.825,3.982,2.656,6.7a63.7,63.7,0,0,1-7.462,7.787c-2.581,2.3-5.509,4.2-8.241,6.378,3.379-1.455,6.692-3.092,10.151-4.324,5.641-2.01,11.36-3.812,17.082-5.581,1.742-.538,3.775-.744,5.018.927a5,5,0,0,1,.023,5.656,57.437,57.437,0,0,1-4.676,6.428c-1.148,1.428-2.518,2.676-3.644,4.252a7.775,7.775,0,0,0,.828-.362,93.429,93.429,0,0,1,18.454-8.688,50.322,50.322,0,0,1,4.97-1.291c2.5-.521,4.677.3,5.6,1.99a5.566,5.566,0,0,1-1.158,6.135c-1.464,1.463-3.125,2.727-4.635,4.147a27.968,27.968,0,0,0-2.733,2.966c-.612.771-.4,1.429.53,1.958a11.279,11.279,0,0,0,8.147,1.145c6.382-1.385,12.757-2.862,19.042-4.629a413.845,413.845,0,0,0,39.2-13.677c.412-.161.843-.271,1.415-.453.4,1.38.828,2.655,1.093,3.963.053.262-.457.816-.816.955-3.576,1.382-7.153,2.768-10.771,4.033-9.067,3.171-18.115,6.407-27.252,9.366-5.783,1.873-11.669,3.483-17.591,4.852A27.068,27.068,0,0,1,471.474,155c-7.256-1.567-6.941-7.572-4.069-11.551,1.131-1.567,2.893-2.68,4.366-4q.989-.888,1.973-1.782l-.149-.354c-.748.173-1.509.3-2.242.524-6.3,1.911-12.095,4.959-17.865,8.035-4.737,2.526-9.389,5.21-14.087,7.81a14.841,14.841,0,0,1-1.843.838,2.248,2.248,0,0,1-2.749-.348,2.558,2.558,0,0,1-.516-3.122,18.053,18.053,0,0,1,2.667-3.7c3.878-3.9,7.911-7.656,11.781-11.568,1.536-1.552,2.8-3.375,4.185-5.074l-.255-.411a40.191,40.191,0,0,0-5.113,1.331c-7.155,2.867-14.352,5.654-21.366,8.839a283.879,283.879,0,0,0-28.734,15.409c-1.378.829-2.3.783-3.178-.129a2.6,2.6,0,0,1-.212-3.362,24.9,24.9,0,0,1,7.045-6.842c8.609-5.958,17.277-11.832,25.84-17.854,2.8-1.967,5.354-4.274,7.988-6.466a11.618,11.618,0,0,0,1.35-1.6Z" transform="translate(-321.903 -114.02)" fill="#2a344f"/>
        <path id="Trazado_2" data-name="Trazado 2" d="M437.421,296.649H332.145c-1.835,0-2.086-.2-1.83-1.7a1.5,1.5,0,0,1,.888-.866,3.9,3.9,0,0,1,1.341-.051H542.419c.361,0,.724.03,1.083,0,1.018-.079,1.307.4,1.3,1.374-.011.951-.371,1.315-1.289,1.247-.449-.034-.9,0-1.354,0Z" transform="translate(-327.098 -226.279)" fill="#9d325e"/>
        <path id="Trazado_3" data-name="Trazado 3" d="M578.271,249.115c-.61,1.624-1.226,3.245-1.829,4.871-.423,1.14-.826,2.288-1.244,3.431s-2.73,1.934-3.675,1.192a1.4,1.4,0,0,1-.312-.964c-.106-4.372-.143-8.747-.3-13.117-.053-1.474.834-1.243,1.738-1.3,1.067-.071,1.26.392,1.236,1.362a67.386,67.386,0,0,0,.251,8.29c.179-.41.384-.81.534-1.231.882-2.459,1.793-4.909,2.61-7.39.57-1.733,1.942-.872,2.966-.969,1.1-.1.79.884.806,1.481.057,2.119.043,4.239.084,6.358.011.564.12,1.127.184,1.691l.362.062q.87-2.564,1.74-5.128c.259-.768.5-1.541.767-2.308.854-2.491.856-2.49,3.869-2.039-.344.981-.662,1.933-1.01,2.875-1.407,3.8-2.869,7.585-4.215,11.408-.6,1.7-1.913.977-2.956,1.026-1.178.055-.808-.976-.839-1.609-.114-2.3-.163-4.6-.247-6.894-.012-.34-.078-.679-.119-1.018Z" transform="translate(-477.219 -194.568)" fill="#2a344f"/>
        <path id="Trazado_4" data-name="Trazado 4" d="M339.1,253.168q.927-2.3,1.854-4.592c.269-.668.54-1.336.8-2.01,1.386-3.649,1.384-3.65,5.66-3.209-.231,1.575-.437,3.151-.7,4.719-.483,2.885-1.025,5.76-1.491,8.648-.36,2.232-.394,2.283-3.024,1.861l2.158-11.742-.445-.118c-.689,1.774-1.384,3.545-2.066,5.322-.71,1.85-1.482,3.681-2.081,5.566-.376,1.181-1.167,1.187-2.109,1.139-1.127-.058-.933-.927-.962-1.6-.127-3.016-.211-6.034-.323-9.05-.017-.455-.1-.907-.153-1.361l-.382-.014c-.091.454-.2.9-.269,1.362-.413,2.85-.839,5.7-1.215,8.555-.292,2.218-.52,2.4-3.027,1.914.264-1.745.507-3.5.8-5.253.5-2.974,1.06-5.937,1.531-8.915.128-.811.39-1.192,1.269-1.163,3.9.125,3.068-.645,3.4,3.142.194,2.227.231,4.468.339,6.7Z" transform="translate(-327.777 -194.57)" fill="#2a344f"/>
        <path id="Trazado_5" data-name="Trazado 5" d="M797.834,252.4c.1-.453.218-.9.3-1.36.343-1.949.7-3.9,1-5.852.3-1.938.272-1.946,2.257-1.884.308.009.615.058,1.01.1a3.952,3.952,0,0,1,.073.933c-.747,4.388-1.518,8.773-2.27,13.16-.129.753-.252,1.453-1.283,1.321-.979-.126-2.144.454-2.591-1.169-.643-2.338-1.528-4.61-2.321-6.907-.123-.356-.3-.693-.612-1.387-.2.684-.33,1-.384,1.319q-.564,3.326-1.1,6.657a2.04,2.04,0,0,1-3.007,1.349,1.322,1.322,0,0,1-.262-1.076c.739-4.39,1.525-8.773,2.276-13.161.118-.689.286-1.291,1.143-1.127.905.173,2.129-.635,2.616.9.774,2.444,1.621,4.866,2.442,7.295.1.293.236.573.354.86Z" transform="translate(-613.021 -194.632)" fill="#2a344f"/>
        <path id="Trazado_6" data-name="Trazado 6" d="M531.34,258.851c.519-3.169.992-6.087,1.475-9,.309-1.864.588-3.736.99-5.581a1.426,1.426,0,0,1,1.005-.884,43,43,0,0,1,4.734-.016,4.217,4.217,0,0,1,3.921,3.378,12.034,12.034,0,0,1-1.168,9.271,5.314,5.314,0,0,1-4.9,2.831C535.434,258.874,533.466,258.851,531.34,258.851Zm4-3.252c2.579.414,3.719-.079,4.387-2.105a21.342,21.342,0,0,0,.8-4.345,3.624,3.624,0,0,0-.436-1.8c-.5-1.06-1.531-1.008-2.469-.9a1.266,1.266,0,0,0-.922.71C536.2,249.938,535.787,252.731,535.336,255.6Z" transform="translate(-452.538 -194.662)" fill="#2a344f"/>
        <path id="Trazado_7" data-name="Trazado 7" d="M876.766,258.761a26.472,26.472,0,0,1-3.118-.044c-.3-.038-.656-.549-.79-.915-.713-1.939-1.364-3.9-2.13-6.127-1.263,1.57-3.031,2.442-3.287,4.555-.343,2.826-.6,2.971-3.776,2.34.238-1.471.474-2.957.719-4.441.514-3.108,1.107-6.206,1.517-9.328.172-1.308.73-1.691,1.931-1.542a15.216,15.216,0,0,0,1.734.011c-.3,2.052-.564,3.924-.834,5.795l.339.143c1.132-1.427,2.351-2.8,3.369-4.3a3.293,3.293,0,0,1,3.505-1.654,17.946,17.946,0,0,0,2.253.015c-1.582,1.78-2.839,3.287-4.2,4.689a1.79,1.79,0,0,0-.468,2.252c.9,2.11,1.7,4.266,2.523,6.41C876.286,257.236,876.47,257.872,876.766,258.761Z" transform="translate(-659.823 -194.598)" fill="#2a344f"/>
        <path id="Trazado_8" data-name="Trazado 8" d="M641.092,252.485a12.438,12.438,0,0,1,.3-1.975,1.16,1.16,0,0,1,.766-.716c1.474-.071,2.953-.033,4.717-.033-.425,2.421-.805,4.655-1.227,6.88a1.044,1.044,0,0,1-.525.576c-2.333,1.248-4.783,2.073-7.365.941-2.378-1.043-2.982-3.259-3.065-5.6a10.831,10.831,0,0,1,1.907-7.033,6.681,6.681,0,0,1,6.472-2.843,4.64,4.64,0,0,1,4.084,4.34c-.687.119-1.393.2-2.075.37a1.267,1.267,0,0,1-1.549-.637,2.3,2.3,0,0,0-3.72-.2c-1.473,1.511-2.249,5.473-1.44,7.378a2.285,2.285,0,0,0,2.506,1.64,3.417,3.417,0,0,0,2.126-1.294c.638-1.02.253-1.474-.959-1.615C641.783,252.63,641.523,252.565,641.092,252.485Z" transform="translate(-516.999 -194.24)" fill="#2a344f"/>
        <path id="Trazado_9" data-name="Trazado 9" d="M508.449,243.317c-.492,2.891-.908,5.59-1.424,8.27a22.789,22.789,0,0,1-1.13,4.287c-1.1,2.7-3.676,3.728-7.039,3a4.615,4.615,0,0,1-3.385-5.07c.258-3.265.867-6.5,1.381-9.744a1.125,1.125,0,0,1,.788-.7,24.812,24.812,0,0,1,2.7-.034c-.487,2.906-.951,5.642-1.4,8.381a12.681,12.681,0,0,0-.149,1.61,1.84,1.84,0,0,0,1.336,2.092,2.022,2.022,0,0,0,2.566-.974,19.33,19.33,0,0,0,1.1-3.855c.4-1.938.749-3.893.979-5.857.137-1.166.639-1.556,1.75-1.421A17.363,17.363,0,0,0,508.449,243.317Z" transform="translate(-430.153 -194.644)" fill="#2a344f"/>
        <path id="Trazado_10" data-name="Trazado 10" d="M411.892,243.3a16.533,16.533,0,0,1,2.6.035,1.843,1.843,0,0,1,1.183.8c.578,1.1,1.006,2.284,1.624,3.743.855-1.216,1.628-2.144,2.206-3.181a2.442,2.442,0,0,1,2.741-1.415,16.782,16.782,0,0,0,2.105.015,9.693,9.693,0,0,1-.554,1.05c-1.29,1.794-2.534,3.625-3.917,5.344a2.6,2.6,0,0,0-.374,3.187c.758,1.48,1.336,3.053,1.976,4.592.148.357.229.742.406,1.33a17.4,17.4,0,0,1-2.708-.043,1.671,1.671,0,0,1-.962-.909c-.531-1.136-.955-2.321-1.556-3.824a15.568,15.568,0,0,0-1.7,2.454c-1.082,2.546-3.087,2.639-5.586,2.161.354-.536.645-1.007.967-1.456,1.314-1.832,2.59-3.694,3.979-5.468a2.074,2.074,0,0,0,.257-2.461C413.692,247.391,412.88,245.5,411.892,243.3Z" transform="translate(-376.464 -194.62)" fill="#2a344f"/>
        <path id="Trazado_11" data-name="Trazado 11" d="M749.741,258.626c1-2.262,1.935-4.4,2.881-6.523,1.061-2.386,2.235-4.73,3.158-7.168a2.23,2.23,0,0,1,2.617-1.648c1.943.11,1.942.029,2.182,1.966q.755,6.1,1.527,12.188c.09.706.26,1.514-.82,1.351-.845-.128-2.331.83-2.365-1.009-.025-1.316-.551-1.785-1.806-1.616a4.386,4.386,0,0,1-1.216,0,1.741,1.741,0,0,0-2.169,1.429C753.265,259.035,752.588,259.17,749.741,258.626Zm8.367-11.428-.444-.094-2.29,6.2a19.358,19.358,0,0,0,2.486-.036,1.007,1.007,0,0,0,.642-.745C758.421,250.75,758.25,248.975,758.108,247.2Z" transform="translate(-588.764 -194.644)" fill="#2a344f"/>
        <path id="Trazado_12" data-name="Trazado 12" d="M372.972,258.826c1.136-2.575,2.125-4.831,3.125-7.081,1.08-2.43,2.217-4.835,3.232-7.291a1.535,1.535,0,0,1,1.816-1.152,3.829,3.829,0,0,0,1.081,0c1.214-.194,1.52.445,1.645,1.515.484,4.158,1.051,8.306,1.563,12.461.082.669.385,1.464-.832,1.556-2,.15-2.4.026-2.409-1.317,0-1.091-.436-1.463-1.464-1.355a5.933,5.933,0,0,1-1.353,0c-1.239-.156-2.09.188-2.352,1.541a1.358,1.358,0,0,1-1.691,1.138C374.67,258.775,374,258.826,372.972,258.826Zm5.713-5.52a23.446,23.446,0,0,0,2.443-.027c.262-.03.708-.38.7-.567-.088-1.848-.255-3.692-.4-5.537l-.428-.054Z" transform="translate(-353.757 -194.637)" fill="#2a344f"/>
        <path id="Trazado_13" data-name="Trazado 13" d="M838.45,248c-.388-1.161-.83-2.233-2.158-2.207a3.054,3.054,0,0,0-2.645,2.049,8.421,8.421,0,0,0-.872,5.507,3.251,3.251,0,0,0,1.564,1.931c.915.453,1.809-.082,2.419-.961,1.338-1.932,1.349-1.925,3.686-1.014.064,2.139-2.092,4.679-4.364,5.143-2.918.6-5.285-.4-6.137-2.854a11,11,0,0,1,1.856-10.942,5.532,5.532,0,0,1,5.727-1.94,4.815,4.815,0,0,1,3.591,3.511c.392,1.087.128,1.632-1.076,1.644C839.55,247.867,839.06,247.943,838.45,248Z" transform="translate(-638.352 -194.199)" fill="#2a344f"/>
        <path id="Trazado_14" data-name="Trazado 14" d="M687.031,258.654c.676-3.938,1.338-7.787,2-11.636.015-.088.042-.175.057-.264.572-3.386.572-3.386,3.944-3.385.9,0,1.8-.02,2.7.017a3.081,3.081,0,0,1,3.177,2.733c.792,3.874-1.536,6.776-5.488,6.84-1.987.032-1.989.032-2.331,1.974q-.117.664-.211,1.332C690.49,259.094,690.119,259.341,687.031,258.654Zm4.914-8.709c2.561.742,4.283-.569,3.706-2.74a2.119,2.119,0,0,0-1.385-1.134c-.5-.127-1.508.095-1.615.4A22.652,22.652,0,0,0,691.945,249.945Z" transform="translate(-549.649 -194.698)" fill="#2a344f"/>
        <path id="Trazado_15" data-name="Trazado 15" d="M469.769,243.326c-.6,3.585-1.147,6.954-1.719,10.32-.269,1.584-.19,1.7,1.425,1.713,1.425.009,2.851,0,4.437,0a25.267,25.267,0,0,1-.395,2.756,1.125,1.125,0,0,1-.815.678c-2.837.028-5.675-.014-8.513-.044-.072,0-.144-.1-.356-.252.341-2.13.685-4.34,1.051-6.546.4-2.395.894-4.777,1.188-7.184.156-1.274.76-1.567,1.871-1.452C468.471,243.371,469.01,243.326,469.769,243.326Z" transform="translate(-410.431 -194.654)" fill="#2a344f"/>
        <path id="Trazado_16" data-name="Trazado 16" d="M720.774,258.836l1.735-10.375c.215-1.285.5-2.562.624-3.855.1-1.072.617-1.367,1.591-1.279.614.056,1.237.011,2.043.011l-1.954,12.026h6.1c-.138,1.089-.2,1.973-.389,2.828a1.012,1.012,0,0,1-.737.616C726.875,258.852,723.959,258.836,720.774,258.836Z" transform="translate(-570.696 -194.666)" fill="#2a344f"/>
        <path id="Trazado_17" data-name="Trazado 17" d="M620.935,243.335c-.374,2.326-.706,4.438-1.057,6.548-.4,2.393-.922,4.771-1.183,7.178-.169,1.557-.876,2.005-2.285,1.8-.434-.064-.877-.066-1.482-.108.379-2.283.733-4.439,1.095-6.594.424-2.526.906-5.043,1.259-7.579.134-.963.48-1.353,1.453-1.255C619.39,243.389,620.056,243.335,620.935,243.335Z" transform="translate(-504.676 -194.662)" fill="#2a344f"/>
        <path id="Trazado_18" data-name="Trazado 18" d="M342.707,318.381V312.5a13.215,13.215,0,0,1,1.89.967c1.277.964,2.5,2,3.747,3.006l.4-.117a23.994,23.994,0,0,1,.031-2.587c.036-.331.422-.625.649-.936.2.3.55.589.562.893.058,1.519.027,3.042.027,5.028a15.653,15.653,0,0,1-1.887-1.017c-1.311-.981-2.576-2.023-3.859-3.04l-.381.176c0,.832-.052,1.668.014,2.495C343.973,318.275,343.678,318.651,342.707,318.381Z" transform="translate(-334.879 -237.822)" fill="#2a344f"/>
        <path id="Trazado_19" data-name="Trazado 19" d="M531.048,318.767a12.257,12.257,0,0,1-1.747-.912c-1.334-1.04-2.625-2.138-4.212-3.443v3.968h-1.344v-5.867a13.813,13.813,0,0,1,1.887.967c1.315.979,2.58,2.025,4.17,3.286v-3.761c.885-.35,1.275-.229,1.256.65C531.025,315.181,531.048,316.708,531.048,318.767Z" transform="translate(-447.801 -237.829)" fill="#2a344f"/>
        <path id="Trazado_20" data-name="Trazado 20" d="M579.141,316.126c.038-3.363-.394-2.836,2.861-2.863a12.547,12.547,0,0,1,2.551.229,2.452,2.452,0,0,1,2.162,2.543,2.409,2.409,0,0,1-2.1,2.591,30.938,30.938,0,0,1-4.712.245c-.253,0-.661-.523-.726-.858A10.008,10.008,0,0,1,579.141,316.126Zm1.508-.518c.006,2.566.006,2.566,1.847,2.565,1.991,0,2.774-.586,2.779-2.076.006-1.613-.838-2.089-3.111-2.23C580.386,313.756,580.587,314.8,580.649,315.607Z" transform="translate(-482.335 -238.287)" fill="#2a344f"/>
        <path id="Trazado_21" data-name="Trazado 21" d="M783.754,316.69l1.781,1.964c-1.265.425-1.248.411-1.99-.485a7.885,7.885,0,0,0-1.4-1.456,1.308,1.308,0,0,0-2.168,1.128c-.012.306-.041.611-.068,1l-1.386.082c0-1.7-.033-3.3.034-4.907a1.035,1.035,0,0,1,.715-.713,25.309,25.309,0,0,1,4.448.091,2.621,2.621,0,0,1,1.764,1.309c.372.875-.535,1.278-1.25,1.6A3.412,3.412,0,0,0,783.754,316.69Zm-1.789-2.763v-.02c-.268,0-.537,0-.805,0-.635-.012-1.159.072-1.17.907s.465.956,1.128.935a10.668,10.668,0,0,0,2-.063c.382-.088.676-.553,1.01-.848a4.1,4.1,0,0,0-.973-.879A3.177,3.177,0,0,0,781.965,313.926Z" transform="translate(-606.711 -238.289)" fill="#2a344f"/>
        <path id="Trazado_22" data-name="Trazado 22" d="M856.337,319.17c0-1.922-.041-3.488.038-5.048a1.128,1.128,0,0,1,.815-.742,34.387,34.387,0,0,1,4.564.208,2.359,2.359,0,0,1,2.1,2.435,2.256,2.256,0,0,1-1.845,2.611C860.217,318.937,858.378,318.99,856.337,319.17Zm1.448-3.078c0,2.162,0,2.162,1.653,2.161,2.251,0,3.018-.548,2.986-2.128s-.847-2.149-3.04-2.139C857.783,313.993,857.783,313.993,857.784,316.092Z" transform="translate(-655.246 -238.369)" fill="#2a344f"/>
        <path id="Trazado_23" data-name="Trazado 23" d="M500.711,318.838c.309,0,.264,0,.219,0-2.213-.119-3.828-1.406-3.834-3.053,0-1.665,1.381-2.794,3.685-3l.135-.011c2.381-.15,4.235,1.113,4.3,2.928C505.278,317.48,503.434,318.876,500.711,318.838Zm.5-.709a2.362,2.362,0,0,0,2.567-2.369c.015-1.484-.948-2.275-2.731-2.243a2.289,2.289,0,0,0-2.535,2.357A2.437,2.437,0,0,0,501.211,318.128Z" transform="translate(-431.179 -237.983)" fill="#2a344f"/>
        <path id="Trazado_24" data-name="Trazado 24" d="M563.02,313.951a20.425,20.425,0,0,0-2.733.03c-.689.094-1.89-.6-1.977.649-.1,1.437,1.211.735,1.926.9.5.116,1.013.157,1.52.232l-.055.52c-.69,0-1.38.019-2.069-.005-.808-.028-1.422.076-1.4,1.131s.747.822,1.337.833c1.23.02,2.461.006,3.692.006l0,.692c-2.148.09-4.3.077-6.584-.02,0-1.68-.026-3.248.026-4.813.009-.26.354-.724.555-.73,1.916-.056,3.835-.033,5.753-.033Z" transform="translate(-468.342 -238.343)" fill="#2a344f"/>
        <path id="Trazado_25" data-name="Trazado 25" d="M757.124,318.882c-1.106.322-1.554-.018-1.512-1.075.045-1.168-.036-2.342.05-3.506.024-.33.434-.9.676-.9a30.976,30.976,0,0,1,4.836.18c.517.072,1.316.884,1.294,1.321-.026.5-.74,1.157-1.3,1.4a4.909,4.909,0,0,1-2.255.248c-1.356-.114-1.956.363-1.737,1.746A2.726,2.726,0,0,1,757.124,318.882Zm1.962-3.084,0,.057a3.78,3.78,0,0,0,1.323-.137c.325-.161.5-.621.744-.948-.511-.261-1.024-.738-1.532-.733a11.012,11.012,0,0,0-2.4.534c.216.409.342.937.677,1.188C758.162,315.953,758.682,315.8,759.086,315.8Z" transform="translate(-592.425 -238.371)" fill="#2a344f"/>
        <path id="Trazado_26" data-name="Trazado 26" d="M367.891,317.718a10.333,10.333,0,0,1,1.064.006,17.8,17.8,0,0,0,2.783.279c.365-.021.7-.654,1.041-1.009a4.04,4.04,0,0,0-1.106-.728,23.474,23.474,0,0,1-2.516-.434c-.553-.208-1.371-.882-1.322-1.247a2.444,2.444,0,0,1,1.262-1.5,5.217,5.217,0,0,1,4.838.631,9.658,9.658,0,0,1-1.041.04c-.981-.064-1.96-.216-2.938-.2-.289,0-.572.452-.857.7.287.23.545.59.868.664a25.388,25.388,0,0,1,2.913.525c.526.189,1.225.879,1.215,1.329A2.2,2.2,0,0,1,373,318.351a5.8,5.8,0,0,1-5.116-.271Z" transform="translate(-350.551 -237.964)" fill="#2a344f"/>
        <path id="Trazado_27" data-name="Trazado 27" d="M731.087,319.122c-.926.154-1.554.305-2-.7-.511-1.137-3.64-.952-4.339.1a4.537,4.537,0,0,1-1.222.9l-.3-.362c.988-1.731,1.923-3.5,3.021-5.156a1.743,1.743,0,0,1,1.621.073C729,315.582,729.97,317.3,731.087,319.122Zm-4.125-4.113-1.153,2.087,2.337-.152Z" transform="translate(-572.221 -238.596)" fill="#2a344f"/>
        <path id="Trazado_28" data-name="Trazado 28" d="M650.862,319.253c1.147-2.021,2.061-3.767,3.139-5.4a1.7,1.7,0,0,1,1.577-.1c1.172,1.674,2.191,3.453,3.3,5.26-.993.244-1.725.309-2-.809a.888.888,0,0,0-.7-.5c-1.326.189-3.057-.885-3.837,1.2C652.248,319.109,651.553,319.1,650.862,319.253Zm3.907-4.463-1.164,2.216,2.375-.145Z" transform="translate(-527.089 -238.505)" fill="#2a344f"/>
        <path id="Trazado_29" data-name="Trazado 29" d="M609.486,313.509c.944-.359,1.342-.1,1.339.767,0,.45.042.9,0,1.349-.113,1.164.239,2.56-1.263,3.129a5.709,5.709,0,0,1-5.195-.281,2.027,2.027,0,0,1-.686-1.375,26.287,26.287,0,0,1-.044-2.831c-.008-.894.45-1.084,1.4-.774,0,.971-.019,1.992,0,3.013.035,1.538.584,2.026,2.206,2.015,1.659-.012,2.214-.492,2.241-1.978C609.5,315.556,609.486,314.568,609.486,313.509Z" transform="translate(-497.622 -238.353)" fill="#2a344f"/>
        <path id="Trazado_30" data-name="Trazado 30" d="M838.808,319.178l-1.5.087a3.606,3.606,0,0,0-4.3-1.384,1.061,1.061,0,0,0-.5.6c-.178.91-.746.847-1.651.6.606-1,1.182-1.918,1.73-2.855a9.56,9.56,0,0,1,1.285-2.182c.339-.323,1.541-.388,1.721-.128C836.741,315.562,837.71,317.33,838.808,319.178Zm-5.373-2.075,2.512-.11-1.273-2.023Z" transform="translate(-639.362 -238.604)" fill="#2a344f"/>
        <path id="Trazado_31" data-name="Trazado 31" d="M878.55,319.077c.979-1.706,1.894-3.456,2.994-5.079a1.822,1.822,0,0,1,1.708-.044c1.143,1.639,2.108,3.4,3.182,5.205-.841.108-1.464.293-1.94-.7-.571-1.2-3.723-.981-4.432.134-.255.4-.843.589-1.279.874Zm2.521-1.962,2.5-.13-1.261-1.981Z" transform="translate(-669.108 -238.608)" fill="#2a344f"/>
        <path id="Trazado_32" data-name="Trazado 32" d="M446.34,315.883c-.082.909.34,2.267-1.1,2.837a5.664,5.664,0,0,1-5.2-.211,2.015,2.015,0,0,1-.721-1.35,14.6,14.6,0,0,1-.059-2.96c.023-.3.469-.568.722-.851.219.271.6.526.626.815.087.892.038,1.8.047,2.7.013,1.337.906,1.618,2,1.653,1.566.05,2.325-.388,2.422-1.518.081-.938-.015-1.892.067-2.831.025-.289.38-.548.584-.821.2.28.518.537.583.847A9.193,9.193,0,0,1,446.34,315.883Z" transform="translate(-395.076 -238.347)" fill="#2a344f"/>
        <path id="Trazado_33" data-name="Trazado 33" d="M813.745,318.743l-3.079-5.4c.988-.423,1.466-.194,1.86.718a26.858,26.858,0,0,0,1.74,2.989c1.666-.976,1.427-3.537,3.418-3.991l.432.327a40.9,40.9,0,0,0-2.526,4.325C815.143,318.715,814.649,319,813.745,318.743Z" transform="translate(-626.766 -238.166)" fill="#2a344f"/>
        <path id="Trazado_34" data-name="Trazado 34" d="M703.089,313.028c2.05.418,1.906,2.9,3.322,3.919,1.623-.836,1.177-3.663,3.843-3.946-1.109,2.013-2.023,3.785-3.073,5.472-.191.306-.941.265-1.3.351l-3.18-5.44Z" transform="translate(-559.425 -238.133)" fill="#2a344f"/>
        <path id="Trazado_35" data-name="Trazado 35" d="M634.283,317.386a4.8,4.8,0,0,1-6.118.581,2.559,2.559,0,0,1,.146-4.464,5.09,5.09,0,0,1,6.207.79c-.267-.05-.535-.1-.8-.15a18.209,18.209,0,0,0-3.113-.585,2.192,2.192,0,0,0-2.249,2.087,2.16,2.16,0,0,0,1.845,2.33,9.943,9.943,0,0,0,2.908-.143A5.051,5.051,0,0,0,634.283,317.386Z" transform="translate(-512.16 -237.999)" fill="#2a344f"/>
        <path id="Trazado_36" data-name="Trazado 36" d="M470.093,314.474a5.719,5.719,0,0,0-.855-.315,17.246,17.246,0,0,0-3.387-.524,2.009,2.009,0,0,0-1.921,1.958,1.933,1.933,0,0,0,1.505,2.27,14.705,14.705,0,0,0,3.545-.128c.327-.026.64-.23,1-.246-1.531,1.8-5.334,1.781-6.756.083a2.519,2.519,0,0,1,.333-3.819,5.766,5.766,0,0,1,6.469.152C470.094,313.968,470.058,314.146,470.093,314.474Z" transform="translate(-409.6 -238.03)" fill="#2a344f"/>
        <path id="Trazado_37" data-name="Trazado 37" d="M417.3,313.575h7.08l.049.362a5.343,5.343,0,0,1-1.268.146c-1.335-.163-1.759.411-1.639,1.689.1,1.024.019,2.065.019,3.255l-1.418.094c0-1.284-.066-2.447.018-3.6s-.385-1.544-1.479-1.433a9.408,9.408,0,0,1-1.377-.055Z" transform="translate(-381.394 -238.491)" fill="#2a344f"/>
        <path id="Trazado_38" data-name="Trazado 38" d="M679.169,313.744c-.3.256-.329.3-.367.312-.772.155-1.984.069-2.22.508a6.76,6.76,0,0,0-.24,2.768c-.021.579,0,1.159,0,1.818h-1.388c0-1.168-.063-2.288.017-3.4.085-1.166-.311-1.7-1.525-1.56a8.549,8.549,0,0,1-1.372-.058l.012-.392Z" transform="translate(-540.318 -238.597)" fill="#2a344f"/>
        <path id="Trazado_39" data-name="Trazado 39" d="M388.263,313.606H394.8l.044.342a9.913,9.913,0,0,1-1.445.163c-.821-.023-1.12.331-1.1,1.133.039,1.25.011,2.5.011,3.824h-1.444c0-1.118-.067-2.189.017-3.248.1-1.252-.283-1.889-1.639-1.713a4.055,4.055,0,0,1-1.01-.122Z" transform="translate(-363.28 -238.51)" fill="#2a344f"/>
        <path id="Trazado_40" data-name="Trazado 40" d="M332.659,318.778c0-1.546-.033-3.115.032-4.679.011-.268.436-.518.669-.777.284.259.8.5.814.778a38.153,38.153,0,0,1,.027,4.05C334.165,319,334.039,319.025,332.659,318.778Z" transform="translate(-328.607 -238.333)" fill="#2a344f"/>
        <path id="Trazado_41" data-name="Trazado 41" d="M489.878,313.483v5.386c-.949.287-1.481.093-1.441-1.015.041-1.162.027-2.327.008-3.49C488.429,313.427,488.869,313.172,489.878,313.483Z" transform="translate(-425.776 -238.355)" fill="#2a344f"/>
        <path id="Trazado_42" data-name="Trazado 42" d="M694.417,318.838c0-1.58-.04-3.1.033-4.61.015-.309.456-.6.7-.894.266.321.733.625.762.967.1,1.155.009,2.325.054,3.487C696.009,318.848,695.548,319.165,694.417,318.838Z" transform="translate(-554.249 -238.341)" fill="#2a344f"/>
        <path id="Trazado_43" data-name="Trazado 43" d="M411.361,318.838c-1.122.321-1.506-.089-1.467-1.107.045-1.162-.047-2.332.052-3.488.029-.335.505-.632.777-.947.213.308.6.608.609.924C411.4,315.734,411.361,317.252,411.361,318.838Z" transform="translate(-376.785 -238.317)" fill="#2a344f"/>
        <path id="Trazado_44" data-name="Trazado 44" d="M802.32,318.971c0-1.741-.038-3.261.032-4.775.014-.3.444-.589.683-.883.249.275.7.541.714.827.072,1.517.034,3.039.034,4.705Z" transform="translate(-621.554 -238.328)" fill="#2a344f"/>
      </g>
      <g id="Grupo_2" data-name="Grupo 2" transform="translate(0 0)">
        <path id="Trazado_45" data-name="Trazado 45" d="M114.764,116.791q16.26,0,32.521,0c.677,0,1.356-.006,2.032-.043,2.11-.115,2.255-.143,2.569,1.911.847,5.521,1.7,11.047,2.285,16.6a97.8,97.8,0,0,1,.053,19.182c-1.5,16.273-6.845,30.831-19,42.317a62.825,62.825,0,0,1-19.809,12.492,2.278,2.278,0,0,1-1.631-.072c-11.04-5.134-20.283-12.442-26.975-22.706a69.069,69.069,0,0,1-9.665-25.051,99.574,99.574,0,0,1-1.224-23.022,113.156,113.156,0,0,1,2.757-20.155,1.535,1.535,0,0,1,1.806-1.432c11.427.038,22.855.023,34.282.023Z" transform="translate(-74.83 -115.278)" fill="#9d325e"/>
        <path id="Trazado_46" data-name="Trazado 46" d="M116.673,116.978q16.26,0,32.521,0c.677,0,1.356-.006,2.032-.043,2.11-.115,2.254-.143,2.569,1.911.847,5.521,1.7,11.047,2.285,16.6a55.116,55.116,0,0,1,.534,7.467c-2.45,3.048-5.7,4.906-18.134,12.656-9.832,5.295-2.268-9.8-3.876-7.752,1.066.557-6.614,5.288-8.509,5.2-1.43-.067-.09-5.583-.289-5.676-9.443-1.775-28.014,28.934-6.811-2.506-4.989-7.652-37.366,29.71-39.09,20.761-2.341-6.856-2.391-19.322-2.077-27.011a113.19,113.19,0,0,1,2.756-20.155A1.535,1.535,0,0,1,82.391,117c11.427.038,22.855.023,34.282.023Z" transform="translate(-76.031 -115.395)" fill="#2a344f"/>
        <path id="Trazado_47" data-name="Trazado 47" d="M129.622,189.065l.479.456a12.653,12.653,0,0,1-.605,1.617c-1.058,1.984-2.2,3.923-3.223,5.925-.465.9-1.139,2.019-.023,2.858,1.01.759,1.624-.359,2.316-.9.23-.18.408-.432.627-.629,2.559-2.3,5.113-4.613,7.693-6.889a7.928,7.928,0,0,1,1.411-.813,11.939,11.939,0,0,1-.978,2.456,9.4,9.4,0,0,0-.737,2.873c-.074,1.792.834,2.83,2.532,2.782a16.8,16.8,0,0,0,4.786-.74c5.026-1.812,9.313-5.275,13.919-8.011,1.618-.961,1.924-2.317,1.143-4.415-.575.4-1.12.8-1.684,1.167-3.678,2.4-7.284,4.948-11.074,7.14a22.842,22.842,0,0,1-6.227,2.223c-1.38.324-1.693-.316-1.019-1.639.588-1.155,1.325-2.227,1.95-3.363a2.089,2.089,0,0,0-.4-2.857,2.844,2.844,0,0,0-2.478-.126,33.149,33.149,0,0,0-4.382,2.9c-.832.6-1.576,1.342-2.359,2.02.2-1.316.766-2.422.9-3.583a3.5,3.5,0,0,0-.644-2.582c-.418-.4-1.691-.26-2.348.106-2.122,1.181-4.133,2.58-6.191,3.889-.28.178-.584.316-1.166.629.924-1.583,1.725-2.785,2.353-4.079.608-1.253,1.312-2.7.258-3.968-1.025-1.229-2.475-.732-3.647-.178-3.2,1.514-6.426,3.019-9.5,4.794-8.818,5.091-16.778,11.492-24.586,18.1-1.748,1.481-1.852,2.351-.526,4.418q5.049-4.185,10.09-8.361c7.413-6.108,15.133-11.709,23.789-15.749.75-.35,1.551-.578,2.328-.862l.287.412a27.215,27.215,0,0,1-1.6,2.627c-2.3,2.989-4.712,5.888-6.972,8.911a30.594,30.594,0,0,0-2.651,4.48c-.2.39-.011,1.438.237,1.539a2.514,2.514,0,0,0,1.645-.224c.33-.127.556-.544.838-.819,3.073-2.992,6.071-6.078,9.253-8.937C125.349,191.951,127.551,190.588,129.622,189.065Z" transform="translate(-80.772 -156.474)" fill="#fff"/>
        <g id="Trazado_48" data-name="Trazado 48" transform="translate(-73.279 -112.915)" fill="none" stroke-miterlimit="10">
          <path d="M113.238,113q16.662,0,33.323,0c.694,0,1.39-.006,2.082-.044,2.162-.118,2.31-.147,2.633,1.958.868,5.657,1.747,11.32,2.342,17.009a100.217,100.217,0,0,1,.054,19.654c-1.539,16.674-7.014,31.592-19.47,43.361a64.378,64.378,0,0,1-20.3,12.8,2.337,2.337,0,0,1-1.671-.074c-11.313-5.261-20.783-12.749-27.641-23.267a70.774,70.774,0,0,1-9.9-25.669c-1.507-7.823-1.575-15.711-1.254-23.59a116.006,116.006,0,0,1,2.825-20.652,1.573,1.573,0,0,1,1.851-1.467c11.709.039,23.418.024,35.127.024Z" stroke="none"/>
          <path d="M 143.2473907470703 122.0029907226562 L 125.4080200195312 122.0046539306641 L 122.2378387451172 122.0046081542969 L 122.2378387451172 122.0462951660156 L 83.9208984375 122.0300903320312 C 83.09754943847656 126.6862335205078 82.60560607910156 131.1351928710938 82.42701721191406 135.5087127685547 C 82.16351318359375 141.9620056152344 82.08798217773438 149.5653686523438 83.52569580078125 157.0291442871094 C 85.22926330566406 165.8721466064453 88.04386901855469 173.2176818847656 92.13037109375 179.4855346679688 C 97.2481689453125 187.3350372314453 104.2030715942383 193.4742584228516 113.3334808349609 198.1870880126953 C 118.9967956542969 195.5845794677734 123.8224411010742 192.3660278320312 128.0201263427734 188.3997955322266 C 137.7615509033203 179.1950836181641 143.220703125 166.8806915283203 144.7095642089844 150.7530059814453 C 145.2778778076172 144.5956115722656 145.2631988525391 138.575927734375 144.666015625 132.8615417480469 C 144.2962188720703 129.3245391845703 143.8120727539062 125.7987823486328 143.2473907470703 122.0029907226562 M 149.7179260253906 112.9149932861328 C 150.8713989257812 112.9149780273438 151.017333984375 113.2337799072266 151.2754516601562 114.9166870117188 C 152.1430969238281 120.5736846923828 153.0223999023438 126.236328125 153.6172332763672 131.9256896972656 C 154.3001708984375 138.4605102539062 154.2764434814453 145.0254364013672 153.6714477539062 151.5801849365234 C 152.1321716308594 168.2543334960938 146.6573028564453 183.1717224121094 134.2013397216797 194.94140625 C 128.2846984863281 200.5317993164062 121.4326934814453 204.690185546875 113.9030914306641 207.7416076660156 C 113.427116394043 207.9342498779297 112.706184387207 207.8879699707031 112.2317657470703 207.6675109863281 C 100.9188766479492 202.4066772460938 91.44851684570312 194.9184265136719 84.59123229980469 184.4009704589844 C 79.47944641113281 176.560546875 76.45469665527344 167.9013977050781 74.68820190429688 158.7316436767578 C 73.1812744140625 150.9085388183594 73.11280822753906 143.0203247070312 73.43452453613281 135.1415405273438 C 73.71820068359375 128.1943664550781 74.73219299316406 121.2964630126953 76.25944519042969 114.4892578125 C 76.50778198242188 113.3811950683594 76.96981811523438 113.0198364257812 78.11062622070312 113.022216796875 C 89.81930541992188 113.0613555908203 101.5287857055664 113.0463104248047 113.2378387451172 113.0462951660156 L 113.2378387451172 113.0045471191406 C 124.3456802368164 113.0045623779297 135.453125 113.0052947998047 146.5605926513672 113.002685546875 C 147.2547607421875 113.002685546875 147.9500885009766 112.9966430664062 148.6428070068359 112.9586486816406 C 149.0762176513672 112.9350433349609 149.4287719726562 112.9149932861328 149.7179260253906 112.9149932861328 Z" stroke="none" fill="#707070"/>
        </g>
      </g>
    </g>
  </g>
</svg>
