<svg xmlns="http://www.w3.org/2000/svg" width="71.214" height="79.438" viewBox="0 0 71.214 79.438">
  <g id="Grupo_13313" data-name="Grupo 13313" transform="translate(-3589.16 -208.992)">
    <path id="Trazado_7069" data-name="Trazado 7069" d="M3655.516,246.444a22.473,22.473,0,0,0-3.154-5.042,1.6,1.6,0,0,0-.289-1.006.821.821,0,0,0-.9-.315,20.05,20.05,0,0,0-8.187-5.118,1.351,1.351,0,0,0-.065-.162.6.6,0,0,0-.915-.116,17.816,17.816,0,0,0-11.923,1.032c-.347-.014-.688-.016-1.025-.007a.916.916,0,0,0-1.511.126c-9.174,1.224-14.753,11.158-15.472,19.849-.82,9.91,2.418,22.544,12.626,26.469,9.192,3.533,20.67-.048,27.7-6.494C3661.026,267.758,3660.035,256.367,3655.516,246.444Zm-2.62,7.609c1-.257,2.018-.5,3.016-.778a28.252,28.252,0,0,1,1.176,8.26c-.733.1-1.469.328-2.166.478s-.493,1.287.206,1.221c.6-.057,1.238-.075,1.858-.155a16.172,16.172,0,0,1-2.283,6.834c-.261.428-.544.841-.839,1.245a5.859,5.859,0,0,0-1.2-.564l-1.693-.693a.6.6,0,0,0-.559,1.065l1.676.933a8.737,8.737,0,0,0,.852.441,25.884,25.884,0,0,1-9.855,6.947c-.3-.815-.648-1.608-.907-2.44-.251-.805-.244-1.613-1.06-2.033a.792.792,0,0,0-1.049.326c-.481.818.043,1.629.39,2.42a15.92,15.92,0,0,0,1.175,2.287l-.063.024a26.4,26.4,0,0,1-11.951,1.513.53.53,0,0,0-.017-.087,1.031,1.031,0,0,1,.25-1.243c.709-.656-.464-1.765-1.121-1.023a2.416,2.416,0,0,0-.564,2.114,17.568,17.568,0,0,1-2.908-.863,14.916,14.916,0,0,1-6.175-4.631q.364-.358.727-.719a2.617,2.617,0,0,0,.836-1.128.57.57,0,0,0-.72-.668,2.585,2.585,0,0,0-1.037.956l-.5.638a24.341,24.341,0,0,1-3.628-8.575c-.047-.208-.087-.419-.131-.628a.671.671,0,0,0,.588.107q2.147-.552,4.286-1.132a.888.888,0,0,0-.527-1.7q-2.093.733-4.171,1.5a.687.687,0,0,0-.354.288,31.9,31.9,0,0,1-.151-10.314l1.136.358a4.1,4.1,0,0,0,2.022.363.488.488,0,0,0,.183-.821,4.239,4.239,0,0,0-1.929-.733l-1.213-.308a23.8,23.8,0,0,1,2.8-7.537,14.305,14.305,0,0,0,2.623,2c.682.367,1.214-.531.739-1.052a14.618,14.618,0,0,0-2.639-2.084,17.59,17.59,0,0,1,9.813-7.086c.21.533.4,1.083.6,1.612a.724.724,0,0,0,1.382-.431c-.093-.393-.2-.789-.3-1.186a.524.524,0,0,0,.137-.028,19.282,19.282,0,0,1,11.8-.977c-.007.1-.016.194-.027.288q-.132,1.119-.264,2.238c-.087.745.989,1.034,1.16.269s.348-1.544.521-2.315l.018-.074a17.652,17.652,0,0,1,2.409.988,16.309,16.309,0,0,1,5.31,4.319,1.927,1.927,0,0,1-.31.528c-.214.255-.547.412-.735.675l-.016.007c-.5.2-.438,1.028.168.992.063,0,.125-.01.189-.018.613.184,1.277-.338,1.708-.854a30.705,30.705,0,0,1,3.757,7.967c-.987.336-1.962.716-2.939,1.076A.835.835,0,0,0,3652.9,254.053Z" transform="translate(-5.771 -6.359)" fill="#fff"/>
    <path id="Trazado_7070" data-name="Trazado 7070" d="M3653.962,212.754c-4.908-3.7-10.288-2.453-14.267.951-4.192-5.886-13.708-5.225-19.84-3.516-5.376,1.5-15.367,5.992-15.81,12.6a13.873,13.873,0,0,0-13.719,7.737c-3.6,7.384,1.458,18.927,10.662,17.867-.01.093-.023.185-.031.278-1.075,11.664,2.518,26.875,14.408,31.7a26.257,26.257,0,0,0,4.951,1.443c-.776,2.351-.8,5.652,2.025,6.491a3.368,3.368,0,0,0,3.535-1.287c1.029-1.274,1.143-2.98,1.232-4.546a.771.771,0,0,0-.005-.138,38.676,38.676,0,0,0,23.227-8.789,25.518,25.518,0,0,0,3.147-3.2,3.851,3.851,0,0,0,6.382.084,4.137,4.137,0,0,0-2.773-5.977c3.191-7.327,2.837-15.968-.393-23.718a31.581,31.581,0,0,0-3.546-6.311c3.814-1.02,5.459-6.731,5.732-10.156A12.987,12.987,0,0,0,3653.962,212.754Zm-33.565-.824c6.034-1.594,13.417-1.8,17.957,3.055-.1.107-.192.221-.29.331-9.829-8.278-23.188-.508-30.753,7.076-.48.481.238,1.373.784.929,7.979-6.5,18.987-13.985,28.817-6.579a17.2,17.2,0,0,0-2.875,6.333.647.647,0,0,0,0,.146,19.41,19.41,0,0,0-10.372,2.81,21.015,21.015,0,0,0-9.438,2.173.839.839,0,0,0-.226-.845,15.456,15.456,0,0,0-8.725-4.431C3606.6,217.03,3615.259,213.286,3620.4,211.929Zm-28.244,19.035c4.194-8.163,14.55-8.133,20.672-2.323a.88.88,0,0,0,.251.168c-6.464,3.7-10.836,10.7-11.952,18.471C3593.727,245.446,3588.188,238.68,3592.153,230.964Zm33.577,51.557c-.126,1.486-1.059,5.825-3.471,3.95-1.381-1.073-1.077-2.907-.876-4.469a31.36,31.36,0,0,0,4.381.349A.718.718,0,0,0,3625.73,282.522Zm32.88-13.018c-.857,1.659-3.5,1.469-4.529.138-.009-.011-.019-.016-.029-.026a24.718,24.718,0,0,0,2.34-3.708.83.83,0,0,0,.167.037A2.594,2.594,0,0,1,3658.61,269.5Zm-7.72,1.581c-7.607,7.571-20.019,11.238-30.539,9.208-12.648-2.442-17.39-14.537-17.983-26.245-.312-6.154.786-12.539,4.395-17.657,3.92-5.56,10.2-8.615,16.847-9.289a.592.592,0,0,0,.7.032c.064-.04.129-.073.193-.112l.1-.009a.45.45,0,0,0,.415-.29c11.271-6.363,24.072,1.686,29.4,12.152C3659.681,249.21,3659.45,262.564,3650.89,271.084Zm1.2-38.042c-4.3-5.318-10.266-9.149-16.705-9.745,1.175-2.759,2.355-5.457,4.548-7.592,3.365-3.28,8.416-4.506,12.468-1.747C3658.464,218.085,3658.792,229.295,3652.094,233.042Z" transform="translate(0)" fill="#fff"/>
    <path id="Trazado_7071" data-name="Trazado 7071" d="M3643.368,260.03l-.008-.01,0,0-.011-.01a1.976,1.976,0,0,0-.876-.492,94.014,94.014,0,0,0-5.085-16.006c-.509-1.22-2.487-.63-1.984.618,2.059,5.106,3.885,10.262,5.572,15.5a.971.971,0,0,0-.22.173,2,2,0,0,0,.02,2.438c.048.061.106.119.162.179-1.439,3.022-2.691,6.2-3.853,9.331-.5,1.358,1.722,1.877,2.208.511,1.079-3.039,2.113-6.181,2.922-9.313a1.854,1.854,0,0,0,1.135-.617,1.887,1.887,0,0,0,.38-.719,1.474,1.474,0,0,0,.037-.849A1.34,1.34,0,0,0,3643.368,260.03Z" transform="translate(-11.689 -8.571)" fill="#fff"/>
  </g>
</svg>
